<mxfile host="app.diagrams.net" modified="2023-11-27T14:09:19.402Z" agent="Mozilla/5.0 (X11; Linux x86_64) AppleWebKit/537.36 (KHTML, like Gecko) Chrome/116.0.0.0 Safari/537.36 Edg/116.0.1938.76" etag="aj3Myj01RbBK59dnHdFz" version="22.1.4" type="github" pages="4">
  <diagram id="yPxyJZ8AM_hMuL3Unpa9" name="gitflow">
    <mxGraphModel dx="2214" dy="775" grid="1" gridSize="10" guides="1" tooltips="1" connect="1" arrows="1" fold="1" page="1" pageScale="1" pageWidth="850" pageHeight="1100" math="0" shadow="0">
      <root>
        <mxCell id="0" />
        <mxCell id="1" parent="0" />
        <mxCell id="3" value="" style="endArrow=none;dashed=1;html=1;fillColor=#dae8fc;strokeColor=#6c8ebf;exitX=1;exitY=0.5;exitDx=0;exitDy=0;entryX=0;entryY=0.5;entryDx=0;entryDy=0;" parent="1" source="6" target="7" edge="1">
          <mxGeometry width="50" height="50" relative="1" as="geometry">
            <mxPoint x="740" y="70" as="sourcePoint" />
            <mxPoint x="720" y="70" as="targetPoint" />
          </mxGeometry>
        </mxCell>
        <mxCell id="4" value="1.0.0" style="ellipse;whiteSpace=wrap;html=1;aspect=fixed;fillColor=#dae8fc;strokeColor=#6c8ebf;fontStyle=1;labelPosition=center;verticalLabelPosition=top;align=center;verticalAlign=bottom;fontColor=#0066CC;" parent="1" vertex="1">
          <mxGeometry x="440" y="60" width="20" height="20" as="geometry" />
        </mxCell>
        <mxCell id="7" value="release-myfx" style="text;html=1;strokeColor=#6c8ebf;fillColor=#dae8fc;align=center;verticalAlign=middle;whiteSpace=wrap;rounded=0;" parent="1" vertex="1">
          <mxGeometry x="1150" y="60" width="90" height="20" as="geometry" />
        </mxCell>
        <mxCell id="23" style="edgeStyle=orthogonalEdgeStyle;rounded=1;orthogonalLoop=1;jettySize=auto;html=1;dashed=1;endArrow=none;endFill=0;fillColor=#d5e8d4;strokeColor=#82b366;" parent="1" source="0Cqs4zG60hxrjccoM_Yq-194" target="24" edge="1">
          <mxGeometry relative="1" as="geometry">
            <mxPoint x="700" y="180" as="targetPoint" />
            <mxPoint x="970" y="180" as="sourcePoint" />
          </mxGeometry>
        </mxCell>
        <mxCell id="73" style="edgeStyle=orthogonalEdgeStyle;rounded=1;orthogonalLoop=1;jettySize=auto;html=1;dashed=1;endArrow=none;endFill=0;fontSize=10;fontColor=#FFB570;fillColor=#e1d5e7;strokeColor=#9673a6;" parent="1" source="21" target="51" edge="1">
          <mxGeometry relative="1" as="geometry">
            <Array as="points">
              <mxPoint x="90" y="190" />
            </Array>
          </mxGeometry>
        </mxCell>
        <mxCell id="21" value="" style="ellipse;whiteSpace=wrap;html=1;aspect=fixed;fillColor=#d5e8d4;strokeColor=#82b366;" parent="1" vertex="1">
          <mxGeometry x="80" y="170" width="20" height="20" as="geometry" />
        </mxCell>
        <mxCell id="24" value="main" style="text;html=1;strokeColor=#82b366;fillColor=#d5e8d4;align=center;verticalAlign=middle;whiteSpace=wrap;rounded=0;" parent="1" vertex="1">
          <mxGeometry x="1150" y="170" width="90" height="20" as="geometry" />
        </mxCell>
        <mxCell id="25" value="" style="ellipse;whiteSpace=wrap;html=1;aspect=fixed;fillColor=#d5e8d4;strokeColor=#82b366;" parent="1" vertex="1">
          <mxGeometry x="166.97" y="170" width="20" height="20" as="geometry" />
        </mxCell>
        <mxCell id="26" style="edgeStyle=orthogonalEdgeStyle;rounded=1;orthogonalLoop=1;jettySize=auto;html=1;dashed=1;endArrow=none;endFill=0;fillColor=#d5e8d4;strokeColor=#82b366;" parent="1" source="21" target="25" edge="1">
          <mxGeometry relative="1" as="geometry">
            <mxPoint x="680" y="180" as="targetPoint" />
            <mxPoint x="110" y="180" as="sourcePoint" />
          </mxGeometry>
        </mxCell>
        <mxCell id="114" style="edgeStyle=orthogonalEdgeStyle;rounded=1;orthogonalLoop=1;jettySize=auto;html=1;dashed=1;endArrow=none;endFill=0;fontSize=12;fontColor=#FFB570;fillColor=#e1d5e7;strokeColor=#9673a6;entryX=0;entryY=0.5;entryDx=0;entryDy=0;" parent="1" source="27" target="65" edge="1">
          <mxGeometry relative="1" as="geometry">
            <Array as="points">
              <mxPoint x="280" y="240" />
            </Array>
          </mxGeometry>
        </mxCell>
        <mxCell id="27" value="" style="ellipse;whiteSpace=wrap;html=1;aspect=fixed;fillColor=#d5e8d4;strokeColor=#82b366;" parent="1" vertex="1">
          <mxGeometry x="269.97" y="170" width="20" height="20" as="geometry" />
        </mxCell>
        <mxCell id="28" style="edgeStyle=orthogonalEdgeStyle;rounded=1;orthogonalLoop=1;jettySize=auto;html=1;dashed=1;endArrow=none;endFill=0;fillColor=#d5e8d4;strokeColor=#82b366;" parent="1" source="25" target="27" edge="1">
          <mxGeometry relative="1" as="geometry">
            <mxPoint x="680" y="180" as="targetPoint" />
            <mxPoint x="240" y="180" as="sourcePoint" />
          </mxGeometry>
        </mxCell>
        <mxCell id="44" style="edgeStyle=orthogonalEdgeStyle;rounded=1;orthogonalLoop=1;jettySize=auto;html=1;dashed=1;endArrow=none;endFill=0;fontSize=10;fontColor=#FFB570;fillColor=#ffe6cc;strokeColor=#d79b00;" parent="1" source="29" target="39" edge="1">
          <mxGeometry relative="1" as="geometry">
            <Array as="points">
              <mxPoint x="400" y="130" />
            </Array>
          </mxGeometry>
        </mxCell>
        <mxCell id="29" value="" style="ellipse;whiteSpace=wrap;html=1;aspect=fixed;fillColor=#d5e8d4;strokeColor=#82b366;" parent="1" vertex="1">
          <mxGeometry x="389.97" y="170" width="20" height="20" as="geometry" />
        </mxCell>
        <mxCell id="30" style="edgeStyle=orthogonalEdgeStyle;rounded=1;orthogonalLoop=1;jettySize=auto;html=1;dashed=1;endArrow=none;endFill=0;fillColor=#d5e8d4;strokeColor=#82b366;" parent="1" source="27" target="29" edge="1">
          <mxGeometry relative="1" as="geometry">
            <mxPoint x="680" y="180" as="targetPoint" />
            <mxPoint x="370" y="180" as="sourcePoint" />
          </mxGeometry>
        </mxCell>
        <mxCell id="6" value="1.0.1" style="ellipse;whiteSpace=wrap;html=1;aspect=fixed;fillColor=#dae8fc;strokeColor=#6c8ebf;fontStyle=1;labelPosition=center;verticalLabelPosition=top;align=center;verticalAlign=bottom;fontColor=#0066CC;" parent="1" vertex="1">
          <mxGeometry x="640" y="60" width="20" height="20" as="geometry" />
        </mxCell>
        <mxCell id="35" value="" style="endArrow=none;dashed=1;html=1;fillColor=#dae8fc;strokeColor=#6c8ebf;" parent="1" source="4" target="6" edge="1">
          <mxGeometry width="50" height="50" relative="1" as="geometry">
            <mxPoint x="49.9999999999917" y="70" as="sourcePoint" />
            <mxPoint x="690" y="70" as="targetPoint" />
            <Array as="points" />
          </mxGeometry>
        </mxCell>
        <mxCell id="43" style="edgeStyle=orthogonalEdgeStyle;rounded=1;orthogonalLoop=1;jettySize=auto;html=1;dashed=1;endArrow=none;endFill=0;fontSize=10;fontColor=#FFB570;fillColor=#ffe6cc;strokeColor=#d79b00;exitX=1;exitY=0.5;exitDx=0;exitDy=0;" parent="1" source="39" target="6" edge="1">
          <mxGeometry relative="1" as="geometry">
            <Array as="points">
              <mxPoint x="630" y="130" />
              <mxPoint x="630" y="70" />
            </Array>
          </mxGeometry>
        </mxCell>
        <mxCell id="162" style="edgeStyle=orthogonalEdgeStyle;rounded=1;orthogonalLoop=1;jettySize=auto;html=1;dashed=1;endArrow=none;endFill=0;fontSize=12;fontColor=#FFB570;entryX=0;entryY=0.5;entryDx=0;entryDy=0;fillColor=#ffe6cc;strokeColor=#d79b00;" parent="1" source="36" target="159" edge="1">
          <mxGeometry relative="1" as="geometry">
            <Array as="points">
              <mxPoint x="530" y="150" />
            </Array>
          </mxGeometry>
        </mxCell>
        <mxCell id="36" value="" style="ellipse;whiteSpace=wrap;html=1;aspect=fixed;fontSize=10;labelPosition=center;verticalLabelPosition=top;align=center;verticalAlign=bottom;fillColor=#ffe6cc;strokeColor=#d79b00;fontColor=#FFB570;" parent="1" vertex="1">
          <mxGeometry x="520" y="120" width="20" height="20" as="geometry" />
        </mxCell>
        <mxCell id="42" value="stable-myfx" style="text;html=1;strokeColor=#d79b00;fillColor=#ffe6cc;align=center;verticalAlign=middle;whiteSpace=wrap;rounded=0;fontSize=12;" parent="1" vertex="1">
          <mxGeometry x="1150" y="120" width="90" height="20" as="geometry" />
        </mxCell>
        <mxCell id="74" style="edgeStyle=orthogonalEdgeStyle;rounded=1;orthogonalLoop=1;jettySize=auto;html=1;dashed=1;endArrow=none;endFill=0;fontSize=10;fontColor=#FFB570;fillColor=#e1d5e7;strokeColor=#9673a6;" parent="1" source="51" target="52" edge="1">
          <mxGeometry relative="1" as="geometry" />
        </mxCell>
        <mxCell id="76" style="edgeStyle=orthogonalEdgeStyle;rounded=1;orthogonalLoop=1;jettySize=auto;html=1;dashed=1;endArrow=none;endFill=0;fontSize=10;fontColor=#FFB570;fillColor=#e1d5e7;strokeColor=#9673a6;entryX=0;entryY=0.5;entryDx=0;entryDy=0;" parent="1" source="52" target="27" edge="1">
          <mxGeometry relative="1" as="geometry">
            <Array as="points">
              <mxPoint x="250" y="210" />
              <mxPoint x="250" y="180" />
            </Array>
          </mxGeometry>
        </mxCell>
        <mxCell id="52" value="" style="ellipse;whiteSpace=wrap;html=1;aspect=fixed;fontSize=10;fillColor=#e1d5e7;strokeColor=#9673a6;" parent="1" vertex="1">
          <mxGeometry x="209.97" y="200" width="20" height="20" as="geometry" />
        </mxCell>
        <mxCell id="99" style="edgeStyle=orthogonalEdgeStyle;rounded=1;orthogonalLoop=1;jettySize=auto;html=1;dashed=1;endArrow=none;endFill=0;fontSize=12;fontColor=#FFB570;fillColor=#e1d5e7;strokeColor=#9673a6;" parent="1" source="65" target="71" edge="1">
          <mxGeometry relative="1" as="geometry" />
        </mxCell>
        <mxCell id="65" value="" style="ellipse;whiteSpace=wrap;html=1;aspect=fixed;fontSize=10;fillColor=#e1d5e7;strokeColor=#9673a6;" parent="1" vertex="1">
          <mxGeometry x="289.97" y="230" width="20" height="20" as="geometry" />
        </mxCell>
        <mxCell id="100" style="edgeStyle=orthogonalEdgeStyle;rounded=1;orthogonalLoop=1;jettySize=auto;html=1;dashed=1;endArrow=none;endFill=0;fontSize=12;fontColor=#FFB570;fillColor=#e1d5e7;strokeColor=#9673a6;entryX=0;entryY=0.5;entryDx=0;entryDy=0;" parent="1" source="71" target="29" edge="1">
          <mxGeometry relative="1" as="geometry">
            <mxPoint x="400" y="190" as="targetPoint" />
            <Array as="points">
              <mxPoint x="380" y="240" />
              <mxPoint x="380" y="180" />
            </Array>
          </mxGeometry>
        </mxCell>
        <mxCell id="71" value="" style="ellipse;whiteSpace=wrap;html=1;aspect=fixed;fontSize=10;fillColor=#e1d5e7;strokeColor=#9673a6;" parent="1" vertex="1">
          <mxGeometry x="345.97" y="230" width="20" height="20" as="geometry" />
        </mxCell>
        <mxCell id="82" style="edgeStyle=orthogonalEdgeStyle;rounded=1;orthogonalLoop=1;jettySize=auto;html=1;dashed=1;endArrow=none;endFill=0;fillColor=#d5e8d4;strokeColor=#82b366;" parent="1" source="29" target="92" edge="1">
          <mxGeometry relative="1" as="geometry">
            <mxPoint x="500" y="160" as="targetPoint" />
            <mxPoint x="460" y="160" as="sourcePoint" />
          </mxGeometry>
        </mxCell>
        <mxCell id="85" value="feature" style="text;html=1;strokeColor=#9673a6;fillColor=#e1d5e7;align=center;verticalAlign=middle;whiteSpace=wrap;rounded=0;" parent="1" vertex="1">
          <mxGeometry x="1150" y="200" width="90" height="20" as="geometry" />
        </mxCell>
        <mxCell id="86" value="feature" style="text;html=1;strokeColor=#9673a6;fillColor=#e1d5e7;align=center;verticalAlign=middle;whiteSpace=wrap;rounded=0;" parent="1" vertex="1">
          <mxGeometry x="1150" y="230" width="90" height="20" as="geometry" />
        </mxCell>
        <mxCell id="164" style="edgeStyle=orthogonalEdgeStyle;rounded=1;orthogonalLoop=1;jettySize=auto;html=1;dashed=1;endArrow=none;endFill=0;fontSize=12;fontColor=#FFB570;fillColor=#ffe6cc;strokeColor=#d79b00;" parent="1" source="95" target="103" edge="1">
          <mxGeometry relative="1" as="geometry" />
        </mxCell>
        <mxCell id="95" value="" style="ellipse;whiteSpace=wrap;html=1;aspect=fixed;fontSize=10;fillColor=#ffe6cc;strokeColor=#d79b00;" parent="1" vertex="1">
          <mxGeometry x="434.66" y="140" width="20" height="20" as="geometry" />
        </mxCell>
        <mxCell id="108" style="edgeStyle=orthogonalEdgeStyle;rounded=1;orthogonalLoop=1;jettySize=auto;html=1;dashed=1;endArrow=none;endFill=0;fontSize=12;fontColor=#FFB570;fillColor=#ffe6cc;strokeColor=#d79b00;entryX=0;entryY=0.5;entryDx=0;entryDy=0;" parent="1" source="103" target="36" edge="1">
          <mxGeometry relative="1" as="geometry">
            <mxPoint x="490" y="100" as="targetPoint" />
            <Array as="points">
              <mxPoint x="510" y="150" />
              <mxPoint x="510" y="130" />
            </Array>
          </mxGeometry>
        </mxCell>
        <mxCell id="103" value="" style="ellipse;whiteSpace=wrap;html=1;aspect=fixed;fontSize=10;fillColor=#ffe6cc;strokeColor=#d79b00;" parent="1" vertex="1">
          <mxGeometry x="490" y="140" width="20" height="20" as="geometry" />
        </mxCell>
        <mxCell id="107" style="edgeStyle=orthogonalEdgeStyle;rounded=1;orthogonalLoop=1;jettySize=auto;html=1;dashed=1;endArrow=none;endFill=0;fontSize=12;fontColor=#FFB570;fillColor=#ffe6cc;strokeColor=#d79b00;" parent="1" source="39" target="95" edge="1">
          <mxGeometry relative="1" as="geometry">
            <mxPoint x="490" y="130" as="sourcePoint" />
            <mxPoint x="550" y="250" as="targetPoint" />
            <Array as="points">
              <mxPoint x="425" y="150" />
            </Array>
          </mxGeometry>
        </mxCell>
        <mxCell id="166" style="edgeStyle=orthogonalEdgeStyle;rounded=1;orthogonalLoop=1;jettySize=auto;html=1;dashed=1;endArrow=none;endFill=0;fontSize=12;fontColor=#FFB570;fillColor=#e1d5e7;strokeColor=#9673a6;" parent="1" source="92" target="165" edge="1">
          <mxGeometry relative="1" as="geometry">
            <Array as="points">
              <mxPoint x="675" y="210" />
            </Array>
          </mxGeometry>
        </mxCell>
        <mxCell id="169" style="edgeStyle=orthogonalEdgeStyle;rounded=1;orthogonalLoop=1;jettySize=auto;html=1;dashed=1;endArrow=none;endFill=0;fontSize=12;fontColor=#FFB570;fillColor=#e1d5e7;strokeColor=#9673a6;" parent="1" source="92" target="168" edge="1">
          <mxGeometry relative="1" as="geometry">
            <Array as="points">
              <mxPoint x="675" y="240" />
            </Array>
          </mxGeometry>
        </mxCell>
        <mxCell id="92" value="" style="ellipse;whiteSpace=wrap;html=1;aspect=fixed;fontSize=10;fillColor=#d5e8d4;strokeColor=#82b366;" parent="1" vertex="1">
          <mxGeometry x="664.97" y="170" width="20" height="20" as="geometry" />
        </mxCell>
        <mxCell id="125" value="fix" style="text;html=1;strokeColor=#d79b00;fillColor=#ffe6cc;align=center;verticalAlign=middle;whiteSpace=wrap;rounded=0;fontSize=12;" parent="1" vertex="1">
          <mxGeometry x="1150" y="140" width="90" height="20" as="geometry" />
        </mxCell>
        <mxCell id="0Cqs4zG60hxrjccoM_Yq-190" style="edgeStyle=orthogonalEdgeStyle;rounded=0;orthogonalLoop=1;jettySize=auto;html=1;entryX=0.5;entryY=1;entryDx=0;entryDy=0;curved=1;fillColor=#d5e8d4;strokeColor=#82b366;dashed=1;endArrow=none;endFill=0;" parent="1" target="0Cqs4zG60hxrjccoM_Yq-187" edge="1">
          <mxGeometry relative="1" as="geometry">
            <mxPoint x="770" y="180" as="sourcePoint" />
          </mxGeometry>
        </mxCell>
        <mxCell id="78" value="2.0.0" style="ellipse;whiteSpace=wrap;html=1;aspect=fixed;fontSize=12;fillColor=#d5e8d4;strokeColor=#82b366;labelPosition=center;verticalLabelPosition=top;align=center;verticalAlign=bottom;labelBackgroundColor=none;labelBorderColor=none;fontColor=#82B366;" parent="1" vertex="1">
          <mxGeometry x="750" y="170" width="20" height="20" as="geometry" />
        </mxCell>
        <mxCell id="146" style="edgeStyle=orthogonalEdgeStyle;rounded=1;orthogonalLoop=1;jettySize=auto;html=1;dashed=1;endArrow=none;endFill=0;fillColor=#d5e8d4;strokeColor=#82b366;" parent="1" source="92" target="78" edge="1">
          <mxGeometry relative="1" as="geometry">
            <mxPoint x="760" y="160" as="targetPoint" />
            <mxPoint x="670" y="160" as="sourcePoint" />
            <Array as="points" />
          </mxGeometry>
        </mxCell>
        <mxCell id="163" style="edgeStyle=orthogonalEdgeStyle;rounded=1;orthogonalLoop=1;jettySize=auto;html=1;entryX=0;entryY=0.5;entryDx=0;entryDy=0;dashed=1;endArrow=none;endFill=0;fontSize=12;fontColor=#FFB570;fillColor=#ffe6cc;strokeColor=#d79b00;" parent="1" source="159" target="160" edge="1">
          <mxGeometry relative="1" as="geometry" />
        </mxCell>
        <mxCell id="159" value="" style="ellipse;whiteSpace=wrap;html=1;aspect=fixed;fontSize=10;fillColor=#ffe6cc;strokeColor=#d79b00;" parent="1" vertex="1">
          <mxGeometry x="550" y="140" width="20" height="20" as="geometry" />
        </mxCell>
        <mxCell id="160" value="1.0.1" style="ellipse;whiteSpace=wrap;html=1;aspect=fixed;fontSize=10;fillColor=#ffe6cc;strokeColor=#d79b00;labelPosition=center;verticalLabelPosition=top;align=center;verticalAlign=bottom;fontColor=#FFB570;" parent="1" vertex="1">
          <mxGeometry x="600" y="120" width="20" height="20" as="geometry" />
        </mxCell>
        <mxCell id="0Cqs4zG60hxrjccoM_Yq-203" style="edgeStyle=orthogonalEdgeStyle;shape=connector;rounded=1;orthogonalLoop=1;jettySize=auto;html=1;exitX=1;exitY=0.5;exitDx=0;exitDy=0;entryX=0.5;entryY=1;entryDx=0;entryDy=0;dashed=1;labelBackgroundColor=default;strokeColor=#9673a6;align=center;verticalAlign=middle;fontFamily=Helvetica;fontSize=12;fontColor=#FFB570;endArrow=none;endFill=0;fillColor=#e1d5e7;" parent="1" source="165" target="78" edge="1">
          <mxGeometry relative="1" as="geometry" />
        </mxCell>
        <mxCell id="165" value="" style="ellipse;whiteSpace=wrap;html=1;aspect=fixed;fontSize=12;fillColor=#e1d5e7;strokeColor=#9673a6;" parent="1" vertex="1">
          <mxGeometry x="695" y="200" width="20" height="20" as="geometry" />
        </mxCell>
        <mxCell id="0Cqs4zG60hxrjccoM_Yq-204" style="edgeStyle=orthogonalEdgeStyle;shape=connector;rounded=1;orthogonalLoop=1;jettySize=auto;html=1;exitX=1;exitY=0.5;exitDx=0;exitDy=0;dashed=1;labelBackgroundColor=default;strokeColor=#9673a6;align=center;verticalAlign=middle;fontFamily=Helvetica;fontSize=12;fontColor=#FFB570;endArrow=none;endFill=0;fillColor=#e1d5e7;" parent="1" source="168" target="0Cqs4zG60hxrjccoM_Yq-194" edge="1">
          <mxGeometry relative="1" as="geometry" />
        </mxCell>
        <mxCell id="168" value="" style="ellipse;whiteSpace=wrap;html=1;aspect=fixed;fontSize=12;fillColor=#e1d5e7;strokeColor=#9673a6;" parent="1" vertex="1">
          <mxGeometry x="695" y="230" width="20" height="20" as="geometry" />
        </mxCell>
        <mxCell id="51" value="" style="ellipse;whiteSpace=wrap;html=1;aspect=fixed;fontSize=10;fillColor=#e1d5e7;strokeColor=#9673a6;" parent="1" vertex="1">
          <mxGeometry x="119.97" y="200" width="20" height="20" as="geometry" />
        </mxCell>
        <mxCell id="0Cqs4zG60hxrjccoM_Yq-177" value="stable-myf3" style="text;html=1;align=center;verticalAlign=middle;resizable=0;points=[];autosize=1;strokeColor=#d79b00;fillColor=#ffe6cc;" parent="1" vertex="1">
          <mxGeometry x="299.97" y="110" width="90" height="30" as="geometry" />
        </mxCell>
        <mxCell id="0Cqs4zG60hxrjccoM_Yq-182" value="" style="endArrow=none;dashed=1;html=1;fillColor=#ffe6cc;strokeColor=#d79b00;exitX=0.5;exitY=1;exitDx=0;exitDy=0;entryX=1;entryY=0.5;entryDx=0;entryDy=0;edgeStyle=orthogonalEdgeStyle;curved=1;" parent="1" source="4" target="39" edge="1">
          <mxGeometry width="50" height="50" relative="1" as="geometry">
            <mxPoint x="445" y="80" as="sourcePoint" />
            <mxPoint x="650" y="80" as="targetPoint" />
          </mxGeometry>
        </mxCell>
        <mxCell id="39" value="1.0.0" style="ellipse;html=1;aspect=fixed;fontSize=10;labelPosition=center;verticalLabelPosition=top;align=center;verticalAlign=bottom;fillColor=#ffe6cc;strokeColor=#d79b00;fontColor=#FFB570;fontStyle=1;labelBorderColor=none;" parent="1" vertex="1">
          <mxGeometry x="414.65999999999997" y="120" width="20" height="20" as="geometry" />
        </mxCell>
        <mxCell id="0Cqs4zG60hxrjccoM_Yq-185" value="release" style="text;html=1;strokeColor=#6c8ebf;fillColor=#dae8fc;align=center;verticalAlign=middle;whiteSpace=wrap;rounded=0;" parent="1" vertex="1">
          <mxGeometry x="1150" y="87" width="90" height="20" as="geometry" />
        </mxCell>
        <mxCell id="0Cqs4zG60hxrjccoM_Yq-186" value="" style="endArrow=none;dashed=1;html=1;fillColor=#dae8fc;strokeColor=#6c8ebf;exitX=1;exitY=0.5;exitDx=0;exitDy=0;" parent="1" source="0Cqs4zG60hxrjccoM_Yq-199" edge="1">
          <mxGeometry width="50" height="50" relative="1" as="geometry">
            <mxPoint x="664.97" y="96.58" as="sourcePoint" />
            <mxPoint x="1150" y="97" as="targetPoint" />
          </mxGeometry>
        </mxCell>
        <mxCell id="0Cqs4zG60hxrjccoM_Yq-187" value="2.0.0" style="ellipse;whiteSpace=wrap;html=1;aspect=fixed;fillColor=#dae8fc;strokeColor=#6c8ebf;fontStyle=1;labelPosition=center;verticalLabelPosition=top;align=center;verticalAlign=bottom;fontColor=#0066CC;" parent="1" vertex="1">
          <mxGeometry x="780" y="87" width="20" height="20" as="geometry" />
        </mxCell>
        <mxCell id="0Cqs4zG60hxrjccoM_Yq-195" value="" style="edgeStyle=orthogonalEdgeStyle;rounded=1;orthogonalLoop=1;jettySize=auto;html=1;dashed=1;endArrow=none;endFill=0;fillColor=#d5e8d4;strokeColor=#82b366;" parent="1" source="78" target="0Cqs4zG60hxrjccoM_Yq-194" edge="1">
          <mxGeometry relative="1" as="geometry">
            <mxPoint x="1150" y="180" as="targetPoint" />
            <mxPoint x="770" y="180" as="sourcePoint" />
          </mxGeometry>
        </mxCell>
        <mxCell id="0Cqs4zG60hxrjccoM_Yq-194" value="" style="ellipse;whiteSpace=wrap;html=1;aspect=fixed;fontSize=10;fillColor=#d5e8d4;strokeColor=#82b366;" parent="1" vertex="1">
          <mxGeometry x="880" y="170" width="20" height="20" as="geometry" />
        </mxCell>
        <mxCell id="0Cqs4zG60hxrjccoM_Yq-202" style="edgeStyle=orthogonalEdgeStyle;orthogonalLoop=1;jettySize=auto;html=1;exitX=1;exitY=0.5;exitDx=0;exitDy=0;entryX=0.5;entryY=1;entryDx=0;entryDy=0;endArrow=none;strokeColor=#82b366;fillColor=#d5e8d4;dashed=1;endFill=0;curved=1;" parent="1" source="0Cqs4zG60hxrjccoM_Yq-196" target="0Cqs4zG60hxrjccoM_Yq-199" edge="1">
          <mxGeometry relative="1" as="geometry" />
        </mxCell>
        <mxCell id="0Cqs4zG60hxrjccoM_Yq-196" value="2.1.0" style="ellipse;whiteSpace=wrap;html=1;aspect=fixed;fontSize=12;fillColor=#d5e8d4;strokeColor=#82b366;labelPosition=center;verticalLabelPosition=top;align=center;verticalAlign=bottom;labelBackgroundColor=none;labelBorderColor=none;fontColor=#82B366;" parent="1" vertex="1">
          <mxGeometry x="1030" y="170" width="20" height="20" as="geometry" />
        </mxCell>
        <mxCell id="0Cqs4zG60hxrjccoM_Yq-200" value="" style="endArrow=none;dashed=1;html=1;fillColor=#dae8fc;strokeColor=#6c8ebf;exitX=1;exitY=0.5;exitDx=0;exitDy=0;" parent="1" source="0Cqs4zG60hxrjccoM_Yq-187" target="0Cqs4zG60hxrjccoM_Yq-199" edge="1">
          <mxGeometry width="50" height="50" relative="1" as="geometry">
            <mxPoint x="800" y="97" as="sourcePoint" />
            <mxPoint x="1154.97" y="96.58" as="targetPoint" />
          </mxGeometry>
        </mxCell>
        <mxCell id="0Cqs4zG60hxrjccoM_Yq-199" value="2.1.0" style="ellipse;whiteSpace=wrap;html=1;aspect=fixed;fillColor=#dae8fc;strokeColor=#6c8ebf;fontStyle=1;labelPosition=center;verticalLabelPosition=top;align=center;verticalAlign=bottom;fontColor=#0066CC;" parent="1" vertex="1">
          <mxGeometry x="1070" y="87" width="20" height="20" as="geometry" />
        </mxCell>
        <mxCell id="0Cqs4zG60hxrjccoM_Yq-205" value="release-myf3" style="text;html=1;align=center;verticalAlign=middle;resizable=0;points=[];autosize=1;strokeColor=#6c8ebf;fillColor=#dae8fc;" parent="1" vertex="1">
          <mxGeometry x="324.66" y="50" width="90" height="30" as="geometry" />
        </mxCell>
        <mxCell id="0Cqs4zG60hxrjccoM_Yq-208" value="&lt;h1 style=&quot;border-color: var(--border-color);&quot;&gt;&lt;br&gt;&lt;/h1&gt;&lt;h1&gt;Workflow&lt;/h1&gt;&lt;p&gt;Tags are made in the component repository, on &lt;b&gt;main or stable-myfx&lt;/b&gt; branches. On tag, we trigger a pipeline that will :&amp;nbsp;&lt;/p&gt;&lt;p&gt;&lt;/p&gt;&lt;ul&gt;&lt;li&gt;&lt;b style=&quot;&quot;&gt;&lt;u&gt;In component project&lt;/u&gt; :&lt;/b&gt;&lt;/li&gt;&lt;/ul&gt;&lt;p&gt;&lt;/p&gt;&lt;p&gt;&lt;/p&gt;&lt;ol&gt;&lt;li&gt;create &lt;b&gt;release&lt;/b&gt; branch if the tag is on the main branch, Or a&lt;b&gt; release-myfx&lt;/b&gt; if the tag is on stable-myfx branch.&lt;/li&gt;&lt;li&gt;checkout release (or release-myfx) branch and &lt;b&gt;merge fast-forward&lt;/b&gt; main (or stable-myfx) branch.&lt;/li&gt;&lt;li&gt;trigger a pipeline in domain_ci&lt;/li&gt;&lt;/ol&gt;&lt;ul&gt;&lt;li&gt;&lt;b style=&quot;&quot;&gt;&lt;u&gt;In domain_ci project&lt;/u&gt; :&lt;/b&gt;&lt;/li&gt;&lt;/ul&gt;&lt;ol&gt;&lt;li&gt;create &lt;b&gt;release&lt;/b&gt; or &lt;b&gt;release-myfx&lt;/b&gt; branch in domain_ci, if the branch does not exist.&lt;/li&gt;&lt;li&gt;&lt;span style=&quot;background-color: initial;&quot;&gt;update the &lt;b&gt;manifest.xml&lt;/b&gt; : update the revision to &lt;b&gt;refs/tags/x.y.z&lt;/b&gt; for the tagged project&lt;/span&gt;&lt;br&gt;&lt;/li&gt;&lt;li&gt;&lt;span style=&quot;background-color: initial;&quot;&gt;run pipeline on the &lt;b&gt;release&lt;/b&gt; or &lt;b&gt;release-myfx&lt;/b&gt; branch&lt;/span&gt;&lt;br&gt;&lt;/li&gt;&lt;/ol&gt;&lt;p&gt;&lt;/p&gt;" style="text;html=1;strokeColor=#666666;fillColor=#f5f5f5;spacing=5;spacingTop=-20;whiteSpace=wrap;overflow=hidden;rounded=0;fontSize=12;fontFamily=Helvetica;fontColor=#333333;" parent="1" vertex="1">
          <mxGeometry x="-3" y="570" width="720" height="360" as="geometry" />
        </mxCell>
        <mxCell id="0Cqs4zG60hxrjccoM_Yq-209" value="Component" style="text;html=1;strokeColor=#666666;fillColor=#f5f5f5;align=center;verticalAlign=middle;whiteSpace=wrap;rounded=0;fontSize=12;fontFamily=Helvetica;fontColor=#333333;" parent="1" vertex="1">
          <mxGeometry x="20" y="10" width="100" height="50" as="geometry" />
        </mxCell>
        <mxCell id="ka2fryHVlHf1zdvt1wW3-366" value="" style="endArrow=none;dashed=1;html=1;fillColor=#dae8fc;strokeColor=#6c8ebf;exitX=1;exitY=0.5;exitDx=0;exitDy=0;entryX=0;entryY=0.5;entryDx=0;entryDy=0;" parent="1" source="ka2fryHVlHf1zdvt1wW3-401" target="ka2fryHVlHf1zdvt1wW3-368" edge="1">
          <mxGeometry width="50" height="50" relative="1" as="geometry">
            <mxPoint x="720" y="410" as="sourcePoint" />
            <mxPoint x="700" y="410" as="targetPoint" />
          </mxGeometry>
        </mxCell>
        <mxCell id="ka2fryHVlHf1zdvt1wW3-367" value="" style="ellipse;whiteSpace=wrap;html=1;aspect=fixed;fillColor=#dae8fc;strokeColor=#6c8ebf;fontStyle=1;labelPosition=center;verticalLabelPosition=top;align=center;verticalAlign=bottom;fontColor=#0066CC;" parent="1" vertex="1">
          <mxGeometry x="420" y="400" width="20" height="20" as="geometry" />
        </mxCell>
        <mxCell id="ka2fryHVlHf1zdvt1wW3-368" value="release-myfx" style="text;html=1;strokeColor=#6c8ebf;fillColor=#dae8fc;align=center;verticalAlign=middle;whiteSpace=wrap;rounded=0;" parent="1" vertex="1">
          <mxGeometry x="1130" y="400" width="90" height="20" as="geometry" />
        </mxCell>
        <mxCell id="ka2fryHVlHf1zdvt1wW3-369" style="edgeStyle=orthogonalEdgeStyle;rounded=1;orthogonalLoop=1;jettySize=auto;html=1;dashed=1;endArrow=none;endFill=0;fillColor=#d5e8d4;strokeColor=#82b366;" parent="1" source="ka2fryHVlHf1zdvt1wW3-391" target="ka2fryHVlHf1zdvt1wW3-370" edge="1">
          <mxGeometry relative="1" as="geometry">
            <mxPoint x="680" y="520" as="targetPoint" />
            <mxPoint x="950" y="520" as="sourcePoint" />
          </mxGeometry>
        </mxCell>
        <mxCell id="ka2fryHVlHf1zdvt1wW3-370" value="main" style="text;html=1;strokeColor=#82b366;fillColor=#d5e8d4;align=center;verticalAlign=middle;whiteSpace=wrap;rounded=0;" parent="1" vertex="1">
          <mxGeometry x="1130" y="510" width="90" height="20" as="geometry" />
        </mxCell>
        <mxCell id="ka2fryHVlHf1zdvt1wW3-371" style="edgeStyle=orthogonalEdgeStyle;rounded=1;orthogonalLoop=1;jettySize=auto;html=1;dashed=1;endArrow=none;endFill=0;fontSize=10;fontColor=#FFB570;fillColor=#ffe6cc;strokeColor=#d79b00;" parent="1" source="ka2fryHVlHf1zdvt1wW3-372" target="ka2fryHVlHf1zdvt1wW3-386" edge="1">
          <mxGeometry relative="1" as="geometry">
            <Array as="points">
              <mxPoint x="380" y="470" />
            </Array>
          </mxGeometry>
        </mxCell>
        <mxCell id="ka2fryHVlHf1zdvt1wW3-372" value="" style="ellipse;whiteSpace=wrap;html=1;aspect=fixed;fillColor=#d5e8d4;strokeColor=#82b366;" parent="1" vertex="1">
          <mxGeometry x="369.97" y="510" width="20" height="20" as="geometry" />
        </mxCell>
        <mxCell id="ka2fryHVlHf1zdvt1wW3-373" value="" style="ellipse;whiteSpace=wrap;html=1;aspect=fixed;fillColor=#dae8fc;strokeColor=#6c8ebf;fontStyle=1;labelPosition=center;verticalLabelPosition=top;align=center;verticalAlign=bottom;fontColor=#0066CC;" parent="1" vertex="1">
          <mxGeometry x="620" y="400" width="20" height="20" as="geometry" />
        </mxCell>
        <mxCell id="ka2fryHVlHf1zdvt1wW3-374" value="" style="endArrow=none;dashed=1;html=1;fillColor=#dae8fc;strokeColor=#6c8ebf;" parent="1" source="ka2fryHVlHf1zdvt1wW3-367" target="ka2fryHVlHf1zdvt1wW3-373" edge="1">
          <mxGeometry width="50" height="50" relative="1" as="geometry">
            <mxPoint x="29.9999999999917" y="410" as="sourcePoint" />
            <mxPoint x="670" y="410" as="targetPoint" />
            <Array as="points" />
          </mxGeometry>
        </mxCell>
        <mxCell id="ka2fryHVlHf1zdvt1wW3-375" style="edgeStyle=orthogonalEdgeStyle;rounded=1;orthogonalLoop=1;jettySize=auto;html=1;dashed=1;endArrow=none;endFill=0;fontSize=10;fontColor=#FFB570;fillColor=#ffe6cc;strokeColor=#d79b00;exitX=1;exitY=0.5;exitDx=0;exitDy=0;" parent="1" source="ka2fryHVlHf1zdvt1wW3-386" target="ka2fryHVlHf1zdvt1wW3-373" edge="1">
          <mxGeometry relative="1" as="geometry">
            <Array as="points">
              <mxPoint x="610" y="470" />
              <mxPoint x="610" y="410" />
            </Array>
          </mxGeometry>
        </mxCell>
        <mxCell id="ka2fryHVlHf1zdvt1wW3-376" value="" style="ellipse;whiteSpace=wrap;html=1;aspect=fixed;fontSize=10;labelPosition=center;verticalLabelPosition=top;align=center;verticalAlign=bottom;fillColor=#ffe6cc;strokeColor=#d79b00;fontColor=#FFB570;" parent="1" vertex="1">
          <mxGeometry x="500" y="460" width="20" height="20" as="geometry" />
        </mxCell>
        <mxCell id="ka2fryHVlHf1zdvt1wW3-377" value="stable-myfx" style="text;html=1;strokeColor=#d79b00;fillColor=#ffe6cc;align=center;verticalAlign=middle;whiteSpace=wrap;rounded=0;fontSize=12;" parent="1" vertex="1">
          <mxGeometry x="1130" y="460" width="90" height="20" as="geometry" />
        </mxCell>
        <mxCell id="ka2fryHVlHf1zdvt1wW3-378" style="edgeStyle=orthogonalEdgeStyle;rounded=1;orthogonalLoop=1;jettySize=auto;html=1;dashed=1;endArrow=none;endFill=0;fillColor=#d5e8d4;strokeColor=#82b366;" parent="1" source="ka2fryHVlHf1zdvt1wW3-372" target="ka2fryHVlHf1zdvt1wW3-379" edge="1">
          <mxGeometry relative="1" as="geometry">
            <mxPoint x="480" y="500" as="targetPoint" />
            <mxPoint x="440" y="500" as="sourcePoint" />
          </mxGeometry>
        </mxCell>
        <mxCell id="ka2fryHVlHf1zdvt1wW3-379" value="" style="ellipse;whiteSpace=wrap;html=1;aspect=fixed;fontSize=10;fillColor=#d5e8d4;strokeColor=#82b366;" parent="1" vertex="1">
          <mxGeometry x="644.97" y="510" width="20" height="20" as="geometry" />
        </mxCell>
        <mxCell id="ka2fryHVlHf1zdvt1wW3-380" style="edgeStyle=orthogonalEdgeStyle;rounded=0;orthogonalLoop=1;jettySize=auto;html=1;entryX=0.5;entryY=1;entryDx=0;entryDy=0;curved=1;fillColor=#d5e8d4;strokeColor=#82b366;dashed=1;endArrow=none;endFill=0;" parent="1" target="ka2fryHVlHf1zdvt1wW3-389" edge="1">
          <mxGeometry relative="1" as="geometry">
            <mxPoint x="750" y="520" as="sourcePoint" />
          </mxGeometry>
        </mxCell>
        <mxCell id="ka2fryHVlHf1zdvt1wW3-381" value="" style="ellipse;whiteSpace=wrap;html=1;aspect=fixed;fontSize=12;fillColor=#d5e8d4;strokeColor=#82b366;labelPosition=center;verticalLabelPosition=top;align=center;verticalAlign=bottom;labelBackgroundColor=none;labelBorderColor=none;fontColor=#82B366;" parent="1" vertex="1">
          <mxGeometry x="730" y="510" width="20" height="20" as="geometry" />
        </mxCell>
        <mxCell id="ka2fryHVlHf1zdvt1wW3-382" style="edgeStyle=orthogonalEdgeStyle;rounded=1;orthogonalLoop=1;jettySize=auto;html=1;dashed=1;endArrow=none;endFill=0;fillColor=#d5e8d4;strokeColor=#82b366;" parent="1" source="ka2fryHVlHf1zdvt1wW3-379" target="ka2fryHVlHf1zdvt1wW3-381" edge="1">
          <mxGeometry relative="1" as="geometry">
            <mxPoint x="740" y="500" as="targetPoint" />
            <mxPoint x="650" y="500" as="sourcePoint" />
            <Array as="points" />
          </mxGeometry>
        </mxCell>
        <mxCell id="ka2fryHVlHf1zdvt1wW3-383" value="" style="ellipse;whiteSpace=wrap;html=1;aspect=fixed;fontSize=10;fillColor=#ffe6cc;strokeColor=#d79b00;labelPosition=center;verticalLabelPosition=top;align=center;verticalAlign=bottom;fontColor=#FFB570;" parent="1" vertex="1">
          <mxGeometry x="580" y="460" width="20" height="20" as="geometry" />
        </mxCell>
        <mxCell id="ka2fryHVlHf1zdvt1wW3-384" value="stable-myf3" style="text;html=1;align=center;verticalAlign=middle;resizable=0;points=[];autosize=1;strokeColor=#d79b00;fillColor=#ffe6cc;" parent="1" vertex="1">
          <mxGeometry x="279.97" y="450" width="90" height="30" as="geometry" />
        </mxCell>
        <mxCell id="ka2fryHVlHf1zdvt1wW3-385" value="" style="endArrow=none;dashed=1;html=1;fillColor=#ffe6cc;strokeColor=#d79b00;exitX=0.5;exitY=1;exitDx=0;exitDy=0;entryX=1;entryY=0.5;entryDx=0;entryDy=0;edgeStyle=orthogonalEdgeStyle;curved=1;" parent="1" source="ka2fryHVlHf1zdvt1wW3-367" target="ka2fryHVlHf1zdvt1wW3-386" edge="1">
          <mxGeometry width="50" height="50" relative="1" as="geometry">
            <mxPoint x="425" y="420" as="sourcePoint" />
            <mxPoint x="630" y="420" as="targetPoint" />
          </mxGeometry>
        </mxCell>
        <mxCell id="ka2fryHVlHf1zdvt1wW3-386" value="" style="ellipse;html=1;aspect=fixed;fontSize=10;labelPosition=center;verticalLabelPosition=top;align=center;verticalAlign=bottom;fillColor=#ffe6cc;strokeColor=#d79b00;fontColor=#FFB570;fontStyle=1;labelBorderColor=none;" parent="1" vertex="1">
          <mxGeometry x="394.65999999999997" y="460" width="20" height="20" as="geometry" />
        </mxCell>
        <mxCell id="ka2fryHVlHf1zdvt1wW3-387" value="release" style="text;html=1;strokeColor=#6c8ebf;fillColor=#dae8fc;align=center;verticalAlign=middle;whiteSpace=wrap;rounded=0;" parent="1" vertex="1">
          <mxGeometry x="1130" y="427" width="90" height="20" as="geometry" />
        </mxCell>
        <mxCell id="ka2fryHVlHf1zdvt1wW3-388" value="" style="endArrow=none;dashed=1;html=1;fillColor=#dae8fc;strokeColor=#6c8ebf;exitX=1;exitY=0.5;exitDx=0;exitDy=0;" parent="1" source="ka2fryHVlHf1zdvt1wW3-395" edge="1">
          <mxGeometry width="50" height="50" relative="1" as="geometry">
            <mxPoint x="644.97" y="436.58000000000004" as="sourcePoint" />
            <mxPoint x="1130" y="437" as="targetPoint" />
          </mxGeometry>
        </mxCell>
        <mxCell id="ka2fryHVlHf1zdvt1wW3-389" value="" style="ellipse;whiteSpace=wrap;html=1;aspect=fixed;fillColor=#dae8fc;strokeColor=#6c8ebf;fontStyle=1;labelPosition=center;verticalLabelPosition=top;align=center;verticalAlign=bottom;fontColor=#0066CC;" parent="1" vertex="1">
          <mxGeometry x="760" y="427" width="20" height="20" as="geometry" />
        </mxCell>
        <mxCell id="ka2fryHVlHf1zdvt1wW3-390" value="" style="edgeStyle=orthogonalEdgeStyle;rounded=1;orthogonalLoop=1;jettySize=auto;html=1;dashed=1;endArrow=none;endFill=0;fillColor=#d5e8d4;strokeColor=#82b366;" parent="1" source="ka2fryHVlHf1zdvt1wW3-381" target="ka2fryHVlHf1zdvt1wW3-391" edge="1">
          <mxGeometry relative="1" as="geometry">
            <mxPoint x="1130" y="520" as="targetPoint" />
            <mxPoint x="750" y="520" as="sourcePoint" />
          </mxGeometry>
        </mxCell>
        <mxCell id="ka2fryHVlHf1zdvt1wW3-391" value="" style="ellipse;whiteSpace=wrap;html=1;aspect=fixed;fontSize=10;fillColor=#d5e8d4;strokeColor=#82b366;" parent="1" vertex="1">
          <mxGeometry x="860" y="510" width="20" height="20" as="geometry" />
        </mxCell>
        <mxCell id="ka2fryHVlHf1zdvt1wW3-392" style="edgeStyle=orthogonalEdgeStyle;orthogonalLoop=1;jettySize=auto;html=1;exitX=1;exitY=0.5;exitDx=0;exitDy=0;entryX=0.5;entryY=1;entryDx=0;entryDy=0;endArrow=none;strokeColor=#82b366;fillColor=#d5e8d4;dashed=1;endFill=0;curved=1;" parent="1" source="ka2fryHVlHf1zdvt1wW3-393" target="ka2fryHVlHf1zdvt1wW3-395" edge="1">
          <mxGeometry relative="1" as="geometry" />
        </mxCell>
        <mxCell id="ka2fryHVlHf1zdvt1wW3-393" value="" style="ellipse;whiteSpace=wrap;html=1;aspect=fixed;fontSize=12;fillColor=#d5e8d4;strokeColor=#82b366;labelPosition=center;verticalLabelPosition=top;align=center;verticalAlign=bottom;labelBackgroundColor=none;labelBorderColor=none;fontColor=#82B366;" parent="1" vertex="1">
          <mxGeometry x="1010" y="510" width="20" height="20" as="geometry" />
        </mxCell>
        <mxCell id="ka2fryHVlHf1zdvt1wW3-394" value="" style="endArrow=none;dashed=1;html=1;fillColor=#dae8fc;strokeColor=#6c8ebf;exitX=1;exitY=0.5;exitDx=0;exitDy=0;" parent="1" source="ka2fryHVlHf1zdvt1wW3-389" target="ka2fryHVlHf1zdvt1wW3-395" edge="1">
          <mxGeometry width="50" height="50" relative="1" as="geometry">
            <mxPoint x="780" y="437" as="sourcePoint" />
            <mxPoint x="1134.97" y="436.58000000000004" as="targetPoint" />
          </mxGeometry>
        </mxCell>
        <mxCell id="ka2fryHVlHf1zdvt1wW3-395" value="" style="ellipse;whiteSpace=wrap;html=1;aspect=fixed;fillColor=#dae8fc;strokeColor=#6c8ebf;fontStyle=1;labelPosition=center;verticalLabelPosition=top;align=center;verticalAlign=bottom;fontColor=#0066CC;" parent="1" vertex="1">
          <mxGeometry x="1050" y="427" width="20" height="20" as="geometry" />
        </mxCell>
        <mxCell id="ka2fryHVlHf1zdvt1wW3-396" value="release-myf3" style="text;html=1;align=center;verticalAlign=middle;resizable=0;points=[];autosize=1;strokeColor=#6c8ebf;fillColor=#dae8fc;" parent="1" vertex="1">
          <mxGeometry x="304.66" y="390" width="90" height="30" as="geometry" />
        </mxCell>
        <mxCell id="ka2fryHVlHf1zdvt1wW3-397" value="Domain_CI" style="text;html=1;strokeColor=#666666;fillColor=#f5f5f5;align=center;verticalAlign=middle;whiteSpace=wrap;rounded=0;fontSize=12;fontFamily=Helvetica;fontColor=#333333;" parent="1" vertex="1">
          <mxGeometry y="350" width="100" height="50" as="geometry" />
        </mxCell>
        <mxCell id="ka2fryHVlHf1zdvt1wW3-398" value="&lt;h1 style=&quot;border-color: var(--border-color);&quot;&gt;&lt;br&gt;&lt;/h1&gt;&lt;h1&gt;&lt;span style=&quot;background-color: initial;&quot;&gt;Actions&lt;/span&gt;&lt;/h1&gt;&lt;div&gt;&lt;b&gt;&lt;u&gt;Project team&lt;/u&gt; :&lt;/b&gt;&lt;/div&gt;&lt;ul&gt;&lt;li&gt;&lt;span style=&quot;background-color: initial;&quot;&gt;rename mainline default branch to &quot;&lt;b&gt;main&lt;/b&gt;&quot; in both, component and domain_ci repositroies&amp;nbsp;&lt;/span&gt;&lt;/li&gt;&lt;li&gt;&lt;span style=&quot;background-color: initial;&quot;&gt;rename &lt;b&gt;myfx_release&lt;/b&gt; to &lt;b&gt;stable_myfx&lt;/b&gt; i&lt;/span&gt;n domain_ci project&lt;/li&gt;&lt;li&gt;modify &lt;b&gt;.gitlab_ci.yml&lt;/b&gt; in component project&lt;/li&gt;&lt;/ul&gt;&lt;div&gt;&lt;b&gt;&lt;u&gt;System team&lt;/u&gt; :&lt;/b&gt;&lt;/div&gt;&lt;ul&gt;&lt;li&gt;in domain_ci add &lt;b&gt;protected branches release*&lt;/b&gt;&lt;/li&gt;&lt;li&gt;in domain_ci, Allow access to all component projects with a &lt;b&gt;CI_JOB_TOKEN&lt;/b&gt;&lt;/li&gt;&lt;/ul&gt;&lt;p&gt;&lt;/p&gt;" style="text;html=1;strokeColor=#666666;fillColor=#f5f5f5;spacing=5;spacingTop=-20;whiteSpace=wrap;overflow=hidden;rounded=0;fontSize=12;fontFamily=Helvetica;fontColor=#333333;" parent="1" vertex="1">
          <mxGeometry x="760" y="570" width="720" height="360" as="geometry" />
        </mxCell>
        <mxCell id="ka2fryHVlHf1zdvt1wW3-399" value="update revision for the tagged component to 1.0.0 in manifest.xml" style="text;html=1;strokeColor=none;fillColor=none;align=center;verticalAlign=middle;whiteSpace=wrap;rounded=0;" parent="1" vertex="1">
          <mxGeometry x="320" y="340" width="214.66" height="50" as="geometry" />
        </mxCell>
        <mxCell id="ka2fryHVlHf1zdvt1wW3-402" value="" style="endArrow=none;dashed=1;html=1;fillColor=#dae8fc;strokeColor=#6c8ebf;exitX=1;exitY=0.5;exitDx=0;exitDy=0;entryX=0;entryY=0.5;entryDx=0;entryDy=0;" parent="1" source="ka2fryHVlHf1zdvt1wW3-373" target="ka2fryHVlHf1zdvt1wW3-401" edge="1">
          <mxGeometry width="50" height="50" relative="1" as="geometry">
            <mxPoint x="640" y="410" as="sourcePoint" />
            <mxPoint x="1130" y="410" as="targetPoint" />
          </mxGeometry>
        </mxCell>
        <mxCell id="ka2fryHVlHf1zdvt1wW3-401" value="update revision for the tagged component to 2.0.0 in manifest.xml" style="text;html=1;strokeColor=none;fillColor=none;align=center;verticalAlign=middle;whiteSpace=wrap;rounded=0;" parent="1" vertex="1">
          <mxGeometry x="662.67" y="385" width="214.66" height="50" as="geometry" />
        </mxCell>
        <mxCell id="ka2fryHVlHf1zdvt1wW3-403" value="DEV" style="shape=umlActor;verticalLabelPosition=bottom;verticalAlign=top;html=1;outlineConnect=0;" parent="1" vertex="1">
          <mxGeometry x="1325" y="150" width="40" height="60" as="geometry" />
        </mxCell>
        <mxCell id="ka2fryHVlHf1zdvt1wW3-406" value="" style="shape=image;verticalLabelPosition=bottom;labelBackgroundColor=default;verticalAlign=top;aspect=fixed;imageAspect=0;image=data:image/png,iVBORw0KGgoAAAANSUhEUgAAAMgAAADICAMAAACahl6sAAAA4VBMVEX////bOyE4DXX8oSHe1PX8bSb8cyX539r+9/b++/v7niH++fjcQCf9/P7+/fz49v3dQiHvqZ32jiHjVCHdRi3h2PbscSHfSCHhTyH42NLv6vrgV0Hjalb65eH76+jeSzPfUTrxtavhXUj1x7/p4vjsmo3kbFnnfWz4lCHudSHxfyHlcl9BGHv18vzq5Pj3z8nwsqjqaCFpSZfWzeLph3fqkIHupZnslIb0iCHzvbWXgbdcOY5xUp3md2a+sNLf2OmnlMLmXyGMc69QKobIvdl9YaVfPJCzo8uhjb5KI4HzYCRXkrmHAAAMJUlEQVR4nO1de1/aShMWsS8Bwk1ABZGbCN6xFS/YWrU97an9/h/oENHMzO5sskkWE39vnr9Ks8nsZGaemb3FtbUUKVKkSJEiRYoUKVKkAJQqZ+1Rs7mxsdEcnbcrlVLcHQqHyvmLDoDmqP3xVCmdjTYYNEdnH0uXNqfFqy6VuDunD94aLs4/iColD3N8JKOUvM2xRDvuXvqj0vRXY4FR0mO+oqWGo0ncPfWGpj0Sr0lJ1GORA53EsUjxo6Z4LclxMhJeOs5+pUpbUOUsvo76oC2oIV4vUVWaSQ146lhsXUW5OalhgjvZVPgNzZbJdC7MvB5egzVpvmP39IEN4lWDYE2SyFzYIJ4ug+MkiVFyrt09TApxEVf3etzL2LuTuXQF9c6XVs+8fKtb6zgiZvuGusxibzfzipklXKp4dU6Al9I5V8RV0VzHBUwbGRdjQQwKYRrp1vXkZDaneiOTCOG0j0RMVqGDg+Iwg3BVJhfhJZMI6V4tW+/Oi3xrar7uLhZxQEUYwwEWkmns4Wsl3iDQMfsKNz/n1V6bURG5lehh9YiUTA1fhBDBSc7qoPbX6EKbV4QaRBBhDC2bShliw5+xPavh9r0i15wkd0nEShShnrXAFF2EV3wO/1nukPYXcKXEK3IjSLCJ+xpCWTD7Ihb9FClSZ0TvF4XUmrK9IMIUpqKQTIdVBNGQJbxf1J5VZF8WkTevyJUkpYGSA6tIkbq8ryIzSUSva1wPayhJwYbnFemT5mO4wrsWI0KuhaJiz5al9MDwLJ+WT0hzRA4sW3cZEbvGfUviLAct9zLPpwPctSHqE9tc5KwXGM+JQCjbVfefkLBQzYhuKmOvx17CGdACretwF06jJoA46wjEgNcjp8dloDV5611vgB83YtgaibgFESeGFbl2n1zNboFE4C3oGh2IzxuOKvaQ0k+TURucd7sAImxxvBARkKOfsoegCPCWuoyfzgf7OVrHso2Bs+rZTRBxsWYSyH+Pslkw/NCtn8IOrNz/zGWwiG33h1neQpy1mc0euz9Qod1UmURGm1Ma8cJhNnvEiYgOCzLbTjabPQTeAsOHmnyAka4FpdwTFTHwelZAoPL6eCEluwO+BY02mO6xaHMq56iIAogwyVswrqgeOoog3oKciEyirQg4oSjis/vbNlhvAWfVC46UAigCvFUJrggYJA+etfMiAlGjuZyI6qyt7AuAtzpArK5JfFyrxBikBf0+lkQY4y3EWYdLKYhUUMJ6C2I//m3L7aDOqhZEEcZq+SLyrKUQnLCQ4StapOVqgvQo44QriTBVy3dh0uzV7NkCJKw+MnypPRqdC1Nu1sXN7GAqTOdVztpnZNqIJNylCCBgU3MQF/BuNl+lIMMj3mJgvbrlcOrp6FDKvTkvoUZDOVEkFOF9eU0+dd0CyvaaR7DA5jtZVwTrvhGACGXLlZLlankJRTxE9FAYVfDHnIh7I4rgCh7A1vIikFMugkk9uw60WC1wImzlnUEwdp9XR4ogUlE6TRludaAmH5kWBREmannkv0dIClvLCxAm3DqKZmt7GVYEisO+gXl5WsED2FpeeAdED7WDoFmHQywCqNGOzltFxFlYiE6hLSiSUTUDEfWgIvQhVvBgeLaWD6NITk64kojovAXEUyVmJ4W2wvCaiogVPCsicr0FhLJToFL8eUtPkfJQR0RU3pIreADKiTyp6CmCEu6RKAJ8qxNxjVeu4AGQsHp8TtRTRK7gAcBb/Wi+xVTwgFvoIk8qWork5Qqe9a1otXwXUppkdlJos76lpUhXkXCXImC44FHSaWAOZt+UpOB6i13s01IELZgyIp7gaqScCISyLfmvYn4roCL5nrcIuDvKWjWaxpQ4ywHwFrvdQkcRedaBwkxORAM35m3hhNXgeEtHEX6QwInoRVAExkUyZznw4S0dRfhBgrYIPZSBUD6zUrKIt5gxuYYiXbjKOi+mxvC8hQjlllcE5USGtzQUUQ0SON8KvQ8CFUFyzl1iE94Xk7D8FRGm+TkceorQgled9WZ4SFgMqfgrkvPKhq8igLfC7kQbgEGkOosxvFwM+SsSTISipPPFBMyu8CyfQttfkbGGiFsvETqwfDnLARh+nBOBkt0LpAb7to4IcN+TUHMQaFLq6WmnmokF1e36E7yrULV8vuPx/Lgw9e+3hK60CywBCFNvybvAkoAQvHUfd59ZBK+39vwfGgcmQXlL3IGbFNgnwZwLb1FPGO6DlI6DuHvrhQDJZJ5cezgY6tpErCwyvc7B/t7qTnN4odu6mAzF9yoe+VDAoptcM51pd0XHHzRh7R0IyflEZy+ERfe4jucr2AwdGNY1fbs6ZTA5YWCv5uBDCJATHDqrDDlsxWErXqfCyF9jTU78woQsxO6u4tRDeGAytf3qYDSIzgwN71SNjDl+yT4mgeFtpu+5ySQWXKAt6t7lI0oh9kpPNIZDHjm+97AXHRKZJIF2RaBalp1tfgPa/0UrmrPv357XDeGns1Gwffr285nuEi6d0sY/Lsl1NJHgtd0ITcnhnUWVu5+mtFjgj/PIO/fnHe3CH6n91+/oMpraaXi4DKJqFOntLwbVWD91dtiVnslPZBDG8KePaLPngO2iCJjsRRtgzkyaY339m/PMf9yfX2gPLtl7kNXKkLDVvIXm+FG++WVUj/VH55lKz3pk7zlF3gWloDpIgHyR//HvKDwunYf+pj8BCi8+5Y6ZqOeGYAYIlptLX83qseQs+hPQVt32neukUhEoAWBj/cOp6tnh8K/z0B/uz0fagzvVbb/cJrBA21cqAiQNKxH/qB4dDqdOVqgAZ9FN22rz/3TbQCA3lIrAUGTm/t93s4p8cVzp0rXyb5oNPcwPjYCR4lTkhaQg6f2gHfhXfWNIRVbmWg/OM3/SnwA1sTy7bWD1SL2JdsAw26XRYP/98kj6E/CgvvGb2wjmctU7CIDZILGXjOb1kJz1eqPQSTX9QkJE+2xNBsmp40oV14FO9bLh241LQD2oPnyFShS0p8hgyfiS/h40K3iMP9AKxrDkux4EqCBDS9qXxkYiPhU8X2c5+IX6CEMrj8ktNEBE46pLU2ESvIJf4htqiBbSPCZS0OoOVvfBkHeFqeAX+IM8EJ2O81qGQ83Ibp/S919fDdDwo/OsYJ71/OWO5Bo0I6QOkTUyG7SKL3lEB/oshOfsITpa00jetNZaGe2K6njP5iKNx0mbaKTfxfI5d4VX1++TNrPVQnr47RQinz+5SpZNcnil2XfBnay7aa0MvRdIz3b9F0jId2+GiYl4iyy/NTR21wibaa7Mf70nBPIteoDuRuemHP3yTX8WvyqtDl3Y7esFLzkGuYB9X9vPxbSya3Vb8xvx40hD3VfLficoQdDeflaUv6WVIPSCrEAdMF+ISgj6gbYDlhO7PagfdKW5NUyiUewQxUYxgSHfC7PLdFFrzpJllMZ16IyWGydnz2w/Uglb3rtIxD5mezKNXl/karPxbj8mFrMb/eHJ1dzUeKJcLFovmIiCdj4Zwl9x832vtRRZzK+kOJoL2+sy1b9G9KgLj83cr+Zbv4DuiSiyHl0NyRyN69XXqNZAJOVt43q803iuJX1zNJp77QhPs2fvNcK2pOo4QszLbjV9x6GPtMU5dMxLUT5ZdZRTlE/ESPn76X/B8Ukyx7vP1Fo10Sh15QE8JY62hWd04pi1mYoxX2XPcatx+Fl4QEP6QwfvA0v6QG9deZiQ00M0R2Y/tl3Gc/G4zI7icLIM9AHZV0zi3GXcFWvj6paeUQ5FtmrEvHm9WBM6pOdeTJTHvnk9J+X5Yz9VEhPlFNaNmFKevDXZFM3RiC/KCcqDIDFf2BKTYKxRTiF/HV8Z8wUxypNzRMWBVRPdq85/wuFYNEcnlwy3ciHFfJWJ+YIY5XYiopzCkib0pI8zSVHeS0iUU+SlPL9NYl6KcjvQIc/3hCUd8EUxn/Aop8hfSLX9W8xLUZ6cdVYW0iT+MuYLT6I5Vvh3w8xAru0Xef5WjPK+9+d/kwE55j9/mCinsKQ5PAFm/+7DCmENvKa8Ex7lFPIcHkR53H0LBjnmP1CUU0gx7+CDRLkAOeZN/gWOd0S+Rlcgxx8pyilaaJLFniWx0tUFxHzv40U5xf4y5u/j3/QVFfnabqaTyAFUihQpUqRIkSJFiv83/AeTgiAu6/6YxgAAAABJRU5ErkJggg==;" parent="1" vertex="1">
          <mxGeometry x="1310" y="50" width="70" height="70" as="geometry" />
        </mxCell>
        <mxCell id="ka2fryHVlHf1zdvt1wW3-407" value="DEV" style="shape=umlActor;verticalLabelPosition=bottom;verticalAlign=top;html=1;outlineConnect=0;" parent="1" vertex="1">
          <mxGeometry x="1318" y="470" width="40" height="60" as="geometry" />
        </mxCell>
        <mxCell id="ka2fryHVlHf1zdvt1wW3-408" value="" style="shape=image;verticalLabelPosition=bottom;labelBackgroundColor=default;verticalAlign=top;aspect=fixed;imageAspect=0;image=data:image/png,iVBORw0KGgoAAAANSUhEUgAAAMgAAADICAMAAACahl6sAAAA4VBMVEX////bOyE4DXX8oSHe1PX8bSb8cyX539r+9/b++/v7niH++fjcQCf9/P7+/fz49v3dQiHvqZ32jiHjVCHdRi3h2PbscSHfSCHhTyH42NLv6vrgV0Hjalb65eH76+jeSzPfUTrxtavhXUj1x7/p4vjsmo3kbFnnfWz4lCHudSHxfyHlcl9BGHv18vzq5Pj3z8nwsqjqaCFpSZfWzeLph3fqkIHupZnslIb0iCHzvbWXgbdcOY5xUp3md2a+sNLf2OmnlMLmXyGMc69QKobIvdl9YaVfPJCzo8uhjb5KI4HzYCRXkrmHAAAMJUlEQVR4nO1de1/aShMWsS8Bwk1ABZGbCN6xFS/YWrU97an9/h/oENHMzO5sskkWE39vnr9Ks8nsZGaemb3FtbUUKVKkSJEiRYoUKVKkAJQqZ+1Rs7mxsdEcnbcrlVLcHQqHyvmLDoDmqP3xVCmdjTYYNEdnH0uXNqfFqy6VuDunD94aLs4/iColD3N8JKOUvM2xRDvuXvqj0vRXY4FR0mO+oqWGo0ncPfWGpj0Sr0lJ1GORA53EsUjxo6Z4LclxMhJeOs5+pUpbUOUsvo76oC2oIV4vUVWaSQ146lhsXUW5OalhgjvZVPgNzZbJdC7MvB5egzVpvmP39IEN4lWDYE2SyFzYIJ4ug+MkiVFyrt09TApxEVf3etzL2LuTuXQF9c6XVs+8fKtb6zgiZvuGusxibzfzipklXKp4dU6Al9I5V8RV0VzHBUwbGRdjQQwKYRrp1vXkZDaneiOTCOG0j0RMVqGDg+Iwg3BVJhfhJZMI6V4tW+/Oi3xrar7uLhZxQEUYwwEWkmns4Wsl3iDQMfsKNz/n1V6bURG5lehh9YiUTA1fhBDBSc7qoPbX6EKbV4QaRBBhDC2bShliw5+xPavh9r0i15wkd0nEShShnrXAFF2EV3wO/1nukPYXcKXEK3IjSLCJ+xpCWTD7Ihb9FClSZ0TvF4XUmrK9IMIUpqKQTIdVBNGQJbxf1J5VZF8WkTevyJUkpYGSA6tIkbq8ryIzSUSva1wPayhJwYbnFemT5mO4wrsWI0KuhaJiz5al9MDwLJ+WT0hzRA4sW3cZEbvGfUviLAct9zLPpwPctSHqE9tc5KwXGM+JQCjbVfefkLBQzYhuKmOvx17CGdACretwF06jJoA46wjEgNcjp8dloDV5611vgB83YtgaibgFESeGFbl2n1zNboFE4C3oGh2IzxuOKvaQ0k+TURucd7sAImxxvBARkKOfsoegCPCWuoyfzgf7OVrHso2Bs+rZTRBxsWYSyH+Pslkw/NCtn8IOrNz/zGWwiG33h1neQpy1mc0euz9Qod1UmURGm1Ma8cJhNnvEiYgOCzLbTjabPQTeAsOHmnyAka4FpdwTFTHwelZAoPL6eCEluwO+BY02mO6xaHMq56iIAogwyVswrqgeOoog3oKciEyirQg4oSjis/vbNlhvAWfVC46UAigCvFUJrggYJA+etfMiAlGjuZyI6qyt7AuAtzpArK5JfFyrxBikBf0+lkQY4y3EWYdLKYhUUMJ6C2I//m3L7aDOqhZEEcZq+SLyrKUQnLCQ4StapOVqgvQo44QriTBVy3dh0uzV7NkCJKw+MnypPRqdC1Nu1sXN7GAqTOdVztpnZNqIJNylCCBgU3MQF/BuNl+lIMMj3mJgvbrlcOrp6FDKvTkvoUZDOVEkFOF9eU0+dd0CyvaaR7DA5jtZVwTrvhGACGXLlZLlankJRTxE9FAYVfDHnIh7I4rgCh7A1vIikFMugkk9uw60WC1wImzlnUEwdp9XR4ogUlE6TRludaAmH5kWBREmannkv0dIClvLCxAm3DqKZmt7GVYEisO+gXl5WsED2FpeeAdED7WDoFmHQywCqNGOzltFxFlYiE6hLSiSUTUDEfWgIvQhVvBgeLaWD6NITk64kojovAXEUyVmJ4W2wvCaiogVPCsicr0FhLJToFL8eUtPkfJQR0RU3pIreADKiTyp6CmCEu6RKAJ8qxNxjVeu4AGQsHp8TtRTRK7gAcBb/Wi+xVTwgFvoIk8qWork5Qqe9a1otXwXUppkdlJos76lpUhXkXCXImC44FHSaWAOZt+UpOB6i13s01IELZgyIp7gaqScCISyLfmvYn4roCL5nrcIuDvKWjWaxpQ4ywHwFrvdQkcRedaBwkxORAM35m3hhNXgeEtHEX6QwInoRVAExkUyZznw4S0dRfhBgrYIPZSBUD6zUrKIt5gxuYYiXbjKOi+mxvC8hQjlllcE5USGtzQUUQ0SON8KvQ8CFUFyzl1iE94Xk7D8FRGm+TkceorQgled9WZ4SFgMqfgrkvPKhq8igLfC7kQbgEGkOosxvFwM+SsSTISipPPFBMyu8CyfQttfkbGGiFsvETqwfDnLARh+nBOBkt0LpAb7to4IcN+TUHMQaFLq6WmnmokF1e36E7yrULV8vuPx/Lgw9e+3hK60CywBCFNvybvAkoAQvHUfd59ZBK+39vwfGgcmQXlL3IGbFNgnwZwLb1FPGO6DlI6DuHvrhQDJZJ5cezgY6tpErCwyvc7B/t7qTnN4odu6mAzF9yoe+VDAoptcM51pd0XHHzRh7R0IyflEZy+ERfe4jucr2AwdGNY1fbs6ZTA5YWCv5uBDCJATHDqrDDlsxWErXqfCyF9jTU78woQsxO6u4tRDeGAytf3qYDSIzgwN71SNjDl+yT4mgeFtpu+5ySQWXKAt6t7lI0oh9kpPNIZDHjm+97AXHRKZJIF2RaBalp1tfgPa/0UrmrPv357XDeGns1Gwffr285nuEi6d0sY/Lsl1NJHgtd0ITcnhnUWVu5+mtFjgj/PIO/fnHe3CH6n91+/oMpraaXi4DKJqFOntLwbVWD91dtiVnslPZBDG8KePaLPngO2iCJjsRRtgzkyaY339m/PMf9yfX2gPLtl7kNXKkLDVvIXm+FG++WVUj/VH55lKz3pk7zlF3gWloDpIgHyR//HvKDwunYf+pj8BCi8+5Y6ZqOeGYAYIlptLX83qseQs+hPQVt32neukUhEoAWBj/cOp6tnh8K/z0B/uz0fagzvVbb/cJrBA21cqAiQNKxH/qB4dDqdOVqgAZ9FN22rz/3TbQCA3lIrAUGTm/t93s4p8cVzp0rXyb5oNPcwPjYCR4lTkhaQg6f2gHfhXfWNIRVbmWg/OM3/SnwA1sTy7bWD1SL2JdsAw26XRYP/98kj6E/CgvvGb2wjmctU7CIDZILGXjOb1kJz1eqPQSTX9QkJE+2xNBsmp40oV14FO9bLh241LQD2oPnyFShS0p8hgyfiS/h40K3iMP9AKxrDkux4EqCBDS9qXxkYiPhU8X2c5+IX6CEMrj8ktNEBE46pLU2ESvIJf4htqiBbSPCZS0OoOVvfBkHeFqeAX+IM8EJ2O81qGQ83Ibp/S919fDdDwo/OsYJ71/OWO5Bo0I6QOkTUyG7SKL3lEB/oshOfsITpa00jetNZaGe2K6njP5iKNx0mbaKTfxfI5d4VX1++TNrPVQnr47RQinz+5SpZNcnil2XfBnay7aa0MvRdIz3b9F0jId2+GiYl4iyy/NTR21wibaa7Mf70nBPIteoDuRuemHP3yTX8WvyqtDl3Y7esFLzkGuYB9X9vPxbSya3Vb8xvx40hD3VfLficoQdDeflaUv6WVIPSCrEAdMF+ISgj6gbYDlhO7PagfdKW5NUyiUewQxUYxgSHfC7PLdFFrzpJllMZ16IyWGydnz2w/Uglb3rtIxD5mezKNXl/karPxbj8mFrMb/eHJ1dzUeKJcLFovmIiCdj4Zwl9x832vtRRZzK+kOJoL2+sy1b9G9KgLj83cr+Zbv4DuiSiyHl0NyRyN69XXqNZAJOVt43q803iuJX1zNJp77QhPs2fvNcK2pOo4QszLbjV9x6GPtMU5dMxLUT5ZdZRTlE/ESPn76X/B8Ukyx7vP1Fo10Sh15QE8JY62hWd04pi1mYoxX2XPcatx+Fl4QEP6QwfvA0v6QG9deZiQ00M0R2Y/tl3Gc/G4zI7icLIM9AHZV0zi3GXcFWvj6paeUQ5FtmrEvHm9WBM6pOdeTJTHvnk9J+X5Yz9VEhPlFNaNmFKevDXZFM3RiC/KCcqDIDFf2BKTYKxRTiF/HV8Z8wUxypNzRMWBVRPdq85/wuFYNEcnlwy3ciHFfJWJ+YIY5XYiopzCkib0pI8zSVHeS0iUU+SlPL9NYl6KcjvQIc/3hCUd8EUxn/Aop8hfSLX9W8xLUZ6cdVYW0iT+MuYLT6I5Vvh3w8xAru0Xef5WjPK+9+d/kwE55j9/mCinsKQ5PAFm/+7DCmENvKa8Ex7lFPIcHkR53H0LBjnmP1CUU0gx7+CDRLkAOeZN/gWOd0S+Rlcgxx8pyilaaJLFniWx0tUFxHzv40U5xf4y5u/j3/QVFfnabqaTyAFUihQpUqRIkSJFiv83/AeTgiAu6/6YxgAAAABJRU5ErkJggg==;" parent="1" vertex="1">
          <mxGeometry x="1303" y="385" width="70" height="70" as="geometry" />
        </mxCell>
        <mxCell id="ka2fryHVlHf1zdvt1wW3-409" value="" style="shape=curlyBracket;whiteSpace=wrap;html=1;rounded=1;flipH=1;labelPosition=right;verticalLabelPosition=middle;align=left;verticalAlign=middle;" parent="1" vertex="1">
          <mxGeometry x="1275" y="120" width="20" height="130" as="geometry" />
        </mxCell>
        <mxCell id="ka2fryHVlHf1zdvt1wW3-410" value="" style="shape=curlyBracket;whiteSpace=wrap;html=1;rounded=1;flipH=1;labelPosition=right;verticalLabelPosition=middle;align=left;verticalAlign=middle;" parent="1" vertex="1">
          <mxGeometry x="1275" y="55" width="20" height="60" as="geometry" />
        </mxCell>
        <mxCell id="ka2fryHVlHf1zdvt1wW3-411" value="" style="shape=curlyBracket;whiteSpace=wrap;html=1;rounded=1;flipH=1;labelPosition=right;verticalLabelPosition=middle;align=left;verticalAlign=middle;" parent="1" vertex="1">
          <mxGeometry x="1275" y="455" width="20" height="85" as="geometry" />
        </mxCell>
        <mxCell id="ka2fryHVlHf1zdvt1wW3-412" value="" style="shape=curlyBracket;whiteSpace=wrap;html=1;rounded=1;flipH=1;labelPosition=right;verticalLabelPosition=middle;align=left;verticalAlign=middle;" parent="1" vertex="1">
          <mxGeometry x="1275" y="390" width="20" height="60" as="geometry" />
        </mxCell>
        <mxCell id="ka2fryHVlHf1zdvt1wW3-423" style="edgeStyle=orthogonalEdgeStyle;rounded=0;orthogonalLoop=1;jettySize=auto;html=1;exitX=1;exitY=0.5;exitDx=0;exitDy=0;entryX=1;entryY=0.5;entryDx=0;entryDy=0;curved=1;dashed=1;" parent="1" source="ka2fryHVlHf1zdvt1wW3-413" target="ka2fryHVlHf1zdvt1wW3-418" edge="1">
          <mxGeometry relative="1" as="geometry">
            <Array as="points">
              <mxPoint x="590" y="101" />
              <mxPoint x="590" y="441" />
            </Array>
          </mxGeometry>
        </mxCell>
        <mxCell id="ka2fryHVlHf1zdvt1wW3-424" value="TRIGGER" style="edgeLabel;html=1;align=center;verticalAlign=middle;resizable=0;points=[];" parent="ka2fryHVlHf1zdvt1wW3-423" vertex="1" connectable="0">
          <mxGeometry x="-0.0168" relative="1" as="geometry">
            <mxPoint as="offset" />
          </mxGeometry>
        </mxCell>
        <mxCell id="ka2fryHVlHf1zdvt1wW3-413" value="" style="shape=image;verticalLabelPosition=bottom;labelBackgroundColor=default;verticalAlign=top;aspect=fixed;imageAspect=0;image=data:image/png,iVBORw0KGgoAAAANSUhEUgAAAMgAAADICAMAAACahl6sAAAA4VBMVEX////bOyE4DXX8oSHe1PX8bSb8cyX539r+9/b++/v7niH++fjcQCf9/P7+/fz49v3dQiHvqZ32jiHjVCHdRi3h2PbscSHfSCHhTyH42NLv6vrgV0Hjalb65eH76+jeSzPfUTrxtavhXUj1x7/p4vjsmo3kbFnnfWz4lCHudSHxfyHlcl9BGHv18vzq5Pj3z8nwsqjqaCFpSZfWzeLph3fqkIHupZnslIb0iCHzvbWXgbdcOY5xUp3md2a+sNLf2OmnlMLmXyGMc69QKobIvdl9YaVfPJCzo8uhjb5KI4HzYCRXkrmHAAAMJUlEQVR4nO1de1/aShMWsS8Bwk1ABZGbCN6xFS/YWrU97an9/h/oENHMzO5sskkWE39vnr9Ks8nsZGaemb3FtbUUKVKkSJEiRYoUKVKkAJQqZ+1Rs7mxsdEcnbcrlVLcHQqHyvmLDoDmqP3xVCmdjTYYNEdnH0uXNqfFqy6VuDunD94aLs4/iColD3N8JKOUvM2xRDvuXvqj0vRXY4FR0mO+oqWGo0ncPfWGpj0Sr0lJ1GORA53EsUjxo6Z4LclxMhJeOs5+pUpbUOUsvo76oC2oIV4vUVWaSQ146lhsXUW5OalhgjvZVPgNzZbJdC7MvB5egzVpvmP39IEN4lWDYE2SyFzYIJ4ug+MkiVFyrt09TApxEVf3etzL2LuTuXQF9c6XVs+8fKtb6zgiZvuGusxibzfzipklXKp4dU6Al9I5V8RV0VzHBUwbGRdjQQwKYRrp1vXkZDaneiOTCOG0j0RMVqGDg+Iwg3BVJhfhJZMI6V4tW+/Oi3xrar7uLhZxQEUYwwEWkmns4Wsl3iDQMfsKNz/n1V6bURG5lehh9YiUTA1fhBDBSc7qoPbX6EKbV4QaRBBhDC2bShliw5+xPavh9r0i15wkd0nEShShnrXAFF2EV3wO/1nukPYXcKXEK3IjSLCJ+xpCWTD7Ihb9FClSZ0TvF4XUmrK9IMIUpqKQTIdVBNGQJbxf1J5VZF8WkTevyJUkpYGSA6tIkbq8ryIzSUSva1wPayhJwYbnFemT5mO4wrsWI0KuhaJiz5al9MDwLJ+WT0hzRA4sW3cZEbvGfUviLAct9zLPpwPctSHqE9tc5KwXGM+JQCjbVfefkLBQzYhuKmOvx17CGdACretwF06jJoA46wjEgNcjp8dloDV5611vgB83YtgaibgFESeGFbl2n1zNboFE4C3oGh2IzxuOKvaQ0k+TURucd7sAImxxvBARkKOfsoegCPCWuoyfzgf7OVrHso2Bs+rZTRBxsWYSyH+Pslkw/NCtn8IOrNz/zGWwiG33h1neQpy1mc0euz9Qod1UmURGm1Ma8cJhNnvEiYgOCzLbTjabPQTeAsOHmnyAka4FpdwTFTHwelZAoPL6eCEluwO+BY02mO6xaHMq56iIAogwyVswrqgeOoog3oKciEyirQg4oSjis/vbNlhvAWfVC46UAigCvFUJrggYJA+etfMiAlGjuZyI6qyt7AuAtzpArK5JfFyrxBikBf0+lkQY4y3EWYdLKYhUUMJ6C2I//m3L7aDOqhZEEcZq+SLyrKUQnLCQ4StapOVqgvQo44QriTBVy3dh0uzV7NkCJKw+MnypPRqdC1Nu1sXN7GAqTOdVztpnZNqIJNylCCBgU3MQF/BuNl+lIMMj3mJgvbrlcOrp6FDKvTkvoUZDOVEkFOF9eU0+dd0CyvaaR7DA5jtZVwTrvhGACGXLlZLlankJRTxE9FAYVfDHnIh7I4rgCh7A1vIikFMugkk9uw60WC1wImzlnUEwdp9XR4ogUlE6TRludaAmH5kWBREmannkv0dIClvLCxAm3DqKZmt7GVYEisO+gXl5WsED2FpeeAdED7WDoFmHQywCqNGOzltFxFlYiE6hLSiSUTUDEfWgIvQhVvBgeLaWD6NITk64kojovAXEUyVmJ4W2wvCaiogVPCsicr0FhLJToFL8eUtPkfJQR0RU3pIreADKiTyp6CmCEu6RKAJ8qxNxjVeu4AGQsHp8TtRTRK7gAcBb/Wi+xVTwgFvoIk8qWork5Qqe9a1otXwXUppkdlJos76lpUhXkXCXImC44FHSaWAOZt+UpOB6i13s01IELZgyIp7gaqScCISyLfmvYn4roCL5nrcIuDvKWjWaxpQ4ywHwFrvdQkcRedaBwkxORAM35m3hhNXgeEtHEX6QwInoRVAExkUyZznw4S0dRfhBgrYIPZSBUD6zUrKIt5gxuYYiXbjKOi+mxvC8hQjlllcE5USGtzQUUQ0SON8KvQ8CFUFyzl1iE94Xk7D8FRGm+TkceorQgled9WZ4SFgMqfgrkvPKhq8igLfC7kQbgEGkOosxvFwM+SsSTISipPPFBMyu8CyfQttfkbGGiFsvETqwfDnLARh+nBOBkt0LpAb7to4IcN+TUHMQaFLq6WmnmokF1e36E7yrULV8vuPx/Lgw9e+3hK60CywBCFNvybvAkoAQvHUfd59ZBK+39vwfGgcmQXlL3IGbFNgnwZwLb1FPGO6DlI6DuHvrhQDJZJ5cezgY6tpErCwyvc7B/t7qTnN4odu6mAzF9yoe+VDAoptcM51pd0XHHzRh7R0IyflEZy+ERfe4jucr2AwdGNY1fbs6ZTA5YWCv5uBDCJATHDqrDDlsxWErXqfCyF9jTU78woQsxO6u4tRDeGAytf3qYDSIzgwN71SNjDl+yT4mgeFtpu+5ySQWXKAt6t7lI0oh9kpPNIZDHjm+97AXHRKZJIF2RaBalp1tfgPa/0UrmrPv357XDeGns1Gwffr285nuEi6d0sY/Lsl1NJHgtd0ITcnhnUWVu5+mtFjgj/PIO/fnHe3CH6n91+/oMpraaXi4DKJqFOntLwbVWD91dtiVnslPZBDG8KePaLPngO2iCJjsRRtgzkyaY339m/PMf9yfX2gPLtl7kNXKkLDVvIXm+FG++WVUj/VH55lKz3pk7zlF3gWloDpIgHyR//HvKDwunYf+pj8BCi8+5Y6ZqOeGYAYIlptLX83qseQs+hPQVt32neukUhEoAWBj/cOp6tnh8K/z0B/uz0fagzvVbb/cJrBA21cqAiQNKxH/qB4dDqdOVqgAZ9FN22rz/3TbQCA3lIrAUGTm/t93s4p8cVzp0rXyb5oNPcwPjYCR4lTkhaQg6f2gHfhXfWNIRVbmWg/OM3/SnwA1sTy7bWD1SL2JdsAw26XRYP/98kj6E/CgvvGb2wjmctU7CIDZILGXjOb1kJz1eqPQSTX9QkJE+2xNBsmp40oV14FO9bLh241LQD2oPnyFShS0p8hgyfiS/h40K3iMP9AKxrDkux4EqCBDS9qXxkYiPhU8X2c5+IX6CEMrj8ktNEBE46pLU2ESvIJf4htqiBbSPCZS0OoOVvfBkHeFqeAX+IM8EJ2O81qGQ83Ibp/S919fDdDwo/OsYJ71/OWO5Bo0I6QOkTUyG7SKL3lEB/oshOfsITpa00jetNZaGe2K6njP5iKNx0mbaKTfxfI5d4VX1++TNrPVQnr47RQinz+5SpZNcnil2XfBnay7aa0MvRdIz3b9F0jId2+GiYl4iyy/NTR21wibaa7Mf70nBPIteoDuRuemHP3yTX8WvyqtDl3Y7esFLzkGuYB9X9vPxbSya3Vb8xvx40hD3VfLficoQdDeflaUv6WVIPSCrEAdMF+ISgj6gbYDlhO7PagfdKW5NUyiUewQxUYxgSHfC7PLdFFrzpJllMZ16IyWGydnz2w/Uglb3rtIxD5mezKNXl/karPxbj8mFrMb/eHJ1dzUeKJcLFovmIiCdj4Zwl9x832vtRRZzK+kOJoL2+sy1b9G9KgLj83cr+Zbv4DuiSiyHl0NyRyN69XXqNZAJOVt43q803iuJX1zNJp77QhPs2fvNcK2pOo4QszLbjV9x6GPtMU5dMxLUT5ZdZRTlE/ESPn76X/B8Ukyx7vP1Fo10Sh15QE8JY62hWd04pi1mYoxX2XPcatx+Fl4QEP6QwfvA0v6QG9deZiQ00M0R2Y/tl3Gc/G4zI7icLIM9AHZV0zi3GXcFWvj6paeUQ5FtmrEvHm9WBM6pOdeTJTHvnk9J+X5Yz9VEhPlFNaNmFKevDXZFM3RiC/KCcqDIDFf2BKTYKxRTiF/HV8Z8wUxypNzRMWBVRPdq85/wuFYNEcnlwy3ciHFfJWJ+YIY5XYiopzCkib0pI8zSVHeS0iUU+SlPL9NYl6KcjvQIc/3hCUd8EUxn/Aop8hfSLX9W8xLUZ6cdVYW0iT+MuYLT6I5Vvh3w8xAru0Xef5WjPK+9+d/kwE55j9/mCinsKQ5PAFm/+7DCmENvKa8Ex7lFPIcHkR53H0LBjnmP1CUU0gx7+CDRLkAOeZN/gWOd0S+Rlcgxx8pyilaaJLFniWx0tUFxHzv40U5xf4y5u/j3/QVFfnabqaTyAFUihQpUqRIkSJFiv83/AeTgiAu6/6YxgAAAABJRU5ErkJggg==;" parent="1" vertex="1">
          <mxGeometry x="452" y="82" width="38" height="38" as="geometry" />
        </mxCell>
        <mxCell id="ka2fryHVlHf1zdvt1wW3-416" value="" style="shape=image;verticalLabelPosition=bottom;labelBackgroundColor=default;verticalAlign=top;aspect=fixed;imageAspect=0;image=data:image/png,iVBORw0KGgoAAAANSUhEUgAAAMgAAADICAMAAACahl6sAAAA4VBMVEX////bOyE4DXX8oSHe1PX8bSb8cyX539r+9/b++/v7niH++fjcQCf9/P7+/fz49v3dQiHvqZ32jiHjVCHdRi3h2PbscSHfSCHhTyH42NLv6vrgV0Hjalb65eH76+jeSzPfUTrxtavhXUj1x7/p4vjsmo3kbFnnfWz4lCHudSHxfyHlcl9BGHv18vzq5Pj3z8nwsqjqaCFpSZfWzeLph3fqkIHupZnslIb0iCHzvbWXgbdcOY5xUp3md2a+sNLf2OmnlMLmXyGMc69QKobIvdl9YaVfPJCzo8uhjb5KI4HzYCRXkrmHAAAMJUlEQVR4nO1de1/aShMWsS8Bwk1ABZGbCN6xFS/YWrU97an9/h/oENHMzO5sskkWE39vnr9Ks8nsZGaemb3FtbUUKVKkSJEiRYoUKVKkAJQqZ+1Rs7mxsdEcnbcrlVLcHQqHyvmLDoDmqP3xVCmdjTYYNEdnH0uXNqfFqy6VuDunD94aLs4/iColD3N8JKOUvM2xRDvuXvqj0vRXY4FR0mO+oqWGo0ncPfWGpj0Sr0lJ1GORA53EsUjxo6Z4LclxMhJeOs5+pUpbUOUsvo76oC2oIV4vUVWaSQ146lhsXUW5OalhgjvZVPgNzZbJdC7MvB5egzVpvmP39IEN4lWDYE2SyFzYIJ4ug+MkiVFyrt09TApxEVf3etzL2LuTuXQF9c6XVs+8fKtb6zgiZvuGusxibzfzipklXKp4dU6Al9I5V8RV0VzHBUwbGRdjQQwKYRrp1vXkZDaneiOTCOG0j0RMVqGDg+Iwg3BVJhfhJZMI6V4tW+/Oi3xrar7uLhZxQEUYwwEWkmns4Wsl3iDQMfsKNz/n1V6bURG5lehh9YiUTA1fhBDBSc7qoPbX6EKbV4QaRBBhDC2bShliw5+xPavh9r0i15wkd0nEShShnrXAFF2EV3wO/1nukPYXcKXEK3IjSLCJ+xpCWTD7Ihb9FClSZ0TvF4XUmrK9IMIUpqKQTIdVBNGQJbxf1J5VZF8WkTevyJUkpYGSA6tIkbq8ryIzSUSva1wPayhJwYbnFemT5mO4wrsWI0KuhaJiz5al9MDwLJ+WT0hzRA4sW3cZEbvGfUviLAct9zLPpwPctSHqE9tc5KwXGM+JQCjbVfefkLBQzYhuKmOvx17CGdACretwF06jJoA46wjEgNcjp8dloDV5611vgB83YtgaibgFESeGFbl2n1zNboFE4C3oGh2IzxuOKvaQ0k+TURucd7sAImxxvBARkKOfsoegCPCWuoyfzgf7OVrHso2Bs+rZTRBxsWYSyH+Pslkw/NCtn8IOrNz/zGWwiG33h1neQpy1mc0euz9Qod1UmURGm1Ma8cJhNnvEiYgOCzLbTjabPQTeAsOHmnyAka4FpdwTFTHwelZAoPL6eCEluwO+BY02mO6xaHMq56iIAogwyVswrqgeOoog3oKciEyirQg4oSjis/vbNlhvAWfVC46UAigCvFUJrggYJA+etfMiAlGjuZyI6qyt7AuAtzpArK5JfFyrxBikBf0+lkQY4y3EWYdLKYhUUMJ6C2I//m3L7aDOqhZEEcZq+SLyrKUQnLCQ4StapOVqgvQo44QriTBVy3dh0uzV7NkCJKw+MnypPRqdC1Nu1sXN7GAqTOdVztpnZNqIJNylCCBgU3MQF/BuNl+lIMMj3mJgvbrlcOrp6FDKvTkvoUZDOVEkFOF9eU0+dd0CyvaaR7DA5jtZVwTrvhGACGXLlZLlankJRTxE9FAYVfDHnIh7I4rgCh7A1vIikFMugkk9uw60WC1wImzlnUEwdp9XR4ogUlE6TRludaAmH5kWBREmannkv0dIClvLCxAm3DqKZmt7GVYEisO+gXl5WsED2FpeeAdED7WDoFmHQywCqNGOzltFxFlYiE6hLSiSUTUDEfWgIvQhVvBgeLaWD6NITk64kojovAXEUyVmJ4W2wvCaiogVPCsicr0FhLJToFL8eUtPkfJQR0RU3pIreADKiTyp6CmCEu6RKAJ8qxNxjVeu4AGQsHp8TtRTRK7gAcBb/Wi+xVTwgFvoIk8qWork5Qqe9a1otXwXUppkdlJos76lpUhXkXCXImC44FHSaWAOZt+UpOB6i13s01IELZgyIp7gaqScCISyLfmvYn4roCL5nrcIuDvKWjWaxpQ4ywHwFrvdQkcRedaBwkxORAM35m3hhNXgeEtHEX6QwInoRVAExkUyZznw4S0dRfhBgrYIPZSBUD6zUrKIt5gxuYYiXbjKOi+mxvC8hQjlllcE5USGtzQUUQ0SON8KvQ8CFUFyzl1iE94Xk7D8FRGm+TkceorQgled9WZ4SFgMqfgrkvPKhq8igLfC7kQbgEGkOosxvFwM+SsSTISipPPFBMyu8CyfQttfkbGGiFsvETqwfDnLARh+nBOBkt0LpAb7to4IcN+TUHMQaFLq6WmnmokF1e36E7yrULV8vuPx/Lgw9e+3hK60CywBCFNvybvAkoAQvHUfd59ZBK+39vwfGgcmQXlL3IGbFNgnwZwLb1FPGO6DlI6DuHvrhQDJZJ5cezgY6tpErCwyvc7B/t7qTnN4odu6mAzF9yoe+VDAoptcM51pd0XHHzRh7R0IyflEZy+ERfe4jucr2AwdGNY1fbs6ZTA5YWCv5uBDCJATHDqrDDlsxWErXqfCyF9jTU78woQsxO6u4tRDeGAytf3qYDSIzgwN71SNjDl+yT4mgeFtpu+5ySQWXKAt6t7lI0oh9kpPNIZDHjm+97AXHRKZJIF2RaBalp1tfgPa/0UrmrPv357XDeGns1Gwffr285nuEi6d0sY/Lsl1NJHgtd0ITcnhnUWVu5+mtFjgj/PIO/fnHe3CH6n91+/oMpraaXi4DKJqFOntLwbVWD91dtiVnslPZBDG8KePaLPngO2iCJjsRRtgzkyaY339m/PMf9yfX2gPLtl7kNXKkLDVvIXm+FG++WVUj/VH55lKz3pk7zlF3gWloDpIgHyR//HvKDwunYf+pj8BCi8+5Y6ZqOeGYAYIlptLX83qseQs+hPQVt32neukUhEoAWBj/cOp6tnh8K/z0B/uz0fagzvVbb/cJrBA21cqAiQNKxH/qB4dDqdOVqgAZ9FN22rz/3TbQCA3lIrAUGTm/t93s4p8cVzp0rXyb5oNPcwPjYCR4lTkhaQg6f2gHfhXfWNIRVbmWg/OM3/SnwA1sTy7bWD1SL2JdsAw26XRYP/98kj6E/CgvvGb2wjmctU7CIDZILGXjOb1kJz1eqPQSTX9QkJE+2xNBsmp40oV14FO9bLh241LQD2oPnyFShS0p8hgyfiS/h40K3iMP9AKxrDkux4EqCBDS9qXxkYiPhU8X2c5+IX6CEMrj8ktNEBE46pLU2ESvIJf4htqiBbSPCZS0OoOVvfBkHeFqeAX+IM8EJ2O81qGQ83Ibp/S919fDdDwo/OsYJ71/OWO5Bo0I6QOkTUyG7SKL3lEB/oshOfsITpa00jetNZaGe2K6njP5iKNx0mbaKTfxfI5d4VX1++TNrPVQnr47RQinz+5SpZNcnil2XfBnay7aa0MvRdIz3b9F0jId2+GiYl4iyy/NTR21wibaa7Mf70nBPIteoDuRuemHP3yTX8WvyqtDl3Y7esFLzkGuYB9X9vPxbSya3Vb8xvx40hD3VfLficoQdDeflaUv6WVIPSCrEAdMF+ISgj6gbYDlhO7PagfdKW5NUyiUewQxUYxgSHfC7PLdFFrzpJllMZ16IyWGydnz2w/Uglb3rtIxD5mezKNXl/karPxbj8mFrMb/eHJ1dzUeKJcLFovmIiCdj4Zwl9x832vtRRZzK+kOJoL2+sy1b9G9KgLj83cr+Zbv4DuiSiyHl0NyRyN69XXqNZAJOVt43q803iuJX1zNJp77QhPs2fvNcK2pOo4QszLbjV9x6GPtMU5dMxLUT5ZdZRTlE/ESPn76X/B8Ukyx7vP1Fo10Sh15QE8JY62hWd04pi1mYoxX2XPcatx+Fl4QEP6QwfvA0v6QG9deZiQ00M0R2Y/tl3Gc/G4zI7icLIM9AHZV0zi3GXcFWvj6paeUQ5FtmrEvHm9WBM6pOdeTJTHvnk9J+X5Yz9VEhPlFNaNmFKevDXZFM3RiC/KCcqDIDFf2BKTYKxRTiF/HV8Z8wUxypNzRMWBVRPdq85/wuFYNEcnlwy3ciHFfJWJ+YIY5XYiopzCkib0pI8zSVHeS0iUU+SlPL9NYl6KcjvQIc/3hCUd8EUxn/Aop8hfSLX9W8xLUZ6cdVYW0iT+MuYLT6I5Vvh3w8xAru0Xef5WjPK+9+d/kwE55j9/mCinsKQ5PAFm/+7DCmENvKa8Ex7lFPIcHkR53H0LBjnmP1CUU0gx7+CDRLkAOeZN/gWOd0S+Rlcgxx8pyilaaJLFniWx0tUFxHzv40U5xf4y5u/j3/QVFfnabqaTyAFUihQpUqRIkSJFiv83/AeTgiAu6/6YxgAAAABJRU5ErkJggg==;" parent="1" vertex="1">
          <mxGeometry x="800" y="115" width="38" height="38" as="geometry" />
        </mxCell>
        <mxCell id="ka2fryHVlHf1zdvt1wW3-418" value="" style="shape=image;verticalLabelPosition=bottom;labelBackgroundColor=default;verticalAlign=top;aspect=fixed;imageAspect=0;image=data:image/png,iVBORw0KGgoAAAANSUhEUgAAAMgAAADICAMAAACahl6sAAAA4VBMVEX////bOyE4DXX8oSHe1PX8bSb8cyX539r+9/b++/v7niH++fjcQCf9/P7+/fz49v3dQiHvqZ32jiHjVCHdRi3h2PbscSHfSCHhTyH42NLv6vrgV0Hjalb65eH76+jeSzPfUTrxtavhXUj1x7/p4vjsmo3kbFnnfWz4lCHudSHxfyHlcl9BGHv18vzq5Pj3z8nwsqjqaCFpSZfWzeLph3fqkIHupZnslIb0iCHzvbWXgbdcOY5xUp3md2a+sNLf2OmnlMLmXyGMc69QKobIvdl9YaVfPJCzo8uhjb5KI4HzYCRXkrmHAAAMJUlEQVR4nO1de1/aShMWsS8Bwk1ABZGbCN6xFS/YWrU97an9/h/oENHMzO5sskkWE39vnr9Ks8nsZGaemb3FtbUUKVKkSJEiRYoUKVKkAJQqZ+1Rs7mxsdEcnbcrlVLcHQqHyvmLDoDmqP3xVCmdjTYYNEdnH0uXNqfFqy6VuDunD94aLs4/iColD3N8JKOUvM2xRDvuXvqj0vRXY4FR0mO+oqWGo0ncPfWGpj0Sr0lJ1GORA53EsUjxo6Z4LclxMhJeOs5+pUpbUOUsvo76oC2oIV4vUVWaSQ146lhsXUW5OalhgjvZVPgNzZbJdC7MvB5egzVpvmP39IEN4lWDYE2SyFzYIJ4ug+MkiVFyrt09TApxEVf3etzL2LuTuXQF9c6XVs+8fKtb6zgiZvuGusxibzfzipklXKp4dU6Al9I5V8RV0VzHBUwbGRdjQQwKYRrp1vXkZDaneiOTCOG0j0RMVqGDg+Iwg3BVJhfhJZMI6V4tW+/Oi3xrar7uLhZxQEUYwwEWkmns4Wsl3iDQMfsKNz/n1V6bURG5lehh9YiUTA1fhBDBSc7qoPbX6EKbV4QaRBBhDC2bShliw5+xPavh9r0i15wkd0nEShShnrXAFF2EV3wO/1nukPYXcKXEK3IjSLCJ+xpCWTD7Ihb9FClSZ0TvF4XUmrK9IMIUpqKQTIdVBNGQJbxf1J5VZF8WkTevyJUkpYGSA6tIkbq8ryIzSUSva1wPayhJwYbnFemT5mO4wrsWI0KuhaJiz5al9MDwLJ+WT0hzRA4sW3cZEbvGfUviLAct9zLPpwPctSHqE9tc5KwXGM+JQCjbVfefkLBQzYhuKmOvx17CGdACretwF06jJoA46wjEgNcjp8dloDV5611vgB83YtgaibgFESeGFbl2n1zNboFE4C3oGh2IzxuOKvaQ0k+TURucd7sAImxxvBARkKOfsoegCPCWuoyfzgf7OVrHso2Bs+rZTRBxsWYSyH+Pslkw/NCtn8IOrNz/zGWwiG33h1neQpy1mc0euz9Qod1UmURGm1Ma8cJhNnvEiYgOCzLbTjabPQTeAsOHmnyAka4FpdwTFTHwelZAoPL6eCEluwO+BY02mO6xaHMq56iIAogwyVswrqgeOoog3oKciEyirQg4oSjis/vbNlhvAWfVC46UAigCvFUJrggYJA+etfMiAlGjuZyI6qyt7AuAtzpArK5JfFyrxBikBf0+lkQY4y3EWYdLKYhUUMJ6C2I//m3L7aDOqhZEEcZq+SLyrKUQnLCQ4StapOVqgvQo44QriTBVy3dh0uzV7NkCJKw+MnypPRqdC1Nu1sXN7GAqTOdVztpnZNqIJNylCCBgU3MQF/BuNl+lIMMj3mJgvbrlcOrp6FDKvTkvoUZDOVEkFOF9eU0+dd0CyvaaR7DA5jtZVwTrvhGACGXLlZLlankJRTxE9FAYVfDHnIh7I4rgCh7A1vIikFMugkk9uw60WC1wImzlnUEwdp9XR4ogUlE6TRludaAmH5kWBREmannkv0dIClvLCxAm3DqKZmt7GVYEisO+gXl5WsED2FpeeAdED7WDoFmHQywCqNGOzltFxFlYiE6hLSiSUTUDEfWgIvQhVvBgeLaWD6NITk64kojovAXEUyVmJ4W2wvCaiogVPCsicr0FhLJToFL8eUtPkfJQR0RU3pIreADKiTyp6CmCEu6RKAJ8qxNxjVeu4AGQsHp8TtRTRK7gAcBb/Wi+xVTwgFvoIk8qWork5Qqe9a1otXwXUppkdlJos76lpUhXkXCXImC44FHSaWAOZt+UpOB6i13s01IELZgyIp7gaqScCISyLfmvYn4roCL5nrcIuDvKWjWaxpQ4ywHwFrvdQkcRedaBwkxORAM35m3hhNXgeEtHEX6QwInoRVAExkUyZznw4S0dRfhBgrYIPZSBUD6zUrKIt5gxuYYiXbjKOi+mxvC8hQjlllcE5USGtzQUUQ0SON8KvQ8CFUFyzl1iE94Xk7D8FRGm+TkceorQgled9WZ4SFgMqfgrkvPKhq8igLfC7kQbgEGkOosxvFwM+SsSTISipPPFBMyu8CyfQttfkbGGiFsvETqwfDnLARh+nBOBkt0LpAb7to4IcN+TUHMQaFLq6WmnmokF1e36E7yrULV8vuPx/Lgw9e+3hK60CywBCFNvybvAkoAQvHUfd59ZBK+39vwfGgcmQXlL3IGbFNgnwZwLb1FPGO6DlI6DuHvrhQDJZJ5cezgY6tpErCwyvc7B/t7qTnN4odu6mAzF9yoe+VDAoptcM51pd0XHHzRh7R0IyflEZy+ERfe4jucr2AwdGNY1fbs6ZTA5YWCv5uBDCJATHDqrDDlsxWErXqfCyF9jTU78woQsxO6u4tRDeGAytf3qYDSIzgwN71SNjDl+yT4mgeFtpu+5ySQWXKAt6t7lI0oh9kpPNIZDHjm+97AXHRKZJIF2RaBalp1tfgPa/0UrmrPv357XDeGns1Gwffr285nuEi6d0sY/Lsl1NJHgtd0ITcnhnUWVu5+mtFjgj/PIO/fnHe3CH6n91+/oMpraaXi4DKJqFOntLwbVWD91dtiVnslPZBDG8KePaLPngO2iCJjsRRtgzkyaY339m/PMf9yfX2gPLtl7kNXKkLDVvIXm+FG++WVUj/VH55lKz3pk7zlF3gWloDpIgHyR//HvKDwunYf+pj8BCi8+5Y6ZqOeGYAYIlptLX83qseQs+hPQVt32neukUhEoAWBj/cOp6tnh8K/z0B/uz0fagzvVbb/cJrBA21cqAiQNKxH/qB4dDqdOVqgAZ9FN22rz/3TbQCA3lIrAUGTm/t93s4p8cVzp0rXyb5oNPcwPjYCR4lTkhaQg6f2gHfhXfWNIRVbmWg/OM3/SnwA1sTy7bWD1SL2JdsAw26XRYP/98kj6E/CgvvGb2wjmctU7CIDZILGXjOb1kJz1eqPQSTX9QkJE+2xNBsmp40oV14FO9bLh241LQD2oPnyFShS0p8hgyfiS/h40K3iMP9AKxrDkux4EqCBDS9qXxkYiPhU8X2c5+IX6CEMrj8ktNEBE46pLU2ESvIJf4htqiBbSPCZS0OoOVvfBkHeFqeAX+IM8EJ2O81qGQ83Ibp/S919fDdDwo/OsYJ71/OWO5Bo0I6QOkTUyG7SKL3lEB/oshOfsITpa00jetNZaGe2K6njP5iKNx0mbaKTfxfI5d4VX1++TNrPVQnr47RQinz+5SpZNcnil2XfBnay7aa0MvRdIz3b9F0jId2+GiYl4iyy/NTR21wibaa7Mf70nBPIteoDuRuemHP3yTX8WvyqtDl3Y7esFLzkGuYB9X9vPxbSya3Vb8xvx40hD3VfLficoQdDeflaUv6WVIPSCrEAdMF+ISgj6gbYDlhO7PagfdKW5NUyiUewQxUYxgSHfC7PLdFFrzpJllMZ16IyWGydnz2w/Uglb3rtIxD5mezKNXl/karPxbj8mFrMb/eHJ1dzUeKJcLFovmIiCdj4Zwl9x832vtRRZzK+kOJoL2+sy1b9G9KgLj83cr+Zbv4DuiSiyHl0NyRyN69XXqNZAJOVt43q803iuJX1zNJp77QhPs2fvNcK2pOo4QszLbjV9x6GPtMU5dMxLUT5ZdZRTlE/ESPn76X/B8Ukyx7vP1Fo10Sh15QE8JY62hWd04pi1mYoxX2XPcatx+Fl4QEP6QwfvA0v6QG9deZiQ00M0R2Y/tl3Gc/G4zI7icLIM9AHZV0zi3GXcFWvj6paeUQ5FtmrEvHm9WBM6pOdeTJTHvnk9J+X5Yz9VEhPlFNaNmFKevDXZFM3RiC/KCcqDIDFf2BKTYKxRTiF/HV8Z8wUxypNzRMWBVRPdq85/wuFYNEcnlwy3ciHFfJWJ+YIY5XYiopzCkib0pI8zSVHeS0iUU+SlPL9NYl6KcjvQIc/3hCUd8EUxn/Aop8hfSLX9W8xLUZ6cdVYW0iT+MuYLT6I5Vvh3w8xAru0Xef5WjPK+9+d/kwE55j9/mCinsKQ5PAFm/+7DCmENvKa8Ex7lFPIcHkR53H0LBjnmP1CUU0gx7+CDRLkAOeZN/gWOd0S+Rlcgxx8pyilaaJLFniWx0tUFxHzv40U5xf4y5u/j3/QVFfnabqaTyAFUihQpUqRIkSJFiv83/AeTgiAu6/6YxgAAAABJRU5ErkJggg==;" parent="1" vertex="1">
          <mxGeometry x="434.66" y="422" width="38" height="38" as="geometry" />
        </mxCell>
        <mxCell id="ka2fryHVlHf1zdvt1wW3-420" value="" style="shape=image;verticalLabelPosition=bottom;labelBackgroundColor=default;verticalAlign=top;aspect=fixed;imageAspect=0;image=data:image/png,iVBORw0KGgoAAAANSUhEUgAAAMgAAADICAMAAACahl6sAAAA4VBMVEX////bOyE4DXX8oSHe1PX8bSb8cyX539r+9/b++/v7niH++fjcQCf9/P7+/fz49v3dQiHvqZ32jiHjVCHdRi3h2PbscSHfSCHhTyH42NLv6vrgV0Hjalb65eH76+jeSzPfUTrxtavhXUj1x7/p4vjsmo3kbFnnfWz4lCHudSHxfyHlcl9BGHv18vzq5Pj3z8nwsqjqaCFpSZfWzeLph3fqkIHupZnslIb0iCHzvbWXgbdcOY5xUp3md2a+sNLf2OmnlMLmXyGMc69QKobIvdl9YaVfPJCzo8uhjb5KI4HzYCRXkrmHAAAMJUlEQVR4nO1de1/aShMWsS8Bwk1ABZGbCN6xFS/YWrU97an9/h/oENHMzO5sskkWE39vnr9Ks8nsZGaemb3FtbUUKVKkSJEiRYoUKVKkAJQqZ+1Rs7mxsdEcnbcrlVLcHQqHyvmLDoDmqP3xVCmdjTYYNEdnH0uXNqfFqy6VuDunD94aLs4/iColD3N8JKOUvM2xRDvuXvqj0vRXY4FR0mO+oqWGo0ncPfWGpj0Sr0lJ1GORA53EsUjxo6Z4LclxMhJeOs5+pUpbUOUsvo76oC2oIV4vUVWaSQ146lhsXUW5OalhgjvZVPgNzZbJdC7MvB5egzVpvmP39IEN4lWDYE2SyFzYIJ4ug+MkiVFyrt09TApxEVf3etzL2LuTuXQF9c6XVs+8fKtb6zgiZvuGusxibzfzipklXKp4dU6Al9I5V8RV0VzHBUwbGRdjQQwKYRrp1vXkZDaneiOTCOG0j0RMVqGDg+Iwg3BVJhfhJZMI6V4tW+/Oi3xrar7uLhZxQEUYwwEWkmns4Wsl3iDQMfsKNz/n1V6bURG5lehh9YiUTA1fhBDBSc7qoPbX6EKbV4QaRBBhDC2bShliw5+xPavh9r0i15wkd0nEShShnrXAFF2EV3wO/1nukPYXcKXEK3IjSLCJ+xpCWTD7Ihb9FClSZ0TvF4XUmrK9IMIUpqKQTIdVBNGQJbxf1J5VZF8WkTevyJUkpYGSA6tIkbq8ryIzSUSva1wPayhJwYbnFemT5mO4wrsWI0KuhaJiz5al9MDwLJ+WT0hzRA4sW3cZEbvGfUviLAct9zLPpwPctSHqE9tc5KwXGM+JQCjbVfefkLBQzYhuKmOvx17CGdACretwF06jJoA46wjEgNcjp8dloDV5611vgB83YtgaibgFESeGFbl2n1zNboFE4C3oGh2IzxuOKvaQ0k+TURucd7sAImxxvBARkKOfsoegCPCWuoyfzgf7OVrHso2Bs+rZTRBxsWYSyH+Pslkw/NCtn8IOrNz/zGWwiG33h1neQpy1mc0euz9Qod1UmURGm1Ma8cJhNnvEiYgOCzLbTjabPQTeAsOHmnyAka4FpdwTFTHwelZAoPL6eCEluwO+BY02mO6xaHMq56iIAogwyVswrqgeOoog3oKciEyirQg4oSjis/vbNlhvAWfVC46UAigCvFUJrggYJA+etfMiAlGjuZyI6qyt7AuAtzpArK5JfFyrxBikBf0+lkQY4y3EWYdLKYhUUMJ6C2I//m3L7aDOqhZEEcZq+SLyrKUQnLCQ4StapOVqgvQo44QriTBVy3dh0uzV7NkCJKw+MnypPRqdC1Nu1sXN7GAqTOdVztpnZNqIJNylCCBgU3MQF/BuNl+lIMMj3mJgvbrlcOrp6FDKvTkvoUZDOVEkFOF9eU0+dd0CyvaaR7DA5jtZVwTrvhGACGXLlZLlankJRTxE9FAYVfDHnIh7I4rgCh7A1vIikFMugkk9uw60WC1wImzlnUEwdp9XR4ogUlE6TRludaAmH5kWBREmannkv0dIClvLCxAm3DqKZmt7GVYEisO+gXl5WsED2FpeeAdED7WDoFmHQywCqNGOzltFxFlYiE6hLSiSUTUDEfWgIvQhVvBgeLaWD6NITk64kojovAXEUyVmJ4W2wvCaiogVPCsicr0FhLJToFL8eUtPkfJQR0RU3pIreADKiTyp6CmCEu6RKAJ8qxNxjVeu4AGQsHp8TtRTRK7gAcBb/Wi+xVTwgFvoIk8qWork5Qqe9a1otXwXUppkdlJos76lpUhXkXCXImC44FHSaWAOZt+UpOB6i13s01IELZgyIp7gaqScCISyLfmvYn4roCL5nrcIuDvKWjWaxpQ4ywHwFrvdQkcRedaBwkxORAM35m3hhNXgeEtHEX6QwInoRVAExkUyZznw4S0dRfhBgrYIPZSBUD6zUrKIt5gxuYYiXbjKOi+mxvC8hQjlllcE5USGtzQUUQ0SON8KvQ8CFUFyzl1iE94Xk7D8FRGm+TkceorQgled9WZ4SFgMqfgrkvPKhq8igLfC7kQbgEGkOosxvFwM+SsSTISipPPFBMyu8CyfQttfkbGGiFsvETqwfDnLARh+nBOBkt0LpAb7to4IcN+TUHMQaFLq6WmnmokF1e36E7yrULV8vuPx/Lgw9e+3hK60CywBCFNvybvAkoAQvHUfd59ZBK+39vwfGgcmQXlL3IGbFNgnwZwLb1FPGO6DlI6DuHvrhQDJZJ5cezgY6tpErCwyvc7B/t7qTnN4odu6mAzF9yoe+VDAoptcM51pd0XHHzRh7R0IyflEZy+ERfe4jucr2AwdGNY1fbs6ZTA5YWCv5uBDCJATHDqrDDlsxWErXqfCyF9jTU78woQsxO6u4tRDeGAytf3qYDSIzgwN71SNjDl+yT4mgeFtpu+5ySQWXKAt6t7lI0oh9kpPNIZDHjm+97AXHRKZJIF2RaBalp1tfgPa/0UrmrPv357XDeGns1Gwffr285nuEi6d0sY/Lsl1NJHgtd0ITcnhnUWVu5+mtFjgj/PIO/fnHe3CH6n91+/oMpraaXi4DKJqFOntLwbVWD91dtiVnslPZBDG8KePaLPngO2iCJjsRRtgzkyaY339m/PMf9yfX2gPLtl7kNXKkLDVvIXm+FG++WVUj/VH55lKz3pk7zlF3gWloDpIgHyR//HvKDwunYf+pj8BCi8+5Y6ZqOeGYAYIlptLX83qseQs+hPQVt32neukUhEoAWBj/cOp6tnh8K/z0B/uz0fagzvVbb/cJrBA21cqAiQNKxH/qB4dDqdOVqgAZ9FN22rz/3TbQCA3lIrAUGTm/t93s4p8cVzp0rXyb5oNPcwPjYCR4lTkhaQg6f2gHfhXfWNIRVbmWg/OM3/SnwA1sTy7bWD1SL2JdsAw26XRYP/98kj6E/CgvvGb2wjmctU7CIDZILGXjOb1kJz1eqPQSTX9QkJE+2xNBsmp40oV14FO9bLh241LQD2oPnyFShS0p8hgyfiS/h40K3iMP9AKxrDkux4EqCBDS9qXxkYiPhU8X2c5+IX6CEMrj8ktNEBE46pLU2ESvIJf4htqiBbSPCZS0OoOVvfBkHeFqeAX+IM8EJ2O81qGQ83Ibp/S919fDdDwo/OsYJ71/OWO5Bo0I6QOkTUyG7SKL3lEB/oshOfsITpa00jetNZaGe2K6njP5iKNx0mbaKTfxfI5d4VX1++TNrPVQnr47RQinz+5SpZNcnil2XfBnay7aa0MvRdIz3b9F0jId2+GiYl4iyy/NTR21wibaa7Mf70nBPIteoDuRuemHP3yTX8WvyqtDl3Y7esFLzkGuYB9X9vPxbSya3Vb8xvx40hD3VfLficoQdDeflaUv6WVIPSCrEAdMF+ISgj6gbYDlhO7PagfdKW5NUyiUewQxUYxgSHfC7PLdFFrzpJllMZ16IyWGydnz2w/Uglb3rtIxD5mezKNXl/karPxbj8mFrMb/eHJ1dzUeKJcLFovmIiCdj4Zwl9x832vtRRZzK+kOJoL2+sy1b9G9KgLj83cr+Zbv4DuiSiyHl0NyRyN69XXqNZAJOVt43q803iuJX1zNJp77QhPs2fvNcK2pOo4QszLbjV9x6GPtMU5dMxLUT5ZdZRTlE/ESPn76X/B8Ukyx7vP1Fo10Sh15QE8JY62hWd04pi1mYoxX2XPcatx+Fl4QEP6QwfvA0v6QG9deZiQ00M0R2Y/tl3Gc/G4zI7icLIM9AHZV0zi3GXcFWvj6paeUQ5FtmrEvHm9WBM6pOdeTJTHvnk9J+X5Yz9VEhPlFNaNmFKevDXZFM3RiC/KCcqDIDFf2BKTYKxRTiF/HV8Z8wUxypNzRMWBVRPdq85/wuFYNEcnlwy3ciHFfJWJ+YIY5XYiopzCkib0pI8zSVHeS0iUU+SlPL9NYl6KcjvQIc/3hCUd8EUxn/Aop8hfSLX9W8xLUZ6cdVYW0iT+MuYLT6I5Vvh3w8xAru0Xef5WjPK+9+d/kwE55j9/mCinsKQ5PAFm/+7DCmENvKa8Ex7lFPIcHkR53H0LBjnmP1CUU0gx7+CDRLkAOeZN/gWOd0S+Rlcgxx8pyilaaJLFniWx0tUFxHzv40U5xf4y5u/j3/QVFfnabqaTyAFUihQpUqRIkSJFiv83/AeTgiAu6/6YxgAAAABJRU5ErkJggg==;" parent="1" vertex="1">
          <mxGeometry x="780" y="460" width="38" height="38" as="geometry" />
        </mxCell>
        <mxCell id="ka2fryHVlHf1zdvt1wW3-425" style="rounded=0;orthogonalLoop=1;jettySize=auto;html=1;entryX=1;entryY=0.5;entryDx=0;entryDy=0;dashed=1;exitX=1;exitY=0.5;exitDx=0;exitDy=0;edgeStyle=orthogonalEdgeStyle;curved=1;" parent="1" source="ka2fryHVlHf1zdvt1wW3-416" target="ka2fryHVlHf1zdvt1wW3-420" edge="1">
          <mxGeometry relative="1" as="geometry">
            <mxPoint x="860" y="140" as="sourcePoint" />
            <mxPoint x="838" y="479.94" as="targetPoint" />
            <Array as="points">
              <mxPoint x="980" y="134" />
              <mxPoint x="980" y="479" />
            </Array>
          </mxGeometry>
        </mxCell>
        <mxCell id="ka2fryHVlHf1zdvt1wW3-426" value="TRIGGER" style="edgeLabel;html=1;align=center;verticalAlign=middle;resizable=0;points=[];" parent="ka2fryHVlHf1zdvt1wW3-425" vertex="1" connectable="0">
          <mxGeometry x="-0.0168" relative="1" as="geometry">
            <mxPoint as="offset" />
          </mxGeometry>
        </mxCell>
        <mxCell id="ka2fryHVlHf1zdvt1wW3-427" value="" style="shape=umlActor;verticalLabelPosition=bottom;verticalAlign=top;html=1;outlineConnect=0;" parent="1" vertex="1">
          <mxGeometry x="1000" y="140" width="25" height="40" as="geometry" />
        </mxCell>
        <mxCell id="ka2fryHVlHf1zdvt1wW3-429" value="" style="shape=umlActor;verticalLabelPosition=bottom;verticalAlign=top;html=1;outlineConnect=0;" parent="1" vertex="1">
          <mxGeometry x="717" y="140" width="25" height="40" as="geometry" />
        </mxCell>
      </root>
    </mxGraphModel>
  </diagram>
  <diagram id="OnYiE91IHKTmuiJ7vqjA" name="Page-2">
    <mxGraphModel dx="1364" dy="775" grid="1" gridSize="10" guides="1" tooltips="1" connect="1" arrows="1" fold="1" page="1" pageScale="1" pageWidth="827" pageHeight="1169" math="0" shadow="0">
      <root>
        <mxCell id="0" />
        <mxCell id="1" parent="0" />
      </root>
    </mxGraphModel>
  </diagram>
  <diagram name="gitflow" id="JoBpa1KK9X0rL6yTIGFE">
    <mxGraphModel dx="1364" dy="1875" grid="1" gridSize="10" guides="1" tooltips="1" connect="1" arrows="1" fold="1" page="1" pageScale="1" pageWidth="850" pageHeight="1100" background="none" math="0" shadow="0">
      <root>
        <mxCell id="0" />
        <mxCell id="1" parent="0" />
        <mxCell id="3" value="" style="endArrow=none;dashed=1;html=1;fillColor=#dae8fc;strokeColor=#6c8ebf;exitX=1;exitY=0.5;exitDx=0;exitDy=0;entryX=0;entryY=0.5;entryDx=0;entryDy=0;" parent="1" source="6" target="7" edge="1">
          <mxGeometry width="50" height="50" relative="1" as="geometry">
            <mxPoint x="740" y="70" as="sourcePoint" />
            <mxPoint x="720" y="70" as="targetPoint" />
          </mxGeometry>
        </mxCell>
        <mxCell id="4" value="1.0.0" style="ellipse;whiteSpace=wrap;html=1;aspect=fixed;fillColor=#dae8fc;strokeColor=#6c8ebf;fontStyle=1;labelPosition=center;verticalLabelPosition=top;align=center;verticalAlign=bottom;fontColor=#0066CC;" parent="1" vertex="1">
          <mxGeometry x="440" y="60" width="20" height="20" as="geometry" />
        </mxCell>
        <mxCell id="7" value="release-myfx" style="text;html=1;strokeColor=#6c8ebf;fillColor=#dae8fc;align=center;verticalAlign=middle;whiteSpace=wrap;rounded=0;" parent="1" vertex="1">
          <mxGeometry x="1150" y="60" width="90" height="20" as="geometry" />
        </mxCell>
        <mxCell id="23" style="edgeStyle=orthogonalEdgeStyle;rounded=1;orthogonalLoop=1;jettySize=auto;html=1;dashed=1;endArrow=none;endFill=0;fillColor=#d5e8d4;strokeColor=#82b366;" parent="1" source="0Cqs4zG60hxrjccoM_Yq-194" target="24" edge="1">
          <mxGeometry relative="1" as="geometry">
            <mxPoint x="700" y="180" as="targetPoint" />
            <mxPoint x="970" y="180" as="sourcePoint" />
          </mxGeometry>
        </mxCell>
        <mxCell id="24" value="main" style="text;html=1;strokeColor=#82b366;fillColor=#d5e8d4;align=center;verticalAlign=middle;whiteSpace=wrap;rounded=0;strokeWidth=2;" parent="1" vertex="1">
          <mxGeometry x="1150" y="170" width="90" height="20" as="geometry" />
        </mxCell>
        <mxCell id="114" style="edgeStyle=orthogonalEdgeStyle;rounded=1;orthogonalLoop=1;jettySize=auto;html=1;dashed=1;endArrow=none;endFill=0;fontSize=12;fontColor=#FFB570;fillColor=#e1d5e7;strokeColor=#9673a6;entryX=0;entryY=0.5;entryDx=0;entryDy=0;" parent="1" source="27" target="65" edge="1">
          <mxGeometry relative="1" as="geometry">
            <Array as="points">
              <mxPoint x="280" y="240" />
            </Array>
          </mxGeometry>
        </mxCell>
        <mxCell id="27" value="" style="ellipse;whiteSpace=wrap;html=1;aspect=fixed;fillColor=#d5e8d4;strokeColor=#82b366;" parent="1" vertex="1">
          <mxGeometry x="269.97" y="170" width="20" height="20" as="geometry" />
        </mxCell>
        <mxCell id="44" style="edgeStyle=orthogonalEdgeStyle;rounded=1;orthogonalLoop=1;jettySize=auto;html=1;dashed=1;endArrow=none;endFill=0;fontSize=10;fontColor=#FFB570;fillColor=#ffe6cc;strokeColor=#d79b00;" parent="1" source="29" target="39" edge="1">
          <mxGeometry relative="1" as="geometry">
            <Array as="points">
              <mxPoint x="400" y="130" />
            </Array>
          </mxGeometry>
        </mxCell>
        <mxCell id="29" value="" style="ellipse;whiteSpace=wrap;html=1;aspect=fixed;fillColor=#d5e8d4;strokeColor=#82b366;" parent="1" vertex="1">
          <mxGeometry x="389.97" y="170" width="20" height="20" as="geometry" />
        </mxCell>
        <mxCell id="30" style="edgeStyle=orthogonalEdgeStyle;rounded=1;orthogonalLoop=1;jettySize=auto;html=1;dashed=1;endArrow=none;endFill=0;fillColor=#d5e8d4;strokeColor=#82b366;" parent="1" source="27" target="29" edge="1">
          <mxGeometry relative="1" as="geometry">
            <mxPoint x="680" y="180" as="targetPoint" />
            <mxPoint x="370" y="180" as="sourcePoint" />
          </mxGeometry>
        </mxCell>
        <mxCell id="6" value="1.0.1" style="ellipse;whiteSpace=wrap;html=1;aspect=fixed;fillColor=#dae8fc;strokeColor=#6c8ebf;fontStyle=1;labelPosition=center;verticalLabelPosition=top;align=center;verticalAlign=bottom;fontColor=#0066CC;" parent="1" vertex="1">
          <mxGeometry x="640" y="60" width="20" height="20" as="geometry" />
        </mxCell>
        <mxCell id="35" value="" style="endArrow=none;dashed=1;html=1;fillColor=#dae8fc;strokeColor=#6c8ebf;" parent="1" source="4" target="6" edge="1">
          <mxGeometry width="50" height="50" relative="1" as="geometry">
            <mxPoint x="49.9999999999917" y="70" as="sourcePoint" />
            <mxPoint x="690" y="70" as="targetPoint" />
            <Array as="points" />
          </mxGeometry>
        </mxCell>
        <mxCell id="43" style="edgeStyle=orthogonalEdgeStyle;rounded=1;orthogonalLoop=1;jettySize=auto;html=1;dashed=1;endArrow=none;endFill=0;fontSize=10;fontColor=#FFB570;fillColor=#ffe6cc;strokeColor=#d79b00;exitX=1;exitY=0.5;exitDx=0;exitDy=0;" parent="1" source="39" target="6" edge="1">
          <mxGeometry relative="1" as="geometry">
            <Array as="points">
              <mxPoint x="630" y="130" />
              <mxPoint x="630" y="70" />
            </Array>
          </mxGeometry>
        </mxCell>
        <mxCell id="162" style="edgeStyle=orthogonalEdgeStyle;rounded=1;orthogonalLoop=1;jettySize=auto;html=1;dashed=1;endArrow=none;endFill=0;fontSize=12;fontColor=#FFB570;entryX=0;entryY=0.5;entryDx=0;entryDy=0;fillColor=#ffe6cc;strokeColor=#d79b00;" parent="1" source="36" target="159" edge="1">
          <mxGeometry relative="1" as="geometry">
            <Array as="points">
              <mxPoint x="530" y="150" />
            </Array>
          </mxGeometry>
        </mxCell>
        <mxCell id="36" value="" style="ellipse;whiteSpace=wrap;html=1;aspect=fixed;fontSize=10;labelPosition=center;verticalLabelPosition=top;align=center;verticalAlign=bottom;fillColor=#ffe6cc;strokeColor=#d79b00;fontColor=#FFB570;" parent="1" vertex="1">
          <mxGeometry x="520" y="120" width="20" height="20" as="geometry" />
        </mxCell>
        <mxCell id="42" value="stable-myfx" style="text;html=1;strokeColor=#d79b00;fillColor=#ffe6cc;align=center;verticalAlign=middle;whiteSpace=wrap;rounded=0;fontSize=12;" parent="1" vertex="1">
          <mxGeometry x="1150" y="120" width="90" height="20" as="geometry" />
        </mxCell>
        <mxCell id="99" style="edgeStyle=orthogonalEdgeStyle;rounded=1;orthogonalLoop=1;jettySize=auto;html=1;dashed=1;endArrow=none;endFill=0;fontSize=12;fontColor=#FFB570;fillColor=#e1d5e7;strokeColor=#9673a6;startArrow=none;" parent="1" target="71" edge="1">
          <mxGeometry relative="1" as="geometry">
            <mxPoint x="339" y="240" as="sourcePoint" />
          </mxGeometry>
        </mxCell>
        <mxCell id="dx6nrJI4djwBMw3k_C7e-196" style="edgeStyle=orthogonalEdgeStyle;rounded=1;orthogonalLoop=1;jettySize=auto;html=1;exitX=1;exitY=0.5;exitDx=0;exitDy=0;entryX=0;entryY=0.5;entryDx=0;entryDy=0;endArrow=none;fontSize=12;strokeColor=#9673a6;fontColor=#FFB570;dashed=1;endFill=0;fillColor=#e1d5e7;" edge="1" parent="1" source="65" target="71">
          <mxGeometry relative="1" as="geometry" />
        </mxCell>
        <mxCell id="65" value="" style="ellipse;whiteSpace=wrap;html=1;aspect=fixed;fontSize=10;fillColor=#e1d5e7;strokeColor=#9673a6;" parent="1" vertex="1">
          <mxGeometry x="289.97" y="230" width="20" height="20" as="geometry" />
        </mxCell>
        <mxCell id="100" style="edgeStyle=orthogonalEdgeStyle;rounded=1;orthogonalLoop=1;jettySize=auto;html=1;dashed=1;endArrow=none;endFill=0;fontSize=12;fontColor=#FFB570;fillColor=#e1d5e7;strokeColor=#9673a6;entryX=0;entryY=0.5;entryDx=0;entryDy=0;" parent="1" source="71" target="29" edge="1">
          <mxGeometry relative="1" as="geometry">
            <mxPoint x="400" y="190" as="targetPoint" />
            <Array as="points">
              <mxPoint x="380" y="240" />
              <mxPoint x="380" y="180" />
            </Array>
          </mxGeometry>
        </mxCell>
        <mxCell id="71" value="" style="ellipse;whiteSpace=wrap;html=1;aspect=fixed;fontSize=10;fillColor=#e1d5e7;strokeColor=#9673a6;" parent="1" vertex="1">
          <mxGeometry x="345.97" y="230" width="20" height="20" as="geometry" />
        </mxCell>
        <mxCell id="82" style="edgeStyle=orthogonalEdgeStyle;rounded=1;orthogonalLoop=1;jettySize=auto;html=1;dashed=1;endArrow=none;endFill=0;fillColor=#d5e8d4;strokeColor=#82b366;" parent="1" source="29" target="92" edge="1">
          <mxGeometry relative="1" as="geometry">
            <mxPoint x="500" y="160" as="targetPoint" />
            <mxPoint x="460" y="160" as="sourcePoint" />
          </mxGeometry>
        </mxCell>
        <mxCell id="85" value="feat/yyy" style="text;html=1;strokeColor=#9673a6;fillColor=#e1d5e7;align=center;verticalAlign=middle;whiteSpace=wrap;rounded=0;" parent="1" vertex="1">
          <mxGeometry x="1150" y="200" width="90" height="20" as="geometry" />
        </mxCell>
        <mxCell id="86" value="feat/xxx" style="text;html=1;strokeColor=#9673a6;fillColor=#e1d5e7;align=center;verticalAlign=middle;whiteSpace=wrap;rounded=0;" parent="1" vertex="1">
          <mxGeometry x="1150" y="230" width="90" height="20" as="geometry" />
        </mxCell>
        <mxCell id="164" style="edgeStyle=orthogonalEdgeStyle;rounded=1;orthogonalLoop=1;jettySize=auto;html=1;dashed=1;endArrow=none;endFill=0;fontSize=12;fontColor=#FFB570;fillColor=#ffe6cc;strokeColor=#d79b00;" parent="1" source="95" target="103" edge="1">
          <mxGeometry relative="1" as="geometry" />
        </mxCell>
        <mxCell id="95" value="" style="ellipse;whiteSpace=wrap;html=1;aspect=fixed;fontSize=10;fillColor=#ffe6cc;strokeColor=#d79b00;" parent="1" vertex="1">
          <mxGeometry x="434.66" y="140" width="20" height="20" as="geometry" />
        </mxCell>
        <mxCell id="108" style="edgeStyle=orthogonalEdgeStyle;rounded=1;orthogonalLoop=1;jettySize=auto;html=1;dashed=1;endArrow=none;endFill=0;fontSize=12;fontColor=#FFB570;fillColor=#ffe6cc;strokeColor=#d79b00;entryX=0;entryY=0.5;entryDx=0;entryDy=0;" parent="1" source="103" target="36" edge="1">
          <mxGeometry relative="1" as="geometry">
            <mxPoint x="490" y="100" as="targetPoint" />
            <Array as="points">
              <mxPoint x="510" y="150" />
              <mxPoint x="510" y="130" />
            </Array>
          </mxGeometry>
        </mxCell>
        <mxCell id="103" value="" style="ellipse;whiteSpace=wrap;html=1;aspect=fixed;fontSize=10;fillColor=#ffe6cc;strokeColor=#d79b00;" parent="1" vertex="1">
          <mxGeometry x="490" y="140" width="20" height="20" as="geometry" />
        </mxCell>
        <mxCell id="107" style="edgeStyle=orthogonalEdgeStyle;rounded=1;orthogonalLoop=1;jettySize=auto;html=1;dashed=1;endArrow=none;endFill=0;fontSize=12;fontColor=#FFB570;fillColor=#ffe6cc;strokeColor=#d79b00;" parent="1" source="39" target="95" edge="1">
          <mxGeometry relative="1" as="geometry">
            <mxPoint x="490" y="130" as="sourcePoint" />
            <mxPoint x="550" y="250" as="targetPoint" />
            <Array as="points">
              <mxPoint x="425" y="150" />
            </Array>
          </mxGeometry>
        </mxCell>
        <mxCell id="166" style="edgeStyle=orthogonalEdgeStyle;rounded=1;orthogonalLoop=1;jettySize=auto;html=1;dashed=1;endArrow=none;endFill=0;fontSize=12;fontColor=#FFB570;fillColor=#e1d5e7;strokeColor=#9673a6;" parent="1" source="92" target="165" edge="1">
          <mxGeometry relative="1" as="geometry">
            <Array as="points">
              <mxPoint x="675" y="210" />
            </Array>
          </mxGeometry>
        </mxCell>
        <mxCell id="169" style="edgeStyle=orthogonalEdgeStyle;rounded=1;orthogonalLoop=1;jettySize=auto;html=1;dashed=1;endArrow=none;endFill=0;fontSize=12;fontColor=#FFB570;fillColor=#e1d5e7;strokeColor=#9673a6;" parent="1" source="92" target="168" edge="1">
          <mxGeometry relative="1" as="geometry">
            <Array as="points">
              <mxPoint x="675" y="240" />
            </Array>
          </mxGeometry>
        </mxCell>
        <mxCell id="92" value="" style="ellipse;whiteSpace=wrap;html=1;aspect=fixed;fontSize=10;fillColor=#d5e8d4;strokeColor=#82b366;" parent="1" vertex="1">
          <mxGeometry x="664.97" y="170" width="20" height="20" as="geometry" />
        </mxCell>
        <mxCell id="125" value="fix/xxx" style="text;html=1;strokeColor=#d79b00;fillColor=#ffe6cc;align=center;verticalAlign=middle;whiteSpace=wrap;rounded=0;fontSize=12;" parent="1" vertex="1">
          <mxGeometry x="1150" y="140" width="90" height="20" as="geometry" />
        </mxCell>
        <mxCell id="0Cqs4zG60hxrjccoM_Yq-190" style="edgeStyle=orthogonalEdgeStyle;rounded=0;orthogonalLoop=1;jettySize=auto;html=1;entryX=0.5;entryY=1;entryDx=0;entryDy=0;curved=1;fillColor=#d5e8d4;strokeColor=#82b366;dashed=1;endArrow=none;endFill=0;" parent="1" target="0Cqs4zG60hxrjccoM_Yq-187" edge="1">
          <mxGeometry relative="1" as="geometry">
            <mxPoint x="770" y="180" as="sourcePoint" />
          </mxGeometry>
        </mxCell>
        <mxCell id="78" value="2.0.0" style="ellipse;whiteSpace=wrap;html=1;aspect=fixed;fontSize=12;fillColor=#d5e8d4;strokeColor=#82b366;labelPosition=center;verticalLabelPosition=top;align=center;verticalAlign=bottom;labelBackgroundColor=none;labelBorderColor=none;fontColor=#82B366;" parent="1" vertex="1">
          <mxGeometry x="750" y="170" width="20" height="20" as="geometry" />
        </mxCell>
        <mxCell id="146" style="edgeStyle=orthogonalEdgeStyle;rounded=1;orthogonalLoop=1;jettySize=auto;html=1;dashed=1;endArrow=none;endFill=0;fillColor=#d5e8d4;strokeColor=#82b366;" parent="1" source="92" target="78" edge="1">
          <mxGeometry relative="1" as="geometry">
            <mxPoint x="760" y="160" as="targetPoint" />
            <mxPoint x="670" y="160" as="sourcePoint" />
            <Array as="points" />
          </mxGeometry>
        </mxCell>
        <mxCell id="163" style="edgeStyle=orthogonalEdgeStyle;rounded=1;orthogonalLoop=1;jettySize=auto;html=1;entryX=0;entryY=0.5;entryDx=0;entryDy=0;dashed=1;endArrow=none;endFill=0;fontSize=12;fontColor=#FFB570;fillColor=#ffe6cc;strokeColor=#d79b00;" parent="1" source="159" target="160" edge="1">
          <mxGeometry relative="1" as="geometry" />
        </mxCell>
        <mxCell id="159" value="" style="ellipse;whiteSpace=wrap;html=1;aspect=fixed;fontSize=10;fillColor=#ffe6cc;strokeColor=#d79b00;" parent="1" vertex="1">
          <mxGeometry x="550" y="140" width="20" height="20" as="geometry" />
        </mxCell>
        <mxCell id="160" value="1.0.1" style="ellipse;whiteSpace=wrap;html=1;aspect=fixed;fontSize=10;fillColor=#ffe6cc;strokeColor=#d79b00;labelPosition=center;verticalLabelPosition=top;align=center;verticalAlign=bottom;fontColor=#FFB570;" parent="1" vertex="1">
          <mxGeometry x="600" y="120" width="20" height="20" as="geometry" />
        </mxCell>
        <mxCell id="0Cqs4zG60hxrjccoM_Yq-203" style="edgeStyle=orthogonalEdgeStyle;shape=connector;rounded=1;orthogonalLoop=1;jettySize=auto;html=1;exitX=1;exitY=0.5;exitDx=0;exitDy=0;entryX=0.5;entryY=1;entryDx=0;entryDy=0;dashed=1;labelBackgroundColor=default;strokeColor=#9673a6;align=center;verticalAlign=middle;fontFamily=Helvetica;fontSize=12;fontColor=#FFB570;endArrow=none;endFill=0;fillColor=#e1d5e7;" parent="1" source="165" target="78" edge="1">
          <mxGeometry relative="1" as="geometry" />
        </mxCell>
        <mxCell id="165" value="" style="ellipse;whiteSpace=wrap;html=1;aspect=fixed;fontSize=12;fillColor=#e1d5e7;strokeColor=#9673a6;" parent="1" vertex="1">
          <mxGeometry x="695" y="200" width="20" height="20" as="geometry" />
        </mxCell>
        <mxCell id="0Cqs4zG60hxrjccoM_Yq-204" style="edgeStyle=orthogonalEdgeStyle;shape=connector;rounded=1;orthogonalLoop=1;jettySize=auto;html=1;exitX=1;exitY=0.5;exitDx=0;exitDy=0;dashed=1;labelBackgroundColor=default;strokeColor=#9673a6;align=center;verticalAlign=middle;fontFamily=Helvetica;fontSize=12;fontColor=#FFB570;endArrow=none;endFill=0;fillColor=#e1d5e7;" parent="1" source="168" target="0Cqs4zG60hxrjccoM_Yq-194" edge="1">
          <mxGeometry relative="1" as="geometry" />
        </mxCell>
        <mxCell id="168" value="" style="ellipse;whiteSpace=wrap;html=1;aspect=fixed;fontSize=12;fillColor=#e1d5e7;strokeColor=#9673a6;" parent="1" vertex="1">
          <mxGeometry x="695" y="230" width="20" height="20" as="geometry" />
        </mxCell>
        <mxCell id="0Cqs4zG60hxrjccoM_Yq-177" value="stable-myf3" style="text;html=1;align=center;verticalAlign=middle;resizable=0;points=[];autosize=1;strokeColor=#d79b00;fillColor=#ffe6cc;" parent="1" vertex="1">
          <mxGeometry x="299.97" y="120" width="90" height="30" as="geometry" />
        </mxCell>
        <mxCell id="0Cqs4zG60hxrjccoM_Yq-182" value="" style="endArrow=none;dashed=1;html=1;fillColor=#ffe6cc;strokeColor=#d79b00;exitX=0.5;exitY=1;exitDx=0;exitDy=0;entryX=1;entryY=0.5;entryDx=0;entryDy=0;edgeStyle=orthogonalEdgeStyle;curved=1;" parent="1" source="4" target="39" edge="1">
          <mxGeometry width="50" height="50" relative="1" as="geometry">
            <mxPoint x="445" y="80" as="sourcePoint" />
            <mxPoint x="650" y="80" as="targetPoint" />
          </mxGeometry>
        </mxCell>
        <mxCell id="39" value="1.0.0" style="ellipse;html=1;aspect=fixed;fontSize=10;labelPosition=center;verticalLabelPosition=top;align=center;verticalAlign=bottom;fillColor=#ffe6cc;strokeColor=#d79b00;fontColor=#FFB570;fontStyle=1;labelBorderColor=none;" parent="1" vertex="1">
          <mxGeometry x="414.65999999999997" y="120" width="20" height="20" as="geometry" />
        </mxCell>
        <mxCell id="0Cqs4zG60hxrjccoM_Yq-185" value="release" style="text;html=1;strokeColor=#6c8ebf;fillColor=#dae8fc;align=center;verticalAlign=middle;whiteSpace=wrap;rounded=0;" parent="1" vertex="1">
          <mxGeometry x="1150" y="87" width="90" height="20" as="geometry" />
        </mxCell>
        <mxCell id="0Cqs4zG60hxrjccoM_Yq-186" value="" style="endArrow=none;dashed=1;html=1;fillColor=#dae8fc;strokeColor=#6c8ebf;exitX=1;exitY=0.5;exitDx=0;exitDy=0;" parent="1" source="0Cqs4zG60hxrjccoM_Yq-199" edge="1">
          <mxGeometry width="50" height="50" relative="1" as="geometry">
            <mxPoint x="664.97" y="96.58" as="sourcePoint" />
            <mxPoint x="1150" y="97" as="targetPoint" />
          </mxGeometry>
        </mxCell>
        <mxCell id="0Cqs4zG60hxrjccoM_Yq-187" value="2.0.0" style="ellipse;whiteSpace=wrap;html=1;aspect=fixed;fillColor=#dae8fc;strokeColor=#6c8ebf;fontStyle=1;labelPosition=center;verticalLabelPosition=top;align=center;verticalAlign=bottom;fontColor=#0066CC;" parent="1" vertex="1">
          <mxGeometry x="780" y="87" width="20" height="20" as="geometry" />
        </mxCell>
        <mxCell id="0Cqs4zG60hxrjccoM_Yq-195" value="" style="edgeStyle=orthogonalEdgeStyle;rounded=1;orthogonalLoop=1;jettySize=auto;html=1;dashed=1;endArrow=none;endFill=0;fillColor=#d5e8d4;strokeColor=#82b366;" parent="1" source="78" target="0Cqs4zG60hxrjccoM_Yq-194" edge="1">
          <mxGeometry relative="1" as="geometry">
            <mxPoint x="1150" y="180" as="targetPoint" />
            <mxPoint x="770" y="180" as="sourcePoint" />
          </mxGeometry>
        </mxCell>
        <mxCell id="0Cqs4zG60hxrjccoM_Yq-194" value="" style="ellipse;whiteSpace=wrap;html=1;aspect=fixed;fontSize=10;fillColor=#d5e8d4;strokeColor=#82b366;" parent="1" vertex="1">
          <mxGeometry x="880" y="170" width="20" height="20" as="geometry" />
        </mxCell>
        <mxCell id="0Cqs4zG60hxrjccoM_Yq-202" style="edgeStyle=orthogonalEdgeStyle;orthogonalLoop=1;jettySize=auto;html=1;exitX=1;exitY=0.5;exitDx=0;exitDy=0;entryX=0.5;entryY=1;entryDx=0;entryDy=0;endArrow=none;strokeColor=#82b366;fillColor=#d5e8d4;dashed=1;endFill=0;curved=1;" parent="1" source="0Cqs4zG60hxrjccoM_Yq-196" target="0Cqs4zG60hxrjccoM_Yq-199" edge="1">
          <mxGeometry relative="1" as="geometry" />
        </mxCell>
        <mxCell id="0Cqs4zG60hxrjccoM_Yq-196" value="2.1.0" style="ellipse;whiteSpace=wrap;html=1;aspect=fixed;fontSize=12;fillColor=#d5e8d4;strokeColor=#82b366;labelPosition=center;verticalLabelPosition=top;align=center;verticalAlign=bottom;labelBackgroundColor=none;labelBorderColor=none;fontColor=#82B366;" parent="1" vertex="1">
          <mxGeometry x="1030" y="170" width="20" height="20" as="geometry" />
        </mxCell>
        <mxCell id="0Cqs4zG60hxrjccoM_Yq-200" value="" style="endArrow=none;dashed=1;html=1;fillColor=#dae8fc;strokeColor=#6c8ebf;exitX=1;exitY=0.5;exitDx=0;exitDy=0;" parent="1" source="0Cqs4zG60hxrjccoM_Yq-187" target="0Cqs4zG60hxrjccoM_Yq-199" edge="1">
          <mxGeometry width="50" height="50" relative="1" as="geometry">
            <mxPoint x="800" y="97" as="sourcePoint" />
            <mxPoint x="1154.97" y="96.58" as="targetPoint" />
          </mxGeometry>
        </mxCell>
        <mxCell id="0Cqs4zG60hxrjccoM_Yq-199" value="2.1.0" style="ellipse;whiteSpace=wrap;html=1;aspect=fixed;fillColor=#dae8fc;strokeColor=#6c8ebf;fontStyle=1;labelPosition=center;verticalLabelPosition=top;align=center;verticalAlign=bottom;fontColor=#0066CC;" parent="1" vertex="1">
          <mxGeometry x="1070" y="87" width="20" height="20" as="geometry" />
        </mxCell>
        <mxCell id="0Cqs4zG60hxrjccoM_Yq-205" value="release-myf3" style="text;html=1;align=center;verticalAlign=middle;resizable=0;points=[];autosize=1;strokeColor=#6c8ebf;fillColor=#dae8fc;" parent="1" vertex="1">
          <mxGeometry x="324.66" y="40" width="90" height="30" as="geometry" />
        </mxCell>
        <mxCell id="0Cqs4zG60hxrjccoM_Yq-209" value="&lt;b&gt;Components projects&lt;/b&gt;" style="text;html=1;strokeColor=#666666;fillColor=#f5f5f5;align=center;verticalAlign=middle;whiteSpace=wrap;rounded=0;fontSize=12;fontFamily=Helvetica;fontColor=#333333;" parent="1" vertex="1">
          <mxGeometry x="70" y="80" width="106.94" height="50" as="geometry" />
        </mxCell>
        <mxCell id="ka2fryHVlHf1zdvt1wW3-366" value="" style="endArrow=none;dashed=1;html=1;fillColor=#dae8fc;strokeColor=#6c8ebf;entryX=0;entryY=0.5;entryDx=0;entryDy=0;startArrow=none;" parent="1" source="qgYu-cR_Me6EohLr5Clw-227" target="ka2fryHVlHf1zdvt1wW3-368" edge="1">
          <mxGeometry width="50" height="50" relative="1" as="geometry">
            <mxPoint x="660" y="410" as="sourcePoint" />
            <mxPoint x="700" y="410" as="targetPoint" />
          </mxGeometry>
        </mxCell>
        <mxCell id="ka2fryHVlHf1zdvt1wW3-367" value="" style="ellipse;whiteSpace=wrap;html=1;aspect=fixed;fillColor=#dae8fc;strokeColor=#6c8ebf;fontStyle=1;labelPosition=center;verticalLabelPosition=top;align=center;verticalAlign=bottom;fontColor=#0066CC;" parent="1" vertex="1">
          <mxGeometry x="420" y="400" width="20" height="20" as="geometry" />
        </mxCell>
        <mxCell id="ka2fryHVlHf1zdvt1wW3-368" value="release-myfx" style="text;html=1;strokeColor=#6c8ebf;fillColor=#dae8fc;align=center;verticalAlign=middle;whiteSpace=wrap;rounded=0;" parent="1" vertex="1">
          <mxGeometry x="1103" y="400" width="90" height="20" as="geometry" />
        </mxCell>
        <mxCell id="ka2fryHVlHf1zdvt1wW3-369" style="edgeStyle=orthogonalEdgeStyle;rounded=1;orthogonalLoop=1;jettySize=auto;html=1;dashed=1;endArrow=none;endFill=0;fillColor=#d5e8d4;strokeColor=#82b366;" parent="1" source="ka2fryHVlHf1zdvt1wW3-391" target="ka2fryHVlHf1zdvt1wW3-370" edge="1">
          <mxGeometry relative="1" as="geometry">
            <mxPoint x="680" y="520" as="targetPoint" />
            <mxPoint x="950" y="520" as="sourcePoint" />
          </mxGeometry>
        </mxCell>
        <mxCell id="ka2fryHVlHf1zdvt1wW3-370" value="main" style="text;html=1;strokeColor=#82b366;fillColor=#d5e8d4;align=center;verticalAlign=middle;whiteSpace=wrap;rounded=0;" parent="1" vertex="1">
          <mxGeometry x="1103" y="510" width="90" height="20" as="geometry" />
        </mxCell>
        <mxCell id="ka2fryHVlHf1zdvt1wW3-371" style="edgeStyle=orthogonalEdgeStyle;rounded=1;orthogonalLoop=1;jettySize=auto;html=1;dashed=1;endArrow=none;endFill=0;fontSize=10;fontColor=#FFB570;fillColor=#ffe6cc;strokeColor=#d79b00;" parent="1" source="ka2fryHVlHf1zdvt1wW3-372" target="ka2fryHVlHf1zdvt1wW3-386" edge="1">
          <mxGeometry relative="1" as="geometry">
            <Array as="points">
              <mxPoint x="380" y="470" />
            </Array>
          </mxGeometry>
        </mxCell>
        <mxCell id="ka2fryHVlHf1zdvt1wW3-372" value="" style="ellipse;whiteSpace=wrap;html=1;aspect=fixed;fillColor=#d5e8d4;strokeColor=#82b366;" parent="1" vertex="1">
          <mxGeometry x="369.97" y="510" width="20" height="20" as="geometry" />
        </mxCell>
        <mxCell id="ka2fryHVlHf1zdvt1wW3-373" value="" style="ellipse;whiteSpace=wrap;html=1;aspect=fixed;fillColor=#dae8fc;strokeColor=#6c8ebf;fontStyle=1;labelPosition=center;verticalLabelPosition=top;align=center;verticalAlign=bottom;fontColor=#0066CC;" parent="1" vertex="1">
          <mxGeometry x="620" y="400" width="20" height="20" as="geometry" />
        </mxCell>
        <mxCell id="ka2fryHVlHf1zdvt1wW3-374" value="" style="endArrow=none;dashed=1;html=1;fillColor=#dae8fc;strokeColor=#6c8ebf;" parent="1" source="ka2fryHVlHf1zdvt1wW3-367" target="ka2fryHVlHf1zdvt1wW3-373" edge="1">
          <mxGeometry width="50" height="50" relative="1" as="geometry">
            <mxPoint x="29.9999999999917" y="410" as="sourcePoint" />
            <mxPoint x="670" y="410" as="targetPoint" />
            <Array as="points" />
          </mxGeometry>
        </mxCell>
        <mxCell id="ka2fryHVlHf1zdvt1wW3-375" style="edgeStyle=orthogonalEdgeStyle;rounded=1;orthogonalLoop=1;jettySize=auto;html=1;dashed=1;endArrow=none;endFill=0;fontSize=11;fontColor=default;fillColor=#ffe6cc;strokeColor=#d79b00;exitX=1;exitY=0.5;exitDx=0;exitDy=0;startArrow=none;" parent="1" source="ka2fryHVlHf1zdvt1wW3-383" target="ka2fryHVlHf1zdvt1wW3-373" edge="1">
          <mxGeometry relative="1" as="geometry">
            <Array as="points">
              <mxPoint x="610" y="470" />
              <mxPoint x="610" y="410" />
            </Array>
          </mxGeometry>
        </mxCell>
        <mxCell id="dx6nrJI4djwBMw3k_C7e-212" style="edgeStyle=orthogonalEdgeStyle;rounded=1;orthogonalLoop=1;jettySize=auto;html=1;exitX=0.5;exitY=0;exitDx=0;exitDy=0;entryX=0.5;entryY=1;entryDx=0;entryDy=0;endArrow=none;strokeColor=#d79b00;dashed=1;endFill=0;fillColor=#ffe6cc;startArrow=none;" edge="1" parent="1" source="ka2fryHVlHf1zdvt1wW3-376" target="dx6nrJI4djwBMw3k_C7e-211">
          <mxGeometry relative="1" as="geometry" />
        </mxCell>
        <mxCell id="dx6nrJI4djwBMw3k_C7e-214" style="edgeStyle=orthogonalEdgeStyle;shape=connector;rounded=1;orthogonalLoop=1;jettySize=auto;html=1;exitX=0;exitY=0.5;exitDx=0;exitDy=0;entryX=1;entryY=0.5;entryDx=0;entryDy=0;dashed=1;labelBackgroundColor=default;strokeColor=#d79b00;align=center;verticalAlign=middle;fontFamily=Helvetica;fontSize=11;fontColor=default;startArrow=none;endArrow=none;endFill=0;fillColor=#ffe6cc;" edge="1" parent="1" source="ka2fryHVlHf1zdvt1wW3-376" target="ka2fryHVlHf1zdvt1wW3-386">
          <mxGeometry relative="1" as="geometry" />
        </mxCell>
        <mxCell id="ka2fryHVlHf1zdvt1wW3-376" value="" style="ellipse;whiteSpace=wrap;html=1;aspect=fixed;fontSize=10;labelPosition=center;verticalLabelPosition=top;align=center;verticalAlign=bottom;fillColor=#ffe6cc;strokeColor=#d79b00;fontColor=#FFB570;" parent="1" vertex="1">
          <mxGeometry x="500" y="460" width="20" height="20" as="geometry" />
        </mxCell>
        <mxCell id="ka2fryHVlHf1zdvt1wW3-377" value="stable-myfx" style="text;html=1;strokeColor=#d79b00;fillColor=#ffe6cc;align=center;verticalAlign=middle;whiteSpace=wrap;rounded=0;fontSize=12;" parent="1" vertex="1">
          <mxGeometry x="1103" y="460" width="90" height="20" as="geometry" />
        </mxCell>
        <mxCell id="ka2fryHVlHf1zdvt1wW3-378" style="edgeStyle=orthogonalEdgeStyle;rounded=1;orthogonalLoop=1;jettySize=auto;html=1;dashed=1;endArrow=none;endFill=0;fillColor=#d5e8d4;strokeColor=#82b366;" parent="1" source="ka2fryHVlHf1zdvt1wW3-372" target="ka2fryHVlHf1zdvt1wW3-379" edge="1">
          <mxGeometry relative="1" as="geometry">
            <mxPoint x="480" y="500" as="targetPoint" />
            <mxPoint x="440" y="500" as="sourcePoint" />
          </mxGeometry>
        </mxCell>
        <mxCell id="ka2fryHVlHf1zdvt1wW3-379" value="" style="ellipse;whiteSpace=wrap;html=1;aspect=fixed;fontSize=10;fillColor=#d5e8d4;strokeColor=#82b366;" parent="1" vertex="1">
          <mxGeometry x="644.97" y="510" width="20" height="20" as="geometry" />
        </mxCell>
        <mxCell id="ka2fryHVlHf1zdvt1wW3-380" style="edgeStyle=orthogonalEdgeStyle;rounded=0;orthogonalLoop=1;jettySize=auto;html=1;entryX=0.5;entryY=1;entryDx=0;entryDy=0;curved=1;fillColor=#d5e8d4;strokeColor=#82b366;dashed=1;endArrow=none;endFill=0;" parent="1" target="ka2fryHVlHf1zdvt1wW3-389" edge="1">
          <mxGeometry relative="1" as="geometry">
            <mxPoint x="750" y="520" as="sourcePoint" />
          </mxGeometry>
        </mxCell>
        <mxCell id="ka2fryHVlHf1zdvt1wW3-381" value="" style="ellipse;whiteSpace=wrap;html=1;aspect=fixed;fontSize=12;fillColor=#d5e8d4;strokeColor=#82b366;labelPosition=center;verticalLabelPosition=top;align=center;verticalAlign=bottom;labelBackgroundColor=none;labelBorderColor=none;fontColor=#82B366;" parent="1" vertex="1">
          <mxGeometry x="730" y="510" width="20" height="20" as="geometry" />
        </mxCell>
        <mxCell id="ka2fryHVlHf1zdvt1wW3-382" style="edgeStyle=orthogonalEdgeStyle;rounded=1;orthogonalLoop=1;jettySize=auto;html=1;dashed=1;endArrow=none;endFill=0;fillColor=#d5e8d4;strokeColor=#82b366;" parent="1" source="ka2fryHVlHf1zdvt1wW3-379" target="ka2fryHVlHf1zdvt1wW3-381" edge="1">
          <mxGeometry relative="1" as="geometry">
            <mxPoint x="740" y="500" as="targetPoint" />
            <mxPoint x="650" y="500" as="sourcePoint" />
            <Array as="points" />
          </mxGeometry>
        </mxCell>
        <mxCell id="dx6nrJI4djwBMw3k_C7e-213" style="edgeStyle=orthogonalEdgeStyle;rounded=1;orthogonalLoop=1;jettySize=auto;html=1;exitX=0;exitY=0.5;exitDx=0;exitDy=0;entryX=1;entryY=0.5;entryDx=0;entryDy=0;endArrow=none;strokeColor=#d79b00;dashed=1;endFill=0;fillColor=#ffe6cc;startArrow=none;" edge="1" parent="1" source="ka2fryHVlHf1zdvt1wW3-383" target="ka2fryHVlHf1zdvt1wW3-376">
          <mxGeometry relative="1" as="geometry" />
        </mxCell>
        <mxCell id="ka2fryHVlHf1zdvt1wW3-383" value="" style="ellipse;whiteSpace=wrap;html=1;aspect=fixed;fontSize=10;fillColor=#ffe6cc;strokeColor=#d79b00;labelPosition=center;verticalLabelPosition=top;align=center;verticalAlign=bottom;fontColor=#FFB570;" parent="1" vertex="1">
          <mxGeometry x="580" y="460" width="20" height="20" as="geometry" />
        </mxCell>
        <mxCell id="ka2fryHVlHf1zdvt1wW3-384" value="stable-myf3" style="text;html=1;align=center;verticalAlign=middle;resizable=0;points=[];autosize=1;strokeColor=#d79b00;fillColor=#ffe6cc;" parent="1" vertex="1">
          <mxGeometry x="279.97" y="450" width="90" height="30" as="geometry" />
        </mxCell>
        <mxCell id="ka2fryHVlHf1zdvt1wW3-385" value="" style="endArrow=none;dashed=1;html=1;fillColor=#ffe6cc;strokeColor=#d79b00;exitX=0.5;exitY=1;exitDx=0;exitDy=0;entryX=1;entryY=0.5;entryDx=0;entryDy=0;edgeStyle=orthogonalEdgeStyle;curved=1;" parent="1" source="ka2fryHVlHf1zdvt1wW3-367" target="ka2fryHVlHf1zdvt1wW3-386" edge="1">
          <mxGeometry width="50" height="50" relative="1" as="geometry">
            <mxPoint x="425" y="420" as="sourcePoint" />
            <mxPoint x="630" y="420" as="targetPoint" />
          </mxGeometry>
        </mxCell>
        <mxCell id="ka2fryHVlHf1zdvt1wW3-386" value="" style="ellipse;html=1;aspect=fixed;fontSize=10;labelPosition=center;verticalLabelPosition=top;align=center;verticalAlign=bottom;fillColor=#ffe6cc;strokeColor=#d79b00;fontColor=#FFB570;fontStyle=1;labelBorderColor=none;" parent="1" vertex="1">
          <mxGeometry x="394.65999999999997" y="460" width="20" height="20" as="geometry" />
        </mxCell>
        <mxCell id="ka2fryHVlHf1zdvt1wW3-387" value="release" style="text;html=1;strokeColor=#6c8ebf;fillColor=#dae8fc;align=center;verticalAlign=middle;whiteSpace=wrap;rounded=0;" parent="1" vertex="1">
          <mxGeometry x="1103" y="427" width="90" height="20" as="geometry" />
        </mxCell>
        <mxCell id="ka2fryHVlHf1zdvt1wW3-388" value="" style="endArrow=none;dashed=1;html=1;fillColor=#dae8fc;strokeColor=#6c8ebf;exitX=1;exitY=0.5;exitDx=0;exitDy=0;entryX=0;entryY=0.5;entryDx=0;entryDy=0;" parent="1" source="ka2fryHVlHf1zdvt1wW3-395" edge="1" target="ka2fryHVlHf1zdvt1wW3-387">
          <mxGeometry width="50" height="50" relative="1" as="geometry">
            <mxPoint x="644.97" y="436.58000000000004" as="sourcePoint" />
            <mxPoint x="1100" y="440" as="targetPoint" />
          </mxGeometry>
        </mxCell>
        <mxCell id="ka2fryHVlHf1zdvt1wW3-389" value="" style="ellipse;whiteSpace=wrap;html=1;aspect=fixed;fillColor=#dae8fc;strokeColor=#6c8ebf;fontStyle=1;labelPosition=center;verticalLabelPosition=top;align=center;verticalAlign=bottom;fontColor=#0066CC;" parent="1" vertex="1">
          <mxGeometry x="760" y="427" width="20" height="20" as="geometry" />
        </mxCell>
        <mxCell id="ka2fryHVlHf1zdvt1wW3-390" value="" style="edgeStyle=orthogonalEdgeStyle;rounded=1;orthogonalLoop=1;jettySize=auto;html=1;dashed=1;endArrow=none;endFill=0;fillColor=#d5e8d4;strokeColor=#82b366;" parent="1" source="ka2fryHVlHf1zdvt1wW3-381" target="ka2fryHVlHf1zdvt1wW3-391" edge="1">
          <mxGeometry relative="1" as="geometry">
            <mxPoint x="1130" y="520" as="targetPoint" />
            <mxPoint x="750" y="520" as="sourcePoint" />
          </mxGeometry>
        </mxCell>
        <mxCell id="ka2fryHVlHf1zdvt1wW3-391" value="" style="ellipse;whiteSpace=wrap;html=1;aspect=fixed;fontSize=10;fillColor=#d5e8d4;strokeColor=#82b366;" parent="1" vertex="1">
          <mxGeometry x="871" y="510" width="20" height="20" as="geometry" />
        </mxCell>
        <mxCell id="ka2fryHVlHf1zdvt1wW3-392" style="edgeStyle=orthogonalEdgeStyle;orthogonalLoop=1;jettySize=auto;html=1;exitX=1;exitY=0.5;exitDx=0;exitDy=0;entryX=0.5;entryY=1;entryDx=0;entryDy=0;endArrow=none;strokeColor=#82b366;fillColor=#d5e8d4;dashed=1;endFill=0;curved=1;" parent="1" source="ka2fryHVlHf1zdvt1wW3-393" target="ka2fryHVlHf1zdvt1wW3-395" edge="1">
          <mxGeometry relative="1" as="geometry" />
        </mxCell>
        <mxCell id="ka2fryHVlHf1zdvt1wW3-393" value="" style="ellipse;whiteSpace=wrap;html=1;aspect=fixed;fontSize=12;fillColor=#d5e8d4;strokeColor=#82b366;labelPosition=center;verticalLabelPosition=top;align=center;verticalAlign=bottom;labelBackgroundColor=none;labelBorderColor=none;fontColor=#82B366;" parent="1" vertex="1">
          <mxGeometry x="1010" y="510" width="20" height="20" as="geometry" />
        </mxCell>
        <mxCell id="ka2fryHVlHf1zdvt1wW3-394" value="" style="endArrow=none;dashed=1;html=1;fillColor=#dae8fc;strokeColor=#6c8ebf;exitX=1;exitY=0.5;exitDx=0;exitDy=0;" parent="1" source="dx6nrJI4djwBMw3k_C7e-215" target="ka2fryHVlHf1zdvt1wW3-395" edge="1">
          <mxGeometry width="50" height="50" relative="1" as="geometry">
            <mxPoint x="780" y="437" as="sourcePoint" />
            <mxPoint x="1134.97" y="436.58000000000004" as="targetPoint" />
          </mxGeometry>
        </mxCell>
        <mxCell id="ka2fryHVlHf1zdvt1wW3-395" value="" style="ellipse;whiteSpace=wrap;html=1;aspect=fixed;fillColor=#dae8fc;strokeColor=#6c8ebf;fontStyle=1;labelPosition=center;verticalLabelPosition=top;align=center;verticalAlign=bottom;fontColor=#0066CC;" parent="1" vertex="1">
          <mxGeometry x="1050" y="427" width="20" height="20" as="geometry" />
        </mxCell>
        <mxCell id="ka2fryHVlHf1zdvt1wW3-396" value="release-myf3" style="text;html=1;align=center;verticalAlign=middle;resizable=0;points=[];autosize=1;strokeColor=#6c8ebf;fillColor=#dae8fc;" parent="1" vertex="1">
          <mxGeometry x="304.66" y="390" width="90" height="30" as="geometry" />
        </mxCell>
        <mxCell id="ka2fryHVlHf1zdvt1wW3-397" value="&lt;b&gt;Domain &lt;br&gt;CI projects&lt;/b&gt;" style="text;html=1;strokeColor=#666666;fillColor=#f5f5f5;align=center;verticalAlign=middle;whiteSpace=wrap;rounded=0;fontSize=12;fontFamily=Helvetica;fontColor=#333333;" parent="1" vertex="1">
          <mxGeometry x="76.94" y="370" width="100" height="50" as="geometry" />
        </mxCell>
        <mxCell id="ka2fryHVlHf1zdvt1wW3-402" value="" style="endArrow=none;dashed=1;html=1;fillColor=#dae8fc;strokeColor=#6c8ebf;exitX=1;exitY=0.5;exitDx=0;exitDy=0;entryX=0;entryY=0.5;entryDx=0;entryDy=0;" parent="1" source="ka2fryHVlHf1zdvt1wW3-373" edge="1">
          <mxGeometry width="50" height="50" relative="1" as="geometry">
            <mxPoint x="640" y="410" as="sourcePoint" />
            <mxPoint x="662.6700000000001" y="410" as="targetPoint" />
          </mxGeometry>
        </mxCell>
        <mxCell id="ka2fryHVlHf1zdvt1wW3-409" value="" style="shape=curlyBracket;whiteSpace=wrap;html=1;rounded=1;flipH=1;labelPosition=right;verticalLabelPosition=middle;align=left;verticalAlign=middle;" parent="1" vertex="1">
          <mxGeometry x="1275" y="120" width="20" height="130" as="geometry" />
        </mxCell>
        <mxCell id="ka2fryHVlHf1zdvt1wW3-410" value="" style="shape=curlyBracket;whiteSpace=wrap;html=1;rounded=1;flipH=1;labelPosition=right;verticalLabelPosition=middle;align=left;verticalAlign=middle;" parent="1" vertex="1">
          <mxGeometry x="1275" y="55" width="20" height="60" as="geometry" />
        </mxCell>
        <mxCell id="ka2fryHVlHf1zdvt1wW3-411" value="" style="shape=curlyBracket;whiteSpace=wrap;html=1;rounded=1;flipH=1;labelPosition=right;verticalLabelPosition=middle;align=left;verticalAlign=middle;" parent="1" vertex="1">
          <mxGeometry x="1275" y="455" width="20" height="85" as="geometry" />
        </mxCell>
        <mxCell id="ka2fryHVlHf1zdvt1wW3-412" value="" style="shape=curlyBracket;whiteSpace=wrap;html=1;rounded=1;flipH=1;labelPosition=right;verticalLabelPosition=middle;align=left;verticalAlign=middle;" parent="1" vertex="1">
          <mxGeometry x="1275" y="390" width="20" height="60" as="geometry" />
        </mxCell>
        <mxCell id="ka2fryHVlHf1zdvt1wW3-416" value="versioning by asdk pipeline" style="shape=image;verticalLabelPosition=bottom;labelBackgroundColor=default;verticalAlign=top;aspect=fixed;imageAspect=0;image=data:image/png,iVBORw0KGgoAAAANSUhEUgAAAMgAAADICAMAAACahl6sAAAA4VBMVEX////bOyE4DXX8oSHe1PX8bSb8cyX539r+9/b++/v7niH++fjcQCf9/P7+/fz49v3dQiHvqZ32jiHjVCHdRi3h2PbscSHfSCHhTyH42NLv6vrgV0Hjalb65eH76+jeSzPfUTrxtavhXUj1x7/p4vjsmo3kbFnnfWz4lCHudSHxfyHlcl9BGHv18vzq5Pj3z8nwsqjqaCFpSZfWzeLph3fqkIHupZnslIb0iCHzvbWXgbdcOY5xUp3md2a+sNLf2OmnlMLmXyGMc69QKobIvdl9YaVfPJCzo8uhjb5KI4HzYCRXkrmHAAAMJUlEQVR4nO1de1/aShMWsS8Bwk1ABZGbCN6xFS/YWrU97an9/h/oENHMzO5sskkWE39vnr9Ks8nsZGaemb3FtbUUKVKkSJEiRYoUKVKkAJQqZ+1Rs7mxsdEcnbcrlVLcHQqHyvmLDoDmqP3xVCmdjTYYNEdnH0uXNqfFqy6VuDunD94aLs4/iColD3N8JKOUvM2xRDvuXvqj0vRXY4FR0mO+oqWGo0ncPfWGpj0Sr0lJ1GORA53EsUjxo6Z4LclxMhJeOs5+pUpbUOUsvo76oC2oIV4vUVWaSQ146lhsXUW5OalhgjvZVPgNzZbJdC7MvB5egzVpvmP39IEN4lWDYE2SyFzYIJ4ug+MkiVFyrt09TApxEVf3etzL2LuTuXQF9c6XVs+8fKtb6zgiZvuGusxibzfzipklXKp4dU6Al9I5V8RV0VzHBUwbGRdjQQwKYRrp1vXkZDaneiOTCOG0j0RMVqGDg+Iwg3BVJhfhJZMI6V4tW+/Oi3xrar7uLhZxQEUYwwEWkmns4Wsl3iDQMfsKNz/n1V6bURG5lehh9YiUTA1fhBDBSc7qoPbX6EKbV4QaRBBhDC2bShliw5+xPavh9r0i15wkd0nEShShnrXAFF2EV3wO/1nukPYXcKXEK3IjSLCJ+xpCWTD7Ihb9FClSZ0TvF4XUmrK9IMIUpqKQTIdVBNGQJbxf1J5VZF8WkTevyJUkpYGSA6tIkbq8ryIzSUSva1wPayhJwYbnFemT5mO4wrsWI0KuhaJiz5al9MDwLJ+WT0hzRA4sW3cZEbvGfUviLAct9zLPpwPctSHqE9tc5KwXGM+JQCjbVfefkLBQzYhuKmOvx17CGdACretwF06jJoA46wjEgNcjp8dloDV5611vgB83YtgaibgFESeGFbl2n1zNboFE4C3oGh2IzxuOKvaQ0k+TURucd7sAImxxvBARkKOfsoegCPCWuoyfzgf7OVrHso2Bs+rZTRBxsWYSyH+Pslkw/NCtn8IOrNz/zGWwiG33h1neQpy1mc0euz9Qod1UmURGm1Ma8cJhNnvEiYgOCzLbTjabPQTeAsOHmnyAka4FpdwTFTHwelZAoPL6eCEluwO+BY02mO6xaHMq56iIAogwyVswrqgeOoog3oKciEyirQg4oSjis/vbNlhvAWfVC46UAigCvFUJrggYJA+etfMiAlGjuZyI6qyt7AuAtzpArK5JfFyrxBikBf0+lkQY4y3EWYdLKYhUUMJ6C2I//m3L7aDOqhZEEcZq+SLyrKUQnLCQ4StapOVqgvQo44QriTBVy3dh0uzV7NkCJKw+MnypPRqdC1Nu1sXN7GAqTOdVztpnZNqIJNylCCBgU3MQF/BuNl+lIMMj3mJgvbrlcOrp6FDKvTkvoUZDOVEkFOF9eU0+dd0CyvaaR7DA5jtZVwTrvhGACGXLlZLlankJRTxE9FAYVfDHnIh7I4rgCh7A1vIikFMugkk9uw60WC1wImzlnUEwdp9XR4ogUlE6TRludaAmH5kWBREmannkv0dIClvLCxAm3DqKZmt7GVYEisO+gXl5WsED2FpeeAdED7WDoFmHQywCqNGOzltFxFlYiE6hLSiSUTUDEfWgIvQhVvBgeLaWD6NITk64kojovAXEUyVmJ4W2wvCaiogVPCsicr0FhLJToFL8eUtPkfJQR0RU3pIreADKiTyp6CmCEu6RKAJ8qxNxjVeu4AGQsHp8TtRTRK7gAcBb/Wi+xVTwgFvoIk8qWork5Qqe9a1otXwXUppkdlJos76lpUhXkXCXImC44FHSaWAOZt+UpOB6i13s01IELZgyIp7gaqScCISyLfmvYn4roCL5nrcIuDvKWjWaxpQ4ywHwFrvdQkcRedaBwkxORAM35m3hhNXgeEtHEX6QwInoRVAExkUyZznw4S0dRfhBgrYIPZSBUD6zUrKIt5gxuYYiXbjKOi+mxvC8hQjlllcE5USGtzQUUQ0SON8KvQ8CFUFyzl1iE94Xk7D8FRGm+TkceorQgled9WZ4SFgMqfgrkvPKhq8igLfC7kQbgEGkOosxvFwM+SsSTISipPPFBMyu8CyfQttfkbGGiFsvETqwfDnLARh+nBOBkt0LpAb7to4IcN+TUHMQaFLq6WmnmokF1e36E7yrULV8vuPx/Lgw9e+3hK60CywBCFNvybvAkoAQvHUfd59ZBK+39vwfGgcmQXlL3IGbFNgnwZwLb1FPGO6DlI6DuHvrhQDJZJ5cezgY6tpErCwyvc7B/t7qTnN4odu6mAzF9yoe+VDAoptcM51pd0XHHzRh7R0IyflEZy+ERfe4jucr2AwdGNY1fbs6ZTA5YWCv5uBDCJATHDqrDDlsxWErXqfCyF9jTU78woQsxO6u4tRDeGAytf3qYDSIzgwN71SNjDl+yT4mgeFtpu+5ySQWXKAt6t7lI0oh9kpPNIZDHjm+97AXHRKZJIF2RaBalp1tfgPa/0UrmrPv357XDeGns1Gwffr285nuEi6d0sY/Lsl1NJHgtd0ITcnhnUWVu5+mtFjgj/PIO/fnHe3CH6n91+/oMpraaXi4DKJqFOntLwbVWD91dtiVnslPZBDG8KePaLPngO2iCJjsRRtgzkyaY339m/PMf9yfX2gPLtl7kNXKkLDVvIXm+FG++WVUj/VH55lKz3pk7zlF3gWloDpIgHyR//HvKDwunYf+pj8BCi8+5Y6ZqOeGYAYIlptLX83qseQs+hPQVt32neukUhEoAWBj/cOp6tnh8K/z0B/uz0fagzvVbb/cJrBA21cqAiQNKxH/qB4dDqdOVqgAZ9FN22rz/3TbQCA3lIrAUGTm/t93s4p8cVzp0rXyb5oNPcwPjYCR4lTkhaQg6f2gHfhXfWNIRVbmWg/OM3/SnwA1sTy7bWD1SL2JdsAw26XRYP/98kj6E/CgvvGb2wjmctU7CIDZILGXjOb1kJz1eqPQSTX9QkJE+2xNBsmp40oV14FO9bLh241LQD2oPnyFShS0p8hgyfiS/h40K3iMP9AKxrDkux4EqCBDS9qXxkYiPhU8X2c5+IX6CEMrj8ktNEBE46pLU2ESvIJf4htqiBbSPCZS0OoOVvfBkHeFqeAX+IM8EJ2O81qGQ83Ibp/S919fDdDwo/OsYJ71/OWO5Bo0I6QOkTUyG7SKL3lEB/oshOfsITpa00jetNZaGe2K6njP5iKNx0mbaKTfxfI5d4VX1++TNrPVQnr47RQinz+5SpZNcnil2XfBnay7aa0MvRdIz3b9F0jId2+GiYl4iyy/NTR21wibaa7Mf70nBPIteoDuRuemHP3yTX8WvyqtDl3Y7esFLzkGuYB9X9vPxbSya3Vb8xvx40hD3VfLficoQdDeflaUv6WVIPSCrEAdMF+ISgj6gbYDlhO7PagfdKW5NUyiUewQxUYxgSHfC7PLdFFrzpJllMZ16IyWGydnz2w/Uglb3rtIxD5mezKNXl/karPxbj8mFrMb/eHJ1dzUeKJcLFovmIiCdj4Zwl9x832vtRRZzK+kOJoL2+sy1b9G9KgLj83cr+Zbv4DuiSiyHl0NyRyN69XXqNZAJOVt43q803iuJX1zNJp77QhPs2fvNcK2pOo4QszLbjV9x6GPtMU5dMxLUT5ZdZRTlE/ESPn76X/B8Ukyx7vP1Fo10Sh15QE8JY62hWd04pi1mYoxX2XPcatx+Fl4QEP6QwfvA0v6QG9deZiQ00M0R2Y/tl3Gc/G4zI7icLIM9AHZV0zi3GXcFWvj6paeUQ5FtmrEvHm9WBM6pOdeTJTHvnk9J+X5Yz9VEhPlFNaNmFKevDXZFM3RiC/KCcqDIDFf2BKTYKxRTiF/HV8Z8wUxypNzRMWBVRPdq85/wuFYNEcnlwy3ciHFfJWJ+YIY5XYiopzCkib0pI8zSVHeS0iUU+SlPL9NYl6KcjvQIc/3hCUd8EUxn/Aop8hfSLX9W8xLUZ6cdVYW0iT+MuYLT6I5Vvh3w8xAru0Xef5WjPK+9+d/kwE55j9/mCinsKQ5PAFm/+7DCmENvKa8Ex7lFPIcHkR53H0LBjnmP1CUU0gx7+CDRLkAOeZN/gWOd0S+Rlcgxx8pyilaaJLFniWx0tUFxHzv40U5xf4y5u/j3/QVFfnabqaTyAFUihQpUqRIkSJFiv83/AeTgiAu6/6YxgAAAABJRU5ErkJggg==;labelPosition=center;align=center;fontSize=11;" parent="1" vertex="1">
          <mxGeometry x="745" y="92.5" width="25" height="25" as="geometry" />
        </mxCell>
        <mxCell id="aQIXH1rHQXxgiYZ-rv-2-172" value="" style="group" parent="1" vertex="1" connectable="0">
          <mxGeometry x="173.45" y="308" width="93.03" height="62" as="geometry" />
        </mxCell>
        <mxCell id="aQIXH1rHQXxgiYZ-rv-2-170" value="" style="shape=note;whiteSpace=wrap;html=1;backgroundOutline=1;darkOpacity=0.05;size=13;" parent="aQIXH1rHQXxgiYZ-rv-2-172" vertex="1">
          <mxGeometry x="33.82909090909091" width="25.371818181818185" height="37.01492537313433" as="geometry" />
        </mxCell>
        <mxCell id="aQIXH1rHQXxgiYZ-rv-2-171" value="&lt;span style=&quot;font-family: &amp;quot;Open Sans&amp;quot;, sans-serif; font-size: 14px; text-align: start; background-color: rgb(255, 255, 255);&quot;&gt;repo manifest&lt;/span&gt;" style="text;html=1;align=center;verticalAlign=middle;resizable=0;points=[];autosize=1;strokeColor=none;fillColor=none;" parent="aQIXH1rHQXxgiYZ-rv-2-172" vertex="1">
          <mxGeometry y="34.23880597014926" width="110" height="30" as="geometry" />
        </mxCell>
        <mxCell id="aQIXH1rHQXxgiYZ-rv-2-174" value="Managed by gitlab-CI" style="text;html=1;align=center;verticalAlign=middle;resizable=0;points=[];autosize=1;strokeColor=none;fillColor=none;" parent="1" vertex="1">
          <mxGeometry x="1290" y="70" width="140" height="30" as="geometry" />
        </mxCell>
        <mxCell id="aQIXH1rHQXxgiYZ-rv-2-175" value="Managed by component&lt;br&gt;&amp;nbsp;developpers" style="text;html=1;align=center;verticalAlign=middle;resizable=0;points=[];autosize=1;strokeColor=none;fillColor=none;" parent="1" vertex="1">
          <mxGeometry x="1290" y="165" width="150" height="40" as="geometry" />
        </mxCell>
        <mxCell id="aQIXH1rHQXxgiYZ-rv-2-181" value="" style="group" parent="1" vertex="1" connectable="0">
          <mxGeometry x="160" y="17.759999999999998" width="100" height="64.23880597014926" as="geometry" />
        </mxCell>
        <mxCell id="aQIXH1rHQXxgiYZ-rv-2-182" value="" style="shape=note;whiteSpace=wrap;html=1;backgroundOutline=1;darkOpacity=0.05;size=13;" parent="aQIXH1rHQXxgiYZ-rv-2-181" vertex="1">
          <mxGeometry x="33.82909090909091" width="25.371818181818185" height="37.01492537313433" as="geometry" />
        </mxCell>
        <mxCell id="aQIXH1rHQXxgiYZ-rv-2-183" value="&lt;span style=&quot;font-family: &amp;quot;Open Sans&amp;quot;, sans-serif; text-align: start; background-color: rgb(255, 255, 255);&quot;&gt;source code&lt;/span&gt;" style="text;html=1;align=center;verticalAlign=middle;resizable=0;points=[];autosize=1;strokeColor=none;fillColor=none;" parent="aQIXH1rHQXxgiYZ-rv-2-181" vertex="1">
          <mxGeometry x="10" y="34.23880597014926" width="90" height="30" as="geometry" />
        </mxCell>
        <mxCell id="aQIXH1rHQXxgiYZ-rv-2-187" value="Managed by gitlab-CI" style="text;html=1;align=center;verticalAlign=middle;resizable=0;points=[];autosize=1;strokeColor=none;fillColor=none;" parent="1" vertex="1">
          <mxGeometry x="1295" y="405" width="140" height="30" as="geometry" />
        </mxCell>
        <mxCell id="JF-x4fcbulFclEEz5K2Y-169" value="Managed by component&lt;br&gt;&amp;nbsp;developpers" style="text;html=1;align=center;verticalAlign=middle;resizable=0;points=[];autosize=1;strokeColor=none;fillColor=none;" parent="1" vertex="1">
          <mxGeometry x="1295" y="477.5" width="150" height="40" as="geometry" />
        </mxCell>
        <mxCell id="JF-x4fcbulFclEEz5K2Y-192" value="I&lt;b&gt;ntegration projects&lt;/b&gt;" style="text;html=1;strokeColor=#666666;fillColor=#f5f5f5;align=center;verticalAlign=middle;whiteSpace=wrap;rounded=0;fontSize=12;fontFamily=Helvetica;fontColor=#333333;" parent="1" vertex="1">
          <mxGeometry x="73" y="-174.76" width="106.94" height="50" as="geometry" />
        </mxCell>
        <mxCell id="JF-x4fcbulFclEEz5K2Y-208" value="feature/face-recognition-ci/stable-myf3" style="rounded=0;whiteSpace=wrap;html=1;fillColor=#ffe6cc;strokeColor=#d79b00;gradientColor=none;" parent="1" vertex="1">
          <mxGeometry x="228.82" y="-190.5" width="225.84" height="27" as="geometry" />
        </mxCell>
        <mxCell id="JF-x4fcbulFclEEz5K2Y-174" value="feature/face-recognition-ci/main" style="text;html=1;strokeColor=#36393d;fillColor=#D5E8D4;align=center;verticalAlign=middle;whiteSpace=wrap;rounded=0;" parent="1" vertex="1">
          <mxGeometry x="1031.02" y="-90" width="208.98" height="20" as="geometry" />
        </mxCell>
        <mxCell id="JF-x4fcbulFclEEz5K2Y-175" style="edgeStyle=orthogonalEdgeStyle;rounded=1;orthogonalLoop=1;jettySize=auto;html=1;dashed=1;endArrow=none;endFill=0;fillColor=#e1d5e7;strokeColor=#9673a6;entryX=0.5;entryY=1;entryDx=0;entryDy=0;exitX=1;exitY=0.5;exitDx=0;exitDy=0;" parent="1" target="dx6nrJI4djwBMw3k_C7e-191" edge="1" source="dx6nrJI4djwBMw3k_C7e-175">
          <mxGeometry relative="1" as="geometry">
            <mxPoint x="1047.3615720901334" y="-25.5" as="targetPoint" />
            <mxPoint x="470" y="-35" as="sourcePoint" />
            <Array as="points" />
          </mxGeometry>
        </mxCell>
        <mxCell id="JF-x4fcbulFclEEz5K2Y-226" value="feature/face_recognition_ci/release-myf3" style="rounded=0;whiteSpace=wrap;html=1;fillColor=#dae8fc;strokeColor=#6c8ebf;gradientColor=none;" parent="1" vertex="1">
          <mxGeometry x="230" y="-265" width="230" height="30" as="geometry" />
        </mxCell>
        <mxCell id="JF-x4fcbulFclEEz5K2Y-221" value="feature/face_recognition_ci/release" style="text;html=1;strokeColor=#6c8ebf;fillColor=#dae8fc;align=center;verticalAlign=middle;whiteSpace=wrap;rounded=0;" parent="1" vertex="1">
          <mxGeometry x="1030.97" y="-225" width="209.03" height="20" as="geometry" />
        </mxCell>
        <mxCell id="JF-x4fcbulFclEEz5K2Y-222" style="edgeStyle=orthogonalEdgeStyle;rounded=1;orthogonalLoop=1;jettySize=auto;html=1;dashed=1;endArrow=none;endFill=0;fillColor=#dae8fc;strokeColor=#6c8ebf;entryX=0;entryY=0.5;entryDx=0;entryDy=0;startArrow=none;" parent="1" source="qgYu-cR_Me6EohLr5Clw-221" target="JF-x4fcbulFclEEz5K2Y-221" edge="1">
          <mxGeometry relative="1" as="geometry">
            <mxPoint x="1029.868532110092" y="-215.5" as="targetPoint" />
            <mxPoint x="430.97" y="-215" as="sourcePoint" />
          </mxGeometry>
        </mxCell>
        <mxCell id="JF-x4fcbulFclEEz5K2Y-180" value="feature/face-recognition-ci/stable-myfX" style="text;html=1;strokeColor=#36393d;fillColor=#FFE6CC;align=center;verticalAlign=middle;whiteSpace=wrap;rounded=0;" parent="1" vertex="1">
          <mxGeometry x="1031" y="-187" width="209" height="20" as="geometry" />
        </mxCell>
        <mxCell id="qgYu-cR_Me6EohLr5Clw-175" value="feature/face_recognition_ci/release-myfX" style="text;html=1;strokeColor=#6c8ebf;fillColor=#dae8fc;align=center;verticalAlign=middle;whiteSpace=wrap;rounded=0;" parent="1" vertex="1">
          <mxGeometry x="1019.97" y="-260" width="229.03" height="20" as="geometry" />
        </mxCell>
        <mxCell id="qgYu-cR_Me6EohLr5Clw-177" style="edgeStyle=orthogonalEdgeStyle;rounded=1;orthogonalLoop=1;jettySize=auto;html=1;dashed=1;endArrow=none;endFill=0;fillColor=#dae8fc;strokeColor=#6c8ebf;entryX=0;entryY=0.5;entryDx=0;entryDy=0;startArrow=none;" parent="1" edge="1" source="dx6nrJI4djwBMw3k_C7e-197">
          <mxGeometry relative="1" as="geometry">
            <mxPoint x="1030.97" y="-250.5" as="targetPoint" />
            <mxPoint x="480" y="-250" as="sourcePoint" />
            <Array as="points">
              <mxPoint x="801" y="-250" />
            </Array>
          </mxGeometry>
        </mxCell>
        <mxCell id="qgYu-cR_Me6EohLr5Clw-189" value="" style="group" parent="1" vertex="1" connectable="0">
          <mxGeometry x="100" y="-289.24" width="100" height="64.23880597014926" as="geometry" />
        </mxCell>
        <mxCell id="qgYu-cR_Me6EohLr5Clw-190" value="" style="shape=note;whiteSpace=wrap;html=1;backgroundOutline=1;darkOpacity=0.05;size=13;" parent="qgYu-cR_Me6EohLr5Clw-189" vertex="1">
          <mxGeometry x="32.82909090909091" width="25.371818181818185" height="37.01492537313433" as="geometry" />
        </mxCell>
        <mxCell id="qgYu-cR_Me6EohLr5Clw-191" value="&lt;span style=&quot;font-family: &amp;quot;Open Sans&amp;quot;, sans-serif; text-align: start; background-color: rgb(255, 255, 255);&quot;&gt;source code&lt;/span&gt;" style="text;html=1;align=center;verticalAlign=middle;resizable=0;points=[];autosize=1;strokeColor=none;fillColor=none;" parent="qgYu-cR_Me6EohLr5Clw-189" vertex="1">
          <mxGeometry x="10" y="34.23880597014926" width="90" height="30" as="geometry" />
        </mxCell>
        <mxCell id="qgYu-cR_Me6EohLr5Clw-195" value="" style="shape=image;verticalLabelPosition=bottom;labelBackgroundColor=default;verticalAlign=top;aspect=fixed;imageAspect=0;image=data:image/png,iVBORw0KGgoAAAANSUhEUgAAAMgAAADICAMAAACahl6sAAAA4VBMVEX////bOyE4DXX8oSHe1PX8bSb8cyX539r+9/b++/v7niH++fjcQCf9/P7+/fz49v3dQiHvqZ32jiHjVCHdRi3h2PbscSHfSCHhTyH42NLv6vrgV0Hjalb65eH76+jeSzPfUTrxtavhXUj1x7/p4vjsmo3kbFnnfWz4lCHudSHxfyHlcl9BGHv18vzq5Pj3z8nwsqjqaCFpSZfWzeLph3fqkIHupZnslIb0iCHzvbWXgbdcOY5xUp3md2a+sNLf2OmnlMLmXyGMc69QKobIvdl9YaVfPJCzo8uhjb5KI4HzYCRXkrmHAAAMJUlEQVR4nO1de1/aShMWsS8Bwk1ABZGbCN6xFS/YWrU97an9/h/oENHMzO5sskkWE39vnr9Ks8nsZGaemb3FtbUUKVKkSJEiRYoUKVKkAJQqZ+1Rs7mxsdEcnbcrlVLcHQqHyvmLDoDmqP3xVCmdjTYYNEdnH0uXNqfFqy6VuDunD94aLs4/iColD3N8JKOUvM2xRDvuXvqj0vRXY4FR0mO+oqWGo0ncPfWGpj0Sr0lJ1GORA53EsUjxo6Z4LclxMhJeOs5+pUpbUOUsvo76oC2oIV4vUVWaSQ146lhsXUW5OalhgjvZVPgNzZbJdC7MvB5egzVpvmP39IEN4lWDYE2SyFzYIJ4ug+MkiVFyrt09TApxEVf3etzL2LuTuXQF9c6XVs+8fKtb6zgiZvuGusxibzfzipklXKp4dU6Al9I5V8RV0VzHBUwbGRdjQQwKYRrp1vXkZDaneiOTCOG0j0RMVqGDg+Iwg3BVJhfhJZMI6V4tW+/Oi3xrar7uLhZxQEUYwwEWkmns4Wsl3iDQMfsKNz/n1V6bURG5lehh9YiUTA1fhBDBSc7qoPbX6EKbV4QaRBBhDC2bShliw5+xPavh9r0i15wkd0nEShShnrXAFF2EV3wO/1nukPYXcKXEK3IjSLCJ+xpCWTD7Ihb9FClSZ0TvF4XUmrK9IMIUpqKQTIdVBNGQJbxf1J5VZF8WkTevyJUkpYGSA6tIkbq8ryIzSUSva1wPayhJwYbnFemT5mO4wrsWI0KuhaJiz5al9MDwLJ+WT0hzRA4sW3cZEbvGfUviLAct9zLPpwPctSHqE9tc5KwXGM+JQCjbVfefkLBQzYhuKmOvx17CGdACretwF06jJoA46wjEgNcjp8dloDV5611vgB83YtgaibgFESeGFbl2n1zNboFE4C3oGh2IzxuOKvaQ0k+TURucd7sAImxxvBARkKOfsoegCPCWuoyfzgf7OVrHso2Bs+rZTRBxsWYSyH+Pslkw/NCtn8IOrNz/zGWwiG33h1neQpy1mc0euz9Qod1UmURGm1Ma8cJhNnvEiYgOCzLbTjabPQTeAsOHmnyAka4FpdwTFTHwelZAoPL6eCEluwO+BY02mO6xaHMq56iIAogwyVswrqgeOoog3oKciEyirQg4oSjis/vbNlhvAWfVC46UAigCvFUJrggYJA+etfMiAlGjuZyI6qyt7AuAtzpArK5JfFyrxBikBf0+lkQY4y3EWYdLKYhUUMJ6C2I//m3L7aDOqhZEEcZq+SLyrKUQnLCQ4StapOVqgvQo44QriTBVy3dh0uzV7NkCJKw+MnypPRqdC1Nu1sXN7GAqTOdVztpnZNqIJNylCCBgU3MQF/BuNl+lIMMj3mJgvbrlcOrp6FDKvTkvoUZDOVEkFOF9eU0+dd0CyvaaR7DA5jtZVwTrvhGACGXLlZLlankJRTxE9FAYVfDHnIh7I4rgCh7A1vIikFMugkk9uw60WC1wImzlnUEwdp9XR4ogUlE6TRludaAmH5kWBREmannkv0dIClvLCxAm3DqKZmt7GVYEisO+gXl5WsED2FpeeAdED7WDoFmHQywCqNGOzltFxFlYiE6hLSiSUTUDEfWgIvQhVvBgeLaWD6NITk64kojovAXEUyVmJ4W2wvCaiogVPCsicr0FhLJToFL8eUtPkfJQR0RU3pIreADKiTyp6CmCEu6RKAJ8qxNxjVeu4AGQsHp8TtRTRK7gAcBb/Wi+xVTwgFvoIk8qWork5Qqe9a1otXwXUppkdlJos76lpUhXkXCXImC44FHSaWAOZt+UpOB6i13s01IELZgyIp7gaqScCISyLfmvYn4roCL5nrcIuDvKWjWaxpQ4ywHwFrvdQkcRedaBwkxORAM35m3hhNXgeEtHEX6QwInoRVAExkUyZznw4S0dRfhBgrYIPZSBUD6zUrKIt5gxuYYiXbjKOi+mxvC8hQjlllcE5USGtzQUUQ0SON8KvQ8CFUFyzl1iE94Xk7D8FRGm+TkceorQgled9WZ4SFgMqfgrkvPKhq8igLfC7kQbgEGkOosxvFwM+SsSTISipPPFBMyu8CyfQttfkbGGiFsvETqwfDnLARh+nBOBkt0LpAb7to4IcN+TUHMQaFLq6WmnmokF1e36E7yrULV8vuPx/Lgw9e+3hK60CywBCFNvybvAkoAQvHUfd59ZBK+39vwfGgcmQXlL3IGbFNgnwZwLb1FPGO6DlI6DuHvrhQDJZJ5cezgY6tpErCwyvc7B/t7qTnN4odu6mAzF9yoe+VDAoptcM51pd0XHHzRh7R0IyflEZy+ERfe4jucr2AwdGNY1fbs6ZTA5YWCv5uBDCJATHDqrDDlsxWErXqfCyF9jTU78woQsxO6u4tRDeGAytf3qYDSIzgwN71SNjDl+yT4mgeFtpu+5ySQWXKAt6t7lI0oh9kpPNIZDHjm+97AXHRKZJIF2RaBalp1tfgPa/0UrmrPv357XDeGns1Gwffr285nuEi6d0sY/Lsl1NJHgtd0ITcnhnUWVu5+mtFjgj/PIO/fnHe3CH6n91+/oMpraaXi4DKJqFOntLwbVWD91dtiVnslPZBDG8KePaLPngO2iCJjsRRtgzkyaY339m/PMf9yfX2gPLtl7kNXKkLDVvIXm+FG++WVUj/VH55lKz3pk7zlF3gWloDpIgHyR//HvKDwunYf+pj8BCi8+5Y6ZqOeGYAYIlptLX83qseQs+hPQVt32neukUhEoAWBj/cOp6tnh8K/z0B/uz0fagzvVbb/cJrBA21cqAiQNKxH/qB4dDqdOVqgAZ9FN22rz/3TbQCA3lIrAUGTm/t93s4p8cVzp0rXyb5oNPcwPjYCR4lTkhaQg6f2gHfhXfWNIRVbmWg/OM3/SnwA1sTy7bWD1SL2JdsAw26XRYP/98kj6E/CgvvGb2wjmctU7CIDZILGXjOb1kJz1eqPQSTX9QkJE+2xNBsmp40oV14FO9bLh241LQD2oPnyFShS0p8hgyfiS/h40K3iMP9AKxrDkux4EqCBDS9qXxkYiPhU8X2c5+IX6CEMrj8ktNEBE46pLU2ESvIJf4htqiBbSPCZS0OoOVvfBkHeFqeAX+IM8EJ2O81qGQ83Ibp/S919fDdDwo/OsYJ71/OWO5Bo0I6QOkTUyG7SKL3lEB/oshOfsITpa00jetNZaGe2K6njP5iKNx0mbaKTfxfI5d4VX1++TNrPVQnr47RQinz+5SpZNcnil2XfBnay7aa0MvRdIz3b9F0jId2+GiYl4iyy/NTR21wibaa7Mf70nBPIteoDuRuemHP3yTX8WvyqtDl3Y7esFLzkGuYB9X9vPxbSya3Vb8xvx40hD3VfLficoQdDeflaUv6WVIPSCrEAdMF+ISgj6gbYDlhO7PagfdKW5NUyiUewQxUYxgSHfC7PLdFFrzpJllMZ16IyWGydnz2w/Uglb3rtIxD5mezKNXl/karPxbj8mFrMb/eHJ1dzUeKJcLFovmIiCdj4Zwl9x832vtRRZzK+kOJoL2+sy1b9G9KgLj83cr+Zbv4DuiSiyHl0NyRyN69XXqNZAJOVt43q803iuJX1zNJp77QhPs2fvNcK2pOo4QszLbjV9x6GPtMU5dMxLUT5ZdZRTlE/ESPn76X/B8Ukyx7vP1Fo10Sh15QE8JY62hWd04pi1mYoxX2XPcatx+Fl4QEP6QwfvA0v6QG9deZiQ00M0R2Y/tl3Gc/G4zI7icLIM9AHZV0zi3GXcFWvj6paeUQ5FtmrEvHm9WBM6pOdeTJTHvnk9J+X5Yz9VEhPlFNaNmFKevDXZFM3RiC/KCcqDIDFf2BKTYKxRTiF/HV8Z8wUxypNzRMWBVRPdq85/wuFYNEcnlwy3ciHFfJWJ+YIY5XYiopzCkib0pI8zSVHeS0iUU+SlPL9NYl6KcjvQIc/3hCUd8EUxn/Aop8hfSLX9W8xLUZ6cdVYW0iT+MuYLT6I5Vvh3w8xAru0Xef5WjPK+9+d/kwE55j9/mCinsKQ5PAFm/+7DCmENvKa8Ex7lFPIcHkR53H0LBjnmP1CUU0gx7+CDRLkAOeZN/gWOd0S+Rlcgxx8pyilaaJLFniWx0tUFxHzv40U5xf4y5u/j3/QVFfnabqaTyAFUihQpUqRIkSJFiv83/AeTgiAu6/6YxgAAAABJRU5ErkJggg==;" parent="1" vertex="1">
          <mxGeometry x="413" y="82.5" width="25" height="25" as="geometry" />
        </mxCell>
        <mxCell id="qgYu-cR_Me6EohLr5Clw-196" value="versioning by asdk pipeline" style="text;html=1;align=center;verticalAlign=middle;resizable=0;points=[];autosize=1;strokeColor=none;fillColor=none;fontSize=11;" parent="1" vertex="1">
          <mxGeometry x="260" y="80" width="160" height="30" as="geometry" />
        </mxCell>
        <mxCell id="qgYu-cR_Me6EohLr5Clw-201" value="upkeep manifest file" style="shape=image;verticalLabelPosition=middle;labelBackgroundColor=default;verticalAlign=middle;aspect=fixed;imageAspect=0;image=data:image/png,iVBORw0KGgoAAAANSUhEUgAAAMgAAADICAMAAACahl6sAAAA4VBMVEX////bOyE4DXX8oSHe1PX8bSb8cyX539r+9/b++/v7niH++fjcQCf9/P7+/fz49v3dQiHvqZ32jiHjVCHdRi3h2PbscSHfSCHhTyH42NLv6vrgV0Hjalb65eH76+jeSzPfUTrxtavhXUj1x7/p4vjsmo3kbFnnfWz4lCHudSHxfyHlcl9BGHv18vzq5Pj3z8nwsqjqaCFpSZfWzeLph3fqkIHupZnslIb0iCHzvbWXgbdcOY5xUp3md2a+sNLf2OmnlMLmXyGMc69QKobIvdl9YaVfPJCzo8uhjb5KI4HzYCRXkrmHAAAMJUlEQVR4nO1de1/aShMWsS8Bwk1ABZGbCN6xFS/YWrU97an9/h/oENHMzO5sskkWE39vnr9Ks8nsZGaemb3FtbUUKVKkSJEiRYoUKVKkAJQqZ+1Rs7mxsdEcnbcrlVLcHQqHyvmLDoDmqP3xVCmdjTYYNEdnH0uXNqfFqy6VuDunD94aLs4/iColD3N8JKOUvM2xRDvuXvqj0vRXY4FR0mO+oqWGo0ncPfWGpj0Sr0lJ1GORA53EsUjxo6Z4LclxMhJeOs5+pUpbUOUsvo76oC2oIV4vUVWaSQ146lhsXUW5OalhgjvZVPgNzZbJdC7MvB5egzVpvmP39IEN4lWDYE2SyFzYIJ4ug+MkiVFyrt09TApxEVf3etzL2LuTuXQF9c6XVs+8fKtb6zgiZvuGusxibzfzipklXKp4dU6Al9I5V8RV0VzHBUwbGRdjQQwKYRrp1vXkZDaneiOTCOG0j0RMVqGDg+Iwg3BVJhfhJZMI6V4tW+/Oi3xrar7uLhZxQEUYwwEWkmns4Wsl3iDQMfsKNz/n1V6bURG5lehh9YiUTA1fhBDBSc7qoPbX6EKbV4QaRBBhDC2bShliw5+xPavh9r0i15wkd0nEShShnrXAFF2EV3wO/1nukPYXcKXEK3IjSLCJ+xpCWTD7Ihb9FClSZ0TvF4XUmrK9IMIUpqKQTIdVBNGQJbxf1J5VZF8WkTevyJUkpYGSA6tIkbq8ryIzSUSva1wPayhJwYbnFemT5mO4wrsWI0KuhaJiz5al9MDwLJ+WT0hzRA4sW3cZEbvGfUviLAct9zLPpwPctSHqE9tc5KwXGM+JQCjbVfefkLBQzYhuKmOvx17CGdACretwF06jJoA46wjEgNcjp8dloDV5611vgB83YtgaibgFESeGFbl2n1zNboFE4C3oGh2IzxuOKvaQ0k+TURucd7sAImxxvBARkKOfsoegCPCWuoyfzgf7OVrHso2Bs+rZTRBxsWYSyH+Pslkw/NCtn8IOrNz/zGWwiG33h1neQpy1mc0euz9Qod1UmURGm1Ma8cJhNnvEiYgOCzLbTjabPQTeAsOHmnyAka4FpdwTFTHwelZAoPL6eCEluwO+BY02mO6xaHMq56iIAogwyVswrqgeOoog3oKciEyirQg4oSjis/vbNlhvAWfVC46UAigCvFUJrggYJA+etfMiAlGjuZyI6qyt7AuAtzpArK5JfFyrxBikBf0+lkQY4y3EWYdLKYhUUMJ6C2I//m3L7aDOqhZEEcZq+SLyrKUQnLCQ4StapOVqgvQo44QriTBVy3dh0uzV7NkCJKw+MnypPRqdC1Nu1sXN7GAqTOdVztpnZNqIJNylCCBgU3MQF/BuNl+lIMMj3mJgvbrlcOrp6FDKvTkvoUZDOVEkFOF9eU0+dd0CyvaaR7DA5jtZVwTrvhGACGXLlZLlankJRTxE9FAYVfDHnIh7I4rgCh7A1vIikFMugkk9uw60WC1wImzlnUEwdp9XR4ogUlE6TRludaAmH5kWBREmannkv0dIClvLCxAm3DqKZmt7GVYEisO+gXl5WsED2FpeeAdED7WDoFmHQywCqNGOzltFxFlYiE6hLSiSUTUDEfWgIvQhVvBgeLaWD6NITk64kojovAXEUyVmJ4W2wvCaiogVPCsicr0FhLJToFL8eUtPkfJQR0RU3pIreADKiTyp6CmCEu6RKAJ8qxNxjVeu4AGQsHp8TtRTRK7gAcBb/Wi+xVTwgFvoIk8qWork5Qqe9a1otXwXUppkdlJos76lpUhXkXCXImC44FHSaWAOZt+UpOB6i13s01IELZgyIp7gaqScCISyLfmvYn4roCL5nrcIuDvKWjWaxpQ4ywHwFrvdQkcRedaBwkxORAM35m3hhNXgeEtHEX6QwInoRVAExkUyZznw4S0dRfhBgrYIPZSBUD6zUrKIt5gxuYYiXbjKOi+mxvC8hQjlllcE5USGtzQUUQ0SON8KvQ8CFUFyzl1iE94Xk7D8FRGm+TkceorQgled9WZ4SFgMqfgrkvPKhq8igLfC7kQbgEGkOosxvFwM+SsSTISipPPFBMyu8CyfQttfkbGGiFsvETqwfDnLARh+nBOBkt0LpAb7to4IcN+TUHMQaFLq6WmnmokF1e36E7yrULV8vuPx/Lgw9e+3hK60CywBCFNvybvAkoAQvHUfd59ZBK+39vwfGgcmQXlL3IGbFNgnwZwLb1FPGO6DlI6DuHvrhQDJZJ5cezgY6tpErCwyvc7B/t7qTnN4odu6mAzF9yoe+VDAoptcM51pd0XHHzRh7R0IyflEZy+ERfe4jucr2AwdGNY1fbs6ZTA5YWCv5uBDCJATHDqrDDlsxWErXqfCyF9jTU78woQsxO6u4tRDeGAytf3qYDSIzgwN71SNjDl+yT4mgeFtpu+5ySQWXKAt6t7lI0oh9kpPNIZDHjm+97AXHRKZJIF2RaBalp1tfgPa/0UrmrPv357XDeGns1Gwffr285nuEi6d0sY/Lsl1NJHgtd0ITcnhnUWVu5+mtFjgj/PIO/fnHe3CH6n91+/oMpraaXi4DKJqFOntLwbVWD91dtiVnslPZBDG8KePaLPngO2iCJjsRRtgzkyaY339m/PMf9yfX2gPLtl7kNXKkLDVvIXm+FG++WVUj/VH55lKz3pk7zlF3gWloDpIgHyR//HvKDwunYf+pj8BCi8+5Y6ZqOeGYAYIlptLX83qseQs+hPQVt32neukUhEoAWBj/cOp6tnh8K/z0B/uz0fagzvVbb/cJrBA21cqAiQNKxH/qB4dDqdOVqgAZ9FN22rz/3TbQCA3lIrAUGTm/t93s4p8cVzp0rXyb5oNPcwPjYCR4lTkhaQg6f2gHfhXfWNIRVbmWg/OM3/SnwA1sTy7bWD1SL2JdsAw26XRYP/98kj6E/CgvvGb2wjmctU7CIDZILGXjOb1kJz1eqPQSTX9QkJE+2xNBsmp40oV14FO9bLh241LQD2oPnyFShS0p8hgyfiS/h40K3iMP9AKxrDkux4EqCBDS9qXxkYiPhU8X2c5+IX6CEMrj8ktNEBE46pLU2ESvIJf4htqiBbSPCZS0OoOVvfBkHeFqeAX+IM8EJ2O81qGQ83Ibp/S919fDdDwo/OsYJ71/OWO5Bo0I6QOkTUyG7SKL3lEB/oshOfsITpa00jetNZaGe2K6njP5iKNx0mbaKTfxfI5d4VX1++TNrPVQnr47RQinz+5SpZNcnil2XfBnay7aa0MvRdIz3b9F0jId2+GiYl4iyy/NTR21wibaa7Mf70nBPIteoDuRuemHP3yTX8WvyqtDl3Y7esFLzkGuYB9X9vPxbSya3Vb8xvx40hD3VfLficoQdDeflaUv6WVIPSCrEAdMF+ISgj6gbYDlhO7PagfdKW5NUyiUewQxUYxgSHfC7PLdFFrzpJllMZ16IyWGydnz2w/Uglb3rtIxD5mezKNXl/karPxbj8mFrMb/eHJ1dzUeKJcLFovmIiCdj4Zwl9x832vtRRZzK+kOJoL2+sy1b9G9KgLj83cr+Zbv4DuiSiyHl0NyRyN69XXqNZAJOVt43q803iuJX1zNJp77QhPs2fvNcK2pOo4QszLbjV9x6GPtMU5dMxLUT5ZdZRTlE/ESPn76X/B8Ukyx7vP1Fo10Sh15QE8JY62hWd04pi1mYoxX2XPcatx+Fl4QEP6QwfvA0v6QG9deZiQ00M0R2Y/tl3Gc/G4zI7icLIM9AHZV0zi3GXcFWvj6paeUQ5FtmrEvHm9WBM6pOdeTJTHvnk9J+X5Yz9VEhPlFNaNmFKevDXZFM3RiC/KCcqDIDFf2BKTYKxRTiF/HV8Z8wUxypNzRMWBVRPdq85/wuFYNEcnlwy3ciHFfJWJ+YIY5XYiopzCkib0pI8zSVHeS0iUU+SlPL9NYl6KcjvQIc/3hCUd8EUxn/Aop8hfSLX9W8xLUZ6cdVYW0iT+MuYLT6I5Vvh3w8xAru0Xef5WjPK+9+d/kwE55j9/mCinsKQ5PAFm/+7DCmENvKa8Ex7lFPIcHkR53H0LBjnmP1CUU0gx7+CDRLkAOeZN/gWOd0S+Rlcgxx8pyilaaJLFniWx0tUFxHzv40U5xf4y5u/j3/QVFfnabqaTyAFUihQpUqRIkSJFiv83/AeTgiAu6/6YxgAAAABJRU5ErkJggg==;fontSize=11;labelPosition=right;align=left;" parent="1" vertex="1">
          <mxGeometry x="432" y="427" width="28" height="28" as="geometry" />
        </mxCell>
        <mxCell id="qgYu-cR_Me6EohLr5Clw-202" value="feat/yyyy" style="text;html=1;strokeColor=#9673a6;fillColor=#e1d5e7;align=center;verticalAlign=middle;whiteSpace=wrap;rounded=0;" parent="1" vertex="1">
          <mxGeometry x="1031" y="-65" width="209" height="20" as="geometry" />
        </mxCell>
        <mxCell id="qgYu-cR_Me6EohLr5Clw-203" style="edgeStyle=orthogonalEdgeStyle;rounded=1;orthogonalLoop=1;jettySize=auto;html=1;dashed=1;endArrow=none;endFill=0;fillColor=#d5e8d4;strokeColor=#82b366;exitX=1;exitY=0.5;exitDx=0;exitDy=0;" parent="1" edge="1" source="dx6nrJI4djwBMw3k_C7e-204">
          <mxGeometry relative="1" as="geometry">
            <mxPoint x="1031.02" y="-80" as="targetPoint" />
            <mxPoint x="470" y="-80" as="sourcePoint" />
            <Array as="points" />
          </mxGeometry>
        </mxCell>
        <mxCell id="qgYu-cR_Me6EohLr5Clw-208" value="" style="shape=curlyBracket;whiteSpace=wrap;html=1;rounded=1;flipH=1;labelPosition=right;verticalLabelPosition=middle;align=left;verticalAlign=middle;" parent="1" vertex="1">
          <mxGeometry x="1276" y="-260" width="20" height="220" as="geometry" />
        </mxCell>
        <mxCell id="qgYu-cR_Me6EohLr5Clw-209" value="Managed by component&lt;br&gt;&amp;nbsp;developpers" style="text;html=1;align=center;verticalAlign=middle;resizable=0;points=[];autosize=1;strokeColor=none;fillColor=none;" parent="1" vertex="1">
          <mxGeometry x="1310" y="-170" width="150" height="40" as="geometry" />
        </mxCell>
        <mxCell id="dx6nrJI4djwBMw3k_C7e-199" style="edgeStyle=orthogonalEdgeStyle;rounded=1;orthogonalLoop=1;jettySize=auto;html=1;exitX=1;exitY=0.5;exitDx=0;exitDy=0;entryX=0.5;entryY=1;entryDx=0;entryDy=0;endArrow=none;strokeColor=#d79b00;dashed=1;endFill=0;fillColor=#ffe6cc;" edge="1" parent="1" source="qgYu-cR_Me6EohLr5Clw-219" target="dx6nrJI4djwBMw3k_C7e-197">
          <mxGeometry relative="1" as="geometry" />
        </mxCell>
        <mxCell id="qgYu-cR_Me6EohLr5Clw-219" value="" style="ellipse;whiteSpace=wrap;html=1;aspect=fixed;fontSize=10;fillColor=#ffe6cc;strokeColor=#d79b00;" parent="1" vertex="1">
          <mxGeometry x="704" y="-187" width="20" height="20" as="geometry" />
        </mxCell>
        <mxCell id="qgYu-cR_Me6EohLr5Clw-220" value="" style="edgeStyle=orthogonalEdgeStyle;rounded=1;orthogonalLoop=1;jettySize=auto;html=1;dashed=1;endArrow=none;endFill=0;fillColor=#ffe6cc;strokeColor=#d79b00;exitX=1;exitY=0.5;exitDx=0;exitDy=0;" parent="1" target="qgYu-cR_Me6EohLr5Clw-219" edge="1" source="dx6nrJI4djwBMw3k_C7e-171">
          <mxGeometry relative="1" as="geometry">
            <mxPoint x="1048.0115720901335" y="-177.5" as="targetPoint" />
            <mxPoint x="569.9999199996801" y="-176.79999999999995" as="sourcePoint" />
            <Array as="points" />
          </mxGeometry>
        </mxCell>
        <mxCell id="qgYu-cR_Me6EohLr5Clw-221" value="" style="ellipse;whiteSpace=wrap;html=1;aspect=fixed;fillColor=#dae8fc;strokeColor=#6c8ebf;fontStyle=1;labelPosition=center;verticalLabelPosition=top;align=center;verticalAlign=bottom;fontColor=#0066CC;" parent="1" vertex="1">
          <mxGeometry x="969.97" y="-225" width="20" height="20" as="geometry" />
        </mxCell>
        <mxCell id="qgYu-cR_Me6EohLr5Clw-222" value="" style="edgeStyle=orthogonalEdgeStyle;rounded=1;orthogonalLoop=1;jettySize=auto;html=1;dashed=1;endArrow=none;endFill=0;fillColor=#dae8fc;strokeColor=#6c8ebf;entryX=0;entryY=0.5;entryDx=0;entryDy=0;exitX=1;exitY=0.5;exitDx=0;exitDy=0;" parent="1" target="qgYu-cR_Me6EohLr5Clw-221" edge="1" source="dx6nrJI4djwBMw3k_C7e-195">
          <mxGeometry relative="1" as="geometry">
            <mxPoint x="1047.95" y="-215" as="targetPoint" />
            <mxPoint x="780" y="-215" as="sourcePoint" />
          </mxGeometry>
        </mxCell>
        <mxCell id="qgYu-cR_Me6EohLr5Clw-227" value="" style="ellipse;whiteSpace=wrap;html=1;aspect=fixed;fillColor=#dae8fc;strokeColor=#6c8ebf;fontStyle=1;labelPosition=center;verticalLabelPosition=top;align=center;verticalAlign=bottom;fontColor=#0066CC;" parent="1" vertex="1">
          <mxGeometry x="940" y="400" width="20" height="20" as="geometry" />
        </mxCell>
        <mxCell id="qgYu-cR_Me6EohLr5Clw-228" value="" style="endArrow=none;dashed=1;html=1;fillColor=#dae8fc;strokeColor=#6c8ebf;entryX=0;entryY=0.5;entryDx=0;entryDy=0;" parent="1" target="qgYu-cR_Me6EohLr5Clw-227" edge="1">
          <mxGeometry width="50" height="50" relative="1" as="geometry">
            <mxPoint x="660" y="410" as="sourcePoint" />
            <mxPoint x="1130" y="410" as="targetPoint" />
          </mxGeometry>
        </mxCell>
        <mxCell id="qgYu-cR_Me6EohLr5Clw-232" value="feat/xxx" style="text;html=1;strokeColor=#9673a6;fillColor=#e1d5e7;align=center;verticalAlign=middle;whiteSpace=wrap;rounded=0;" parent="1" vertex="1">
          <mxGeometry x="1031" y="-164" width="209" height="20" as="geometry" />
        </mxCell>
        <mxCell id="qgYu-cR_Me6EohLr5Clw-237" value="Git branching model" style="rounded=0;whiteSpace=wrap;html=1;strokeWidth=2;fontSize=14;" parent="1" vertex="1">
          <mxGeometry x="570" y="-380" width="290" height="60" as="geometry" />
        </mxCell>
        <mxCell id="dx6nrJI4djwBMw3k_C7e-208" style="edgeStyle=orthogonalEdgeStyle;rounded=1;orthogonalLoop=1;jettySize=auto;html=1;exitX=1;exitY=0.5;exitDx=0;exitDy=0;entryX=0;entryY=0.5;entryDx=0;entryDy=0;endArrow=none;strokeColor=#6c8ebf;dashed=1;endFill=0;fillColor=#dae8fc;startArrow=none;" edge="1" parent="1" source="dx6nrJI4djwBMw3k_C7e-172" target="dx6nrJI4djwBMw3k_C7e-197">
          <mxGeometry relative="1" as="geometry" />
        </mxCell>
        <mxCell id="dx6nrJI4djwBMw3k_C7e-172" value="" style="ellipse;whiteSpace=wrap;html=1;aspect=fixed;fillColor=#dae8fc;strokeColor=#6c8ebf;fontStyle=1;labelPosition=center;verticalLabelPosition=top;align=center;verticalAlign=bottom;fontColor=#0066CC;" vertex="1" parent="1">
          <mxGeometry x="639.97" y="-260" width="20" height="20" as="geometry" />
        </mxCell>
        <mxCell id="dx6nrJI4djwBMw3k_C7e-174" value="" style="edgeStyle=orthogonalEdgeStyle;rounded=1;orthogonalLoop=1;jettySize=auto;html=1;dashed=1;endArrow=none;endFill=0;fillColor=#ffe6cc;strokeColor=#d79b00;entryX=0;entryY=0.5;entryDx=0;entryDy=0;" edge="1" parent="1" source="dx6nrJI4djwBMw3k_C7e-187" target="dx6nrJI4djwBMw3k_C7e-171">
          <mxGeometry relative="1" as="geometry">
            <mxPoint x="550.0000800003199" y="-176.79999999999995" as="targetPoint" />
            <mxPoint x="473" y="-177" as="sourcePoint" />
            <Array as="points" />
          </mxGeometry>
        </mxCell>
        <mxCell id="dx6nrJI4djwBMw3k_C7e-186" style="edgeStyle=orthogonalEdgeStyle;rounded=1;orthogonalLoop=1;jettySize=auto;html=1;exitX=1;exitY=0.5;exitDx=0;exitDy=0;entryX=0.5;entryY=1;entryDx=0;entryDy=0;endArrow=none;strokeColor=#d79b00;dashed=1;endFill=0;fillColor=#ffe6cc;" edge="1" parent="1" source="dx6nrJI4djwBMw3k_C7e-171" target="dx6nrJI4djwBMw3k_C7e-172">
          <mxGeometry relative="1" as="geometry">
            <Array as="points">
              <mxPoint x="610" y="-190" />
              <mxPoint x="650" y="-190" />
            </Array>
          </mxGeometry>
        </mxCell>
        <mxCell id="dx6nrJI4djwBMw3k_C7e-189" value="Manual merge request" style="edgeLabel;html=1;align=center;verticalAlign=middle;resizable=0;points=[];" vertex="1" connectable="0" parent="dx6nrJI4djwBMw3k_C7e-186">
          <mxGeometry x="0.4951" y="-3" relative="1" as="geometry">
            <mxPoint as="offset" />
          </mxGeometry>
        </mxCell>
        <mxCell id="dx6nrJI4djwBMw3k_C7e-171" value="" style="ellipse;whiteSpace=wrap;html=1;aspect=fixed;fontSize=10;fillColor=#ffe6cc;strokeColor=#d79b00;" vertex="1" parent="1">
          <mxGeometry x="590" y="-187" width="20" height="20" as="geometry" />
        </mxCell>
        <mxCell id="dx6nrJI4djwBMw3k_C7e-175" value="" style="ellipse;whiteSpace=wrap;html=1;aspect=fixed;fontSize=12;fillColor=#e1d5e7;strokeColor=#9673a6;" vertex="1" parent="1">
          <mxGeometry x="775" y="-59" width="20" height="20" as="geometry" />
        </mxCell>
        <mxCell id="dx6nrJI4djwBMw3k_C7e-182" value="" style="edgeStyle=orthogonalEdgeStyle;rounded=1;orthogonalLoop=1;jettySize=auto;html=1;dashed=1;endArrow=none;endFill=0;fillColor=#e1d5e7;strokeColor=#9673a6;exitX=0.5;exitY=1;exitDx=0;exitDy=0;entryX=0;entryY=0.5;entryDx=0;entryDy=0;" edge="1" parent="1" source="dx6nrJI4djwBMw3k_C7e-187" target="dx6nrJI4djwBMw3k_C7e-181">
          <mxGeometry relative="1" as="geometry">
            <mxPoint x="741" y="-133.5" as="targetPoint" />
            <mxPoint x="470" y="-133" as="sourcePoint" />
            <Array as="points" />
          </mxGeometry>
        </mxCell>
        <mxCell id="dx6nrJI4djwBMw3k_C7e-184" style="edgeStyle=orthogonalEdgeStyle;rounded=1;orthogonalLoop=1;jettySize=auto;html=1;exitX=1;exitY=0.5;exitDx=0;exitDy=0;entryX=0.5;entryY=1;entryDx=0;entryDy=0;endArrow=none;strokeColor=#9673a6;dashed=1;endFill=0;fillColor=#e1d5e7;" edge="1" parent="1" source="dx6nrJI4djwBMw3k_C7e-181" target="dx6nrJI4djwBMw3k_C7e-171">
          <mxGeometry relative="1" as="geometry" />
        </mxCell>
        <mxCell id="dx6nrJI4djwBMw3k_C7e-181" value="" style="ellipse;whiteSpace=wrap;html=1;aspect=fixed;fontSize=12;fillColor=#e1d5e7;strokeColor=#9673a6;" vertex="1" parent="1">
          <mxGeometry x="537" y="-155" width="20" height="20" as="geometry" />
        </mxCell>
        <mxCell id="dx6nrJI4djwBMw3k_C7e-187" value="" style="ellipse;whiteSpace=wrap;html=1;aspect=fixed;fontSize=10;fillColor=#ffe6cc;strokeColor=#d79b00;" vertex="1" parent="1">
          <mxGeometry x="493.15999999999997" y="-187" width="20" height="20" as="geometry" />
        </mxCell>
        <mxCell id="dx6nrJI4djwBMw3k_C7e-192" value="" style="edgeStyle=orthogonalEdgeStyle;rounded=1;orthogonalLoop=1;jettySize=auto;html=1;dashed=1;endArrow=none;endFill=0;fillColor=#d5e8d4;strokeColor=#82b366;exitX=1;exitY=0.5;exitDx=0;exitDy=0;" edge="1" parent="1" source="dx6nrJI4djwBMw3k_C7e-209" target="dx6nrJI4djwBMw3k_C7e-191">
          <mxGeometry relative="1" as="geometry">
            <mxPoint x="1031.02" y="-80" as="targetPoint" />
            <mxPoint x="470" y="-80" as="sourcePoint" />
            <Array as="points" />
          </mxGeometry>
        </mxCell>
        <mxCell id="dx6nrJI4djwBMw3k_C7e-202" style="edgeStyle=orthogonalEdgeStyle;rounded=1;orthogonalLoop=1;jettySize=auto;html=1;entryX=0.5;entryY=1;entryDx=0;entryDy=0;endArrow=none;strokeColor=#82b366;dashed=1;endFill=0;fillColor=#d5e8d4;exitX=1;exitY=0.5;exitDx=0;exitDy=0;" edge="1" parent="1" target="dx6nrJI4djwBMw3k_C7e-195">
          <mxGeometry relative="1" as="geometry">
            <mxPoint x="828" y="-80" as="sourcePoint" />
          </mxGeometry>
        </mxCell>
        <mxCell id="dx6nrJI4djwBMw3k_C7e-203" value="Manual merge request" style="edgeLabel;html=1;align=center;verticalAlign=middle;resizable=0;points=[];" vertex="1" connectable="0" parent="dx6nrJI4djwBMw3k_C7e-202">
          <mxGeometry x="0.1713" y="-2" relative="1" as="geometry">
            <mxPoint as="offset" />
          </mxGeometry>
        </mxCell>
        <mxCell id="dx6nrJI4djwBMw3k_C7e-191" value="" style="ellipse;whiteSpace=wrap;html=1;aspect=fixed;fontSize=10;fillColor=#d5e8d4;strokeColor=#82b366;" vertex="1" parent="1">
          <mxGeometry x="830" y="-90" width="20" height="20" as="geometry" />
        </mxCell>
        <mxCell id="dx6nrJI4djwBMw3k_C7e-201" style="edgeStyle=orthogonalEdgeStyle;rounded=1;orthogonalLoop=1;jettySize=auto;html=1;exitX=0.5;exitY=1;exitDx=0;exitDy=0;entryX=0;entryY=0.5;entryDx=0;entryDy=0;endArrow=none;strokeColor=#9673a6;dashed=1;endFill=0;fillColor=#e1d5e7;" edge="1" parent="1" source="dx6nrJI4djwBMw3k_C7e-194" target="dx6nrJI4djwBMw3k_C7e-175">
          <mxGeometry relative="1" as="geometry" />
        </mxCell>
        <mxCell id="dx6nrJI4djwBMw3k_C7e-194" value="" style="ellipse;whiteSpace=wrap;html=1;aspect=fixed;fontSize=10;fillColor=#d5e8d4;strokeColor=#82b366;" vertex="1" parent="1">
          <mxGeometry x="715" y="-90" width="20" height="20" as="geometry" />
        </mxCell>
        <mxCell id="dx6nrJI4djwBMw3k_C7e-195" value="" style="ellipse;whiteSpace=wrap;html=1;aspect=fixed;fillColor=#dae8fc;strokeColor=#6c8ebf;fontStyle=1;labelPosition=center;verticalLabelPosition=top;align=center;verticalAlign=bottom;fontColor=#0066CC;" vertex="1" parent="1">
          <mxGeometry x="863" y="-225" width="20" height="20" as="geometry" />
        </mxCell>
        <mxCell id="dx6nrJI4djwBMw3k_C7e-198" value="" style="edgeStyle=orthogonalEdgeStyle;rounded=1;orthogonalLoop=1;jettySize=auto;html=1;dashed=1;endArrow=none;endFill=0;fillColor=#dae8fc;strokeColor=#6c8ebf;entryX=0;entryY=0.5;entryDx=0;entryDy=0;startArrow=none;" edge="1" parent="1" target="dx6nrJI4djwBMw3k_C7e-172">
          <mxGeometry relative="1" as="geometry">
            <mxPoint x="1030.97" y="-250.5" as="targetPoint" />
            <mxPoint x="480" y="-250" as="sourcePoint" />
            <Array as="points" />
          </mxGeometry>
        </mxCell>
        <mxCell id="dx6nrJI4djwBMw3k_C7e-197" value="" style="ellipse;whiteSpace=wrap;html=1;aspect=fixed;fillColor=#dae8fc;strokeColor=#6c8ebf;fontStyle=1;labelPosition=center;verticalLabelPosition=top;align=center;verticalAlign=bottom;fontColor=#0066CC;" vertex="1" parent="1">
          <mxGeometry x="733.5" y="-260" width="20" height="20" as="geometry" />
        </mxCell>
        <mxCell id="dx6nrJI4djwBMw3k_C7e-205" value="" style="edgeStyle=orthogonalEdgeStyle;rounded=1;orthogonalLoop=1;jettySize=auto;html=1;dashed=1;endArrow=none;endFill=0;fillColor=#d5e8d4;strokeColor=#82b366;exitX=1;exitY=0.5;exitDx=0;exitDy=0;" edge="1" parent="1" source="dx6nrJI4djwBMw3k_C7e-191" target="dx6nrJI4djwBMw3k_C7e-204">
          <mxGeometry relative="1" as="geometry">
            <mxPoint x="1031.02" y="-80" as="targetPoint" />
            <mxPoint x="850" y="-80" as="sourcePoint" />
            <Array as="points" />
          </mxGeometry>
        </mxCell>
        <mxCell id="dx6nrJI4djwBMw3k_C7e-206" style="edgeStyle=orthogonalEdgeStyle;rounded=1;orthogonalLoop=1;jettySize=auto;html=1;exitX=1;exitY=0.5;exitDx=0;exitDy=0;entryX=0.5;entryY=1;entryDx=0;entryDy=0;endArrow=none;strokeColor=#82b366;dashed=1;endFill=0;fillColor=#d5e8d4;" edge="1" parent="1" source="dx6nrJI4djwBMw3k_C7e-204" target="qgYu-cR_Me6EohLr5Clw-221">
          <mxGeometry relative="1" as="geometry">
            <Array as="points">
              <mxPoint x="970" y="-80" />
              <mxPoint x="970" y="-205" />
            </Array>
          </mxGeometry>
        </mxCell>
        <mxCell id="dx6nrJI4djwBMw3k_C7e-204" value="" style="ellipse;whiteSpace=wrap;html=1;aspect=fixed;fontSize=10;fillColor=#d5e8d4;strokeColor=#82b366;" vertex="1" parent="1">
          <mxGeometry x="930" y="-90" width="20" height="20" as="geometry" />
        </mxCell>
        <mxCell id="dx6nrJI4djwBMw3k_C7e-210" style="edgeStyle=orthogonalEdgeStyle;rounded=1;orthogonalLoop=1;jettySize=auto;html=1;exitX=0.5;exitY=0;exitDx=0;exitDy=0;entryX=0;entryY=0.5;entryDx=0;entryDy=0;endArrow=none;strokeColor=#82b366;dashed=1;endFill=0;fillColor=#d5e8d4;startArrow=none;" edge="1" parent="1" source="dx6nrJI4djwBMw3k_C7e-209" target="dx6nrJI4djwBMw3k_C7e-187">
          <mxGeometry relative="1" as="geometry" />
        </mxCell>
        <mxCell id="xqJfjdwFg4DOuMYM3s_x-169" style="edgeStyle=orthogonalEdgeStyle;shape=connector;rounded=1;orthogonalLoop=1;jettySize=auto;html=1;exitX=0;exitY=0.5;exitDx=0;exitDy=0;dashed=1;labelBackgroundColor=default;strokeColor=#82b366;align=center;verticalAlign=middle;fontFamily=Helvetica;fontSize=11;fontColor=default;startArrow=none;endArrow=none;endFill=0;fillColor=#d5e8d4;" edge="1" parent="1" source="dx6nrJI4djwBMw3k_C7e-209">
          <mxGeometry relative="1" as="geometry">
            <mxPoint x="230" y="-80" as="targetPoint" />
          </mxGeometry>
        </mxCell>
        <mxCell id="dx6nrJI4djwBMw3k_C7e-209" value="" style="ellipse;whiteSpace=wrap;html=1;aspect=fixed;fontSize=10;fillColor=#d5e8d4;strokeColor=#82b366;" vertex="1" parent="1">
          <mxGeometry x="464" y="-90" width="20" height="20" as="geometry" />
        </mxCell>
        <mxCell id="dx6nrJI4djwBMw3k_C7e-211" value="" style="ellipse;whiteSpace=wrap;html=1;aspect=fixed;fillColor=#dae8fc;strokeColor=#6c8ebf;fontStyle=1;labelPosition=center;verticalLabelPosition=top;align=center;verticalAlign=bottom;fontColor=#0066CC;" vertex="1" parent="1">
          <mxGeometry x="517" y="400" width="20" height="20" as="geometry" />
        </mxCell>
        <mxCell id="dx6nrJI4djwBMw3k_C7e-216" value="" style="endArrow=none;dashed=1;html=1;fillColor=#dae8fc;strokeColor=#6c8ebf;exitX=1;exitY=0.5;exitDx=0;exitDy=0;" edge="1" parent="1" source="ka2fryHVlHf1zdvt1wW3-389" target="dx6nrJI4djwBMw3k_C7e-215">
          <mxGeometry width="50" height="50" relative="1" as="geometry">
            <mxPoint x="780" y="437" as="sourcePoint" />
            <mxPoint x="1050" y="437" as="targetPoint" />
          </mxGeometry>
        </mxCell>
        <mxCell id="dx6nrJI4djwBMw3k_C7e-215" value="" style="ellipse;whiteSpace=wrap;html=1;aspect=fixed;fillColor=#dae8fc;strokeColor=#6c8ebf;fontStyle=1;labelPosition=center;verticalLabelPosition=top;align=center;verticalAlign=bottom;fontColor=#0066CC;" vertex="1" parent="1">
          <mxGeometry x="906" y="427" width="20" height="20" as="geometry" />
        </mxCell>
        <mxCell id="dx6nrJI4djwBMw3k_C7e-221" style="edgeStyle=orthogonalEdgeStyle;shape=connector;rounded=1;orthogonalLoop=1;jettySize=auto;html=1;exitX=1;exitY=0;exitDx=0;exitDy=0;entryX=1;entryY=0.5;entryDx=0;entryDy=0;dashed=1;labelBackgroundColor=default;strokeColor=#d79b00;align=center;verticalAlign=middle;fontFamily=Helvetica;fontSize=11;fontColor=default;startArrow=none;endArrow=none;endFill=0;fillColor=#ffe6cc;" edge="1" parent="1" source="ka2fryHVlHf1zdvt1wW3-391" target="ka2fryHVlHf1zdvt1wW3-391">
          <mxGeometry relative="1" as="geometry" />
        </mxCell>
        <mxCell id="dx6nrJI4djwBMw3k_C7e-222" style="edgeStyle=orthogonalEdgeStyle;orthogonalLoop=1;jettySize=auto;html=1;entryX=0.5;entryY=1;entryDx=0;entryDy=0;endArrow=none;strokeColor=#82b366;fillColor=#d5e8d4;dashed=1;endFill=0;curved=1;" edge="1" parent="1" target="dx6nrJI4djwBMw3k_C7e-215">
          <mxGeometry relative="1" as="geometry">
            <mxPoint x="891" y="521" as="sourcePoint" />
            <mxPoint x="921" y="447" as="targetPoint" />
          </mxGeometry>
        </mxCell>
        <mxCell id="dx6nrJI4djwBMw3k_C7e-223" value="upkeep manifest file" style="shape=image;verticalLabelPosition=middle;labelBackgroundColor=default;verticalAlign=middle;aspect=fixed;imageAspect=0;image=data:image/png,iVBORw0KGgoAAAANSUhEUgAAAMgAAADICAMAAACahl6sAAAA4VBMVEX////bOyE4DXX8oSHe1PX8bSb8cyX539r+9/b++/v7niH++fjcQCf9/P7+/fz49v3dQiHvqZ32jiHjVCHdRi3h2PbscSHfSCHhTyH42NLv6vrgV0Hjalb65eH76+jeSzPfUTrxtavhXUj1x7/p4vjsmo3kbFnnfWz4lCHudSHxfyHlcl9BGHv18vzq5Pj3z8nwsqjqaCFpSZfWzeLph3fqkIHupZnslIb0iCHzvbWXgbdcOY5xUp3md2a+sNLf2OmnlMLmXyGMc69QKobIvdl9YaVfPJCzo8uhjb5KI4HzYCRXkrmHAAAMJUlEQVR4nO1de1/aShMWsS8Bwk1ABZGbCN6xFS/YWrU97an9/h/oENHMzO5sskkWE39vnr9Ks8nsZGaemb3FtbUUKVKkSJEiRYoUKVKkAJQqZ+1Rs7mxsdEcnbcrlVLcHQqHyvmLDoDmqP3xVCmdjTYYNEdnH0uXNqfFqy6VuDunD94aLs4/iColD3N8JKOUvM2xRDvuXvqj0vRXY4FR0mO+oqWGo0ncPfWGpj0Sr0lJ1GORA53EsUjxo6Z4LclxMhJeOs5+pUpbUOUsvo76oC2oIV4vUVWaSQ146lhsXUW5OalhgjvZVPgNzZbJdC7MvB5egzVpvmP39IEN4lWDYE2SyFzYIJ4ug+MkiVFyrt09TApxEVf3etzL2LuTuXQF9c6XVs+8fKtb6zgiZvuGusxibzfzipklXKp4dU6Al9I5V8RV0VzHBUwbGRdjQQwKYRrp1vXkZDaneiOTCOG0j0RMVqGDg+Iwg3BVJhfhJZMI6V4tW+/Oi3xrar7uLhZxQEUYwwEWkmns4Wsl3iDQMfsKNz/n1V6bURG5lehh9YiUTA1fhBDBSc7qoPbX6EKbV4QaRBBhDC2bShliw5+xPavh9r0i15wkd0nEShShnrXAFF2EV3wO/1nukPYXcKXEK3IjSLCJ+xpCWTD7Ihb9FClSZ0TvF4XUmrK9IMIUpqKQTIdVBNGQJbxf1J5VZF8WkTevyJUkpYGSA6tIkbq8ryIzSUSva1wPayhJwYbnFemT5mO4wrsWI0KuhaJiz5al9MDwLJ+WT0hzRA4sW3cZEbvGfUviLAct9zLPpwPctSHqE9tc5KwXGM+JQCjbVfefkLBQzYhuKmOvx17CGdACretwF06jJoA46wjEgNcjp8dloDV5611vgB83YtgaibgFESeGFbl2n1zNboFE4C3oGh2IzxuOKvaQ0k+TURucd7sAImxxvBARkKOfsoegCPCWuoyfzgf7OVrHso2Bs+rZTRBxsWYSyH+Pslkw/NCtn8IOrNz/zGWwiG33h1neQpy1mc0euz9Qod1UmURGm1Ma8cJhNnvEiYgOCzLbTjabPQTeAsOHmnyAka4FpdwTFTHwelZAoPL6eCEluwO+BY02mO6xaHMq56iIAogwyVswrqgeOoog3oKciEyirQg4oSjis/vbNlhvAWfVC46UAigCvFUJrggYJA+etfMiAlGjuZyI6qyt7AuAtzpArK5JfFyrxBikBf0+lkQY4y3EWYdLKYhUUMJ6C2I//m3L7aDOqhZEEcZq+SLyrKUQnLCQ4StapOVqgvQo44QriTBVy3dh0uzV7NkCJKw+MnypPRqdC1Nu1sXN7GAqTOdVztpnZNqIJNylCCBgU3MQF/BuNl+lIMMj3mJgvbrlcOrp6FDKvTkvoUZDOVEkFOF9eU0+dd0CyvaaR7DA5jtZVwTrvhGACGXLlZLlankJRTxE9FAYVfDHnIh7I4rgCh7A1vIikFMugkk9uw60WC1wImzlnUEwdp9XR4ogUlE6TRludaAmH5kWBREmannkv0dIClvLCxAm3DqKZmt7GVYEisO+gXl5WsED2FpeeAdED7WDoFmHQywCqNGOzltFxFlYiE6hLSiSUTUDEfWgIvQhVvBgeLaWD6NITk64kojovAXEUyVmJ4W2wvCaiogVPCsicr0FhLJToFL8eUtPkfJQR0RU3pIreADKiTyp6CmCEu6RKAJ8qxNxjVeu4AGQsHp8TtRTRK7gAcBb/Wi+xVTwgFvoIk8qWork5Qqe9a1otXwXUppkdlJos76lpUhXkXCXImC44FHSaWAOZt+UpOB6i13s01IELZgyIp7gaqScCISyLfmvYn4roCL5nrcIuDvKWjWaxpQ4ywHwFrvdQkcRedaBwkxORAM35m3hhNXgeEtHEX6QwInoRVAExkUyZznw4S0dRfhBgrYIPZSBUD6zUrKIt5gxuYYiXbjKOi+mxvC8hQjlllcE5USGtzQUUQ0SON8KvQ8CFUFyzl1iE94Xk7D8FRGm+TkceorQgled9WZ4SFgMqfgrkvPKhq8igLfC7kQbgEGkOosxvFwM+SsSTISipPPFBMyu8CyfQttfkbGGiFsvETqwfDnLARh+nBOBkt0LpAb7to4IcN+TUHMQaFLq6WmnmokF1e36E7yrULV8vuPx/Lgw9e+3hK60CywBCFNvybvAkoAQvHUfd59ZBK+39vwfGgcmQXlL3IGbFNgnwZwLb1FPGO6DlI6DuHvrhQDJZJ5cezgY6tpErCwyvc7B/t7qTnN4odu6mAzF9yoe+VDAoptcM51pd0XHHzRh7R0IyflEZy+ERfe4jucr2AwdGNY1fbs6ZTA5YWCv5uBDCJATHDqrDDlsxWErXqfCyF9jTU78woQsxO6u4tRDeGAytf3qYDSIzgwN71SNjDl+yT4mgeFtpu+5ySQWXKAt6t7lI0oh9kpPNIZDHjm+97AXHRKZJIF2RaBalp1tfgPa/0UrmrPv357XDeGns1Gwffr285nuEi6d0sY/Lsl1NJHgtd0ITcnhnUWVu5+mtFjgj/PIO/fnHe3CH6n91+/oMpraaXi4DKJqFOntLwbVWD91dtiVnslPZBDG8KePaLPngO2iCJjsRRtgzkyaY339m/PMf9yfX2gPLtl7kNXKkLDVvIXm+FG++WVUj/VH55lKz3pk7zlF3gWloDpIgHyR//HvKDwunYf+pj8BCi8+5Y6ZqOeGYAYIlptLX83qseQs+hPQVt32neukUhEoAWBj/cOp6tnh8K/z0B/uz0fagzvVbb/cJrBA21cqAiQNKxH/qB4dDqdOVqgAZ9FN22rz/3TbQCA3lIrAUGTm/t93s4p8cVzp0rXyb5oNPcwPjYCR4lTkhaQg6f2gHfhXfWNIRVbmWg/OM3/SnwA1sTy7bWD1SL2JdsAw26XRYP/98kj6E/CgvvGb2wjmctU7CIDZILGXjOb1kJz1eqPQSTX9QkJE+2xNBsmp40oV14FO9bLh241LQD2oPnyFShS0p8hgyfiS/h40K3iMP9AKxrDkux4EqCBDS9qXxkYiPhU8X2c5+IX6CEMrj8ktNEBE46pLU2ESvIJf4htqiBbSPCZS0OoOVvfBkHeFqeAX+IM8EJ2O81qGQ83Ibp/S919fDdDwo/OsYJ71/OWO5Bo0I6QOkTUyG7SKL3lEB/oshOfsITpa00jetNZaGe2K6njP5iKNx0mbaKTfxfI5d4VX1++TNrPVQnr47RQinz+5SpZNcnil2XfBnay7aa0MvRdIz3b9F0jId2+GiYl4iyy/NTR21wibaa7Mf70nBPIteoDuRuemHP3yTX8WvyqtDl3Y7esFLzkGuYB9X9vPxbSya3Vb8xvx40hD3VfLficoQdDeflaUv6WVIPSCrEAdMF+ISgj6gbYDlhO7PagfdKW5NUyiUewQxUYxgSHfC7PLdFFrzpJllMZ16IyWGydnz2w/Uglb3rtIxD5mezKNXl/karPxbj8mFrMb/eHJ1dzUeKJcLFovmIiCdj4Zwl9x832vtRRZzK+kOJoL2+sy1b9G9KgLj83cr+Zbv4DuiSiyHl0NyRyN69XXqNZAJOVt43q803iuJX1zNJp77QhPs2fvNcK2pOo4QszLbjV9x6GPtMU5dMxLUT5ZdZRTlE/ESPn76X/B8Ukyx7vP1Fo10Sh15QE8JY62hWd04pi1mYoxX2XPcatx+Fl4QEP6QwfvA0v6QG9deZiQ00M0R2Y/tl3Gc/G4zI7icLIM9AHZV0zi3GXcFWvj6paeUQ5FtmrEvHm9WBM6pOdeTJTHvnk9J+X5Yz9VEhPlFNaNmFKevDXZFM3RiC/KCcqDIDFf2BKTYKxRTiF/HV8Z8wUxypNzRMWBVRPdq85/wuFYNEcnlwy3ciHFfJWJ+YIY5XYiopzCkib0pI8zSVHeS0iUU+SlPL9NYl6KcjvQIc/3hCUd8EUxn/Aop8hfSLX9W8xLUZ6cdVYW0iT+MuYLT6I5Vvh3w8xAru0Xef5WjPK+9+d/kwE55j9/mCinsKQ5PAFm/+7DCmENvKa8Ex7lFPIcHkR53H0LBjnmP1CUU0gx7+CDRLkAOeZN/gWOd0S+Rlcgxx8pyilaaJLFniWx0tUFxHzv40U5xf4y5u/j3/QVFfnabqaTyAFUihQpUqRIkSJFiv83/AeTgiAu6/6YxgAAAABJRU5ErkJggg==;fontSize=11;labelPosition=right;align=left;" vertex="1" parent="1">
          <mxGeometry x="722" y="456" width="28" height="28" as="geometry" />
        </mxCell>
        <mxCell id="dx6nrJI4djwBMw3k_C7e-224" value="Nightly pipeline&amp;nbsp;" style="verticalLabelPosition=top;html=1;verticalAlign=bottom;align=center;strokeColor=none;fillColor=#00BEF2;shape=mxgraph.azure.scheduler;pointerEvents=1;fontFamily=Helvetica;fontSize=11;fontColor=default;labelPosition=center;" vertex="1" parent="1">
          <mxGeometry x="1210" y="395" width="40" height="50" as="geometry" />
        </mxCell>
      </root>
    </mxGraphModel>
  </diagram>
  <diagram name="Page-2" id="KqrxGoB3HW79Ka8mG_SM">
    <mxGraphModel dx="1364" dy="775" grid="1" gridSize="10" guides="1" tooltips="1" connect="1" arrows="1" fold="1" page="1" pageScale="1" pageWidth="827" pageHeight="1169" math="0" shadow="0">
      <root>
        <mxCell id="0" />
        <mxCell id="1" parent="0" />
      </root>
    </mxGraphModel>
  </diagram>
</mxfile>
